# Blender 3.6.21
# www.blender.org
mtllib traffic.mtl
v -0.599931 0.144138 0.015835
v -0.588276 0.144138 0.015835
v -0.604196 0.000000 0.127283
v -0.599931 0.000000 0.121187
v -0.594104 0.000000 0.118956
v -0.588276 0.000000 0.121187
v -0.584010 0.000000 0.127283
v -0.582449 0.000000 0.135610
v -0.584010 0.000000 0.143937
v -0.588276 0.000000 0.150033
v -0.594104 0.000000 0.152264
v -0.599931 0.000000 0.150033
v -0.604196 0.000000 0.143937
v -0.605758 0.000000 0.135610
v 0.000000 0.151309 0.000000
v 0.000000 0.127019 0.000000
v 0.000000 0.128646 0.008588
v 0.000000 0.149682 0.008588
v 0.000000 0.887762 0.008588
v 0.000000 0.919537 0.000000
v 0.000000 0.885481 0.000000
v -0.859671 0.784547 0.008588
v -0.865904 0.785367 0.014874
v -0.874418 0.786488 0.017175
v -0.882932 0.787609 0.014874
v -0.889165 0.788430 0.008588
v -0.891447 0.788730 0.000000
v -0.857390 0.784246 0.000000
v -0.845993 0.837062 0.008588
v -0.851437 0.840205 0.014874
v -0.858875 0.844499 0.017175
v -0.866312 0.848793 0.014874
v -0.871756 0.851936 0.008588
v -0.873749 0.853086 0.000000
v -0.844000 0.835911 0.000000
v -0.808971 0.874084 0.008588
v -0.812114 0.879528 0.014874
v -0.816408 0.886965 0.017175
v -0.820702 0.894402 0.014874
v -0.823845 0.899847 0.008588
v -0.824996 0.901839 0.000000
v -0.807820 0.872091 0.000000
v -0.756456 0.887762 0.008588
v -0.757277 0.893995 0.014874
v -0.758398 0.902509 0.017175
v -0.759518 0.911023 0.014874
v -0.760339 0.917256 0.008588
v -0.760639 0.919537 0.000000
v -0.756156 0.885481 0.000000
v -0.865858 0.133092 0.014874
v -0.859640 0.149682 0.008588
v -0.859592 0.128646 0.008588
v -0.857280 0.127019 0.000000
v -0.865886 0.145667 0.014874
v -0.865858 0.068151 -0.014874
v -0.874418 0.068151 0.017175
v -0.883006 0.068151 0.014874
v -0.889293 0.068151 0.008588
v -0.891594 0.068151 0.000000
v -0.857280 0.068151 0.000000
v -0.874418 0.139164 0.017175
v -0.889229 0.139164 0.008588
v -0.882969 0.139164 0.014874
v -0.857317 0.151309 0.000000
v -0.891520 0.139164 0.000000
v -0.605254 0.133092 0.014874
v -0.582953 0.133092 0.014874
v -0.610617 0.145540 0.014874
v -0.604013 0.139164 0.017175
v -0.584449 0.139164 0.017175
v -0.599931 0.127693 0.003557
v -0.588276 0.127693 0.003557
v -0.604196 0.128630 0.008503
v -0.583991 0.128646 0.008588
v -0.610093 0.151309 0.000000
v -0.610091 0.127019 0.000000
v -0.610235 0.149682 0.008588
v -0.593980 0.127358 0.001785
v -0.593980 0.149682 0.008588
v -0.593980 0.145532 0.014874
v -0.593980 0.151309 0.000000
v -0.593980 0.127019 0.000000
v -0.576618 0.149682 0.008588
v -0.576618 0.145510 0.014874
v -0.576618 0.151309 0.000000
v -0.576618 0.127019 0.000000
v -0.599931 0.144138 -0.015835
v -0.588276 0.144138 -0.015835
v -0.604196 0.000000 -0.127283
v -0.599931 0.000000 -0.121187
v -0.594104 0.000000 -0.118956
v -0.588276 0.000000 -0.121187
v -0.584010 0.000000 -0.127283
v -0.582449 0.000000 -0.135610
v -0.584010 0.000000 -0.143937
v -0.588276 0.000000 -0.150033
v -0.594104 0.000000 -0.152264
v -0.599931 0.000000 -0.150033
v -0.604196 0.000000 -0.143937
v -0.605758 0.000000 -0.135610
v 0.000000 0.139164 -0.017175
v 0.000000 0.145236 -0.014874
v 0.000000 0.128646 -0.008588
v 0.000000 0.149682 -0.008588
v 0.000000 0.133092 -0.014874
v 0.000000 0.887762 -0.008588
v 0.000000 0.917256 -0.008588
v 0.000000 0.893995 -0.014874
v 0.000000 0.902509 -0.017175
v 0.000000 0.911023 -0.014874
v -0.859671 0.784547 -0.008588
v -0.865904 0.785367 -0.014874
v -0.874418 0.786488 -0.017175
v -0.882932 0.787609 -0.014874
v -0.889165 0.788430 -0.008588
v -0.845993 0.837062 -0.008588
v -0.851437 0.840205 -0.014874
v -0.858875 0.844499 -0.017175
v -0.866312 0.848793 -0.014874
v -0.871756 0.851936 -0.008588
v -0.808971 0.874084 -0.008588
v -0.812114 0.879528 -0.014874
v -0.816408 0.886965 -0.017175
v -0.820702 0.894402 -0.014874
v -0.823845 0.899847 -0.008588
v -0.756456 0.887762 -0.008588
v -0.757277 0.893995 -0.014874
v -0.758398 0.902509 -0.017175
v -0.759518 0.911023 -0.014874
v -0.760339 0.917256 -0.008588
v -0.865858 0.133092 -0.014874
v -0.859640 0.149682 -0.008588
v -0.859592 0.128646 -0.008588
v -0.865886 0.145667 -0.014874
v -0.859592 0.068151 0.008588
v -0.865858 0.068151 0.014874
v -0.874418 0.068151 -0.017175
v -0.883006 0.068151 -0.014874
v -0.889293 0.068151 -0.008588
v -0.874418 0.139164 -0.017175
v -0.889229 0.139164 -0.008588
v -0.882969 0.139164 -0.014874
v -0.605254 0.133092 -0.014874
v -0.582953 0.133092 -0.014874
v -0.610617 0.145540 -0.014874
v -0.604013 0.139164 -0.017175
v -0.584449 0.139164 -0.017175
v -0.599931 0.127693 -0.003557
v -0.588276 0.127693 -0.003557
v -0.604196 0.128630 -0.008503
v -0.583991 0.128646 -0.008588
v -0.610235 0.149682 -0.008588
v -0.593980 0.127358 -0.001785
v -0.593980 0.149682 -0.008588
v -0.593980 0.145532 -0.014874
v -0.576618 0.149682 -0.008588
v -0.576618 0.145510 -0.014874
v 0.599931 0.144138 0.015835
v 0.588277 0.144138 0.015835
v 0.604197 0.000000 0.127283
v 0.599931 0.000000 0.121187
v 0.594104 0.000000 0.118956
v 0.588277 0.000000 0.121187
v 0.584011 0.000000 0.127283
v 0.582449 0.000000 0.135610
v 0.584011 0.000000 0.143937
v 0.588277 0.000000 0.150033
v 0.594104 0.000000 0.152264
v 0.599931 0.000000 0.150033
v 0.604197 0.000000 0.143937
v 0.605758 0.000000 0.135610
v 0.859672 0.784547 0.008588
v 0.865905 0.785367 0.014874
v 0.874419 0.786488 0.017175
v 0.882933 0.787609 0.014874
v 0.889166 0.788430 0.008588
v 0.891447 0.788730 0.000000
v 0.857391 0.784246 0.000000
v 0.845993 0.837062 0.008588
v 0.851438 0.840205 0.014874
v 0.858875 0.844499 0.017175
v 0.866312 0.848793 0.014874
v 0.871756 0.851936 0.008588
v 0.873749 0.853086 0.000000
v 0.844001 0.835911 0.000000
v 0.808971 0.874084 0.008588
v 0.812114 0.879528 0.014874
v 0.816408 0.886965 0.017175
v 0.820702 0.894402 0.014874
v 0.823846 0.899847 0.008588
v 0.824996 0.901839 0.000000
v 0.807821 0.872091 0.000000
v 0.756457 0.887762 0.008588
v 0.757277 0.893995 0.014874
v 0.758398 0.902509 0.017175
v 0.759519 0.911023 0.014874
v 0.760339 0.917256 0.008588
v 0.760640 0.919537 0.000000
v 0.756156 0.885481 0.000000
v 0.865859 0.133092 0.014874
v 0.859640 0.149682 0.008588
v 0.859592 0.128646 0.008588
v 0.857280 0.127019 0.000000
v 0.865886 0.145667 0.014874
v 0.859592 0.068151 0.008588
v 0.865859 0.068151 0.014874
v 0.874419 0.068151 0.017175
v 0.883006 0.068151 0.014874
v 0.889293 0.068151 0.008588
v 0.891594 0.068151 0.000000
v 0.857244 0.068151 0.000000
v 0.874419 0.139164 0.017175
v 0.889230 0.139164 0.008588
v 0.882970 0.139164 0.014874
v 0.857317 0.151309 0.000000
v 0.891521 0.139164 0.000000
v 0.605254 0.133092 0.014874
v 0.582953 0.133092 0.014874
v 0.610618 0.145540 0.014874
v 0.604013 0.139164 0.017175
v 0.584449 0.139164 0.017175
v 0.599931 0.127693 0.003557
v 0.594104 0.127350 0.001747
v 0.588277 0.127693 0.003557
v 0.604197 0.128630 0.008503
v 0.583991 0.128646 0.008588
v 0.610093 0.151309 0.000000
v 0.610091 0.127019 0.000000
v 0.610235 0.149682 0.008588
v 0.593981 0.149682 0.008588
v 0.593981 0.145532 0.014874
v 0.593981 0.151309 0.000000
v 0.593981 0.127019 0.000000
v 0.576619 0.149682 0.008588
v 0.576619 0.145510 0.014874
v 0.576619 0.151309 0.000000
v 0.576619 0.127019 0.000000
v 0.599931 0.144138 -0.015835
v 0.588277 0.144138 -0.015835
v 0.604197 0.000000 -0.127283
v 0.599931 0.000000 -0.121187
v 0.594104 0.000000 -0.118956
v 0.588277 0.000000 -0.121187
v 0.584011 0.000000 -0.127283
v 0.582449 0.000000 -0.135610
v 0.584011 0.000000 -0.143937
v 0.588277 0.000000 -0.150033
v 0.594104 0.000000 -0.152264
v 0.599931 0.000000 -0.150033
v 0.604197 0.000000 -0.143937
v 0.605758 0.000000 -0.135610
v 0.859672 0.784547 -0.008588
v 0.865905 0.785367 -0.014874
v 0.874419 0.786488 -0.017175
v 0.882933 0.787609 -0.014874
v 0.889166 0.788430 -0.008588
v 0.845993 0.837062 -0.008588
v 0.851438 0.840205 -0.014874
v 0.858875 0.844499 -0.017175
v 0.866312 0.848793 -0.014874
v 0.871756 0.851936 -0.008588
v 0.808971 0.874084 -0.008588
v 0.812114 0.879528 -0.014874
v 0.816408 0.886965 -0.017175
v 0.820702 0.894402 -0.014874
v 0.823846 0.899847 -0.008588
v 0.756457 0.887762 -0.008588
v 0.757277 0.893995 -0.014874
v 0.758398 0.902509 -0.017175
v 0.759519 0.911023 -0.014874
v 0.760339 0.917256 -0.008588
v 0.865859 0.133092 -0.014874
v 0.859640 0.149682 -0.008588
v 0.859592 0.128646 -0.008588
v 0.865886 0.145667 -0.014874
v 0.865859 0.068151 -0.014874
v 0.874419 0.068151 -0.017175
v 0.883006 0.068151 -0.014874
v 0.889293 0.068151 -0.008588
v 0.874419 0.139164 -0.017175
v 0.889230 0.139164 -0.008588
v 0.882970 0.139164 -0.014874
v 0.605254 0.133092 -0.014874
v 0.582953 0.133092 -0.014874
v 0.610618 0.145540 -0.014874
v 0.604013 0.139164 -0.017175
v 0.584449 0.139164 -0.017175
v 0.599931 0.127693 -0.003557
v 0.594104 0.127350 -0.001747
v 0.588277 0.127693 -0.003557
v 0.604197 0.128630 -0.008503
v 0.583991 0.128646 -0.008588
v 0.610235 0.149682 -0.008588
v 0.593981 0.149682 -0.008588
v 0.593981 0.145532 -0.014874
v 0.576619 0.149682 -0.008588
v 0.576619 0.145510 -0.014874
v 0.000000 0.145510 0.014874
v 0.000000 0.139164 0.017175
v 0.000000 0.133092 0.014874
v 0.000000 0.917256 0.008588
v 0.000000 0.911023 0.014874
v 0.000000 0.902509 0.017175
v 0.000000 0.893995 0.014874
v 0.859592 0.068151 -0.008588
v -0.859592 0.068151 -0.008588
v -0.745655 0.895391 -0.004771
v -0.742162 0.895391 -0.008263
v -0.737391 0.895391 -0.009542
v -0.732620 0.895391 -0.008263
v -0.729128 0.895391 -0.004771
v -0.727849 0.895391 0.000000
v -0.729128 0.895391 0.004771
v -0.732620 0.895391 0.008263
v -0.737391 0.895391 0.009542
v -0.742162 0.895391 0.008264
v -0.745655 0.895391 0.004771
v -0.746933 0.895391 0.000000
v -0.745655 0.141910 -0.004771
v -0.742162 0.141910 -0.008263
v -0.737391 0.141910 -0.009542
v -0.732620 0.141910 -0.008263
v -0.729128 0.141910 -0.004771
v -0.727849 0.141910 0.000000
v -0.729128 0.141910 0.004771
v -0.732620 0.141910 0.008263
v -0.737391 0.141910 0.009542
v -0.742162 0.141910 0.008264
v -0.745655 0.141910 0.004771
v -0.746933 0.141910 0.000000
v -0.640313 0.895391 -0.004771
v -0.636821 0.895391 -0.008263
v -0.632050 0.895391 -0.009542
v -0.627279 0.895391 -0.008263
v -0.623786 0.895391 -0.004771
v -0.622508 0.895391 0.000000
v -0.623786 0.895391 0.004771
v -0.627279 0.895391 0.008263
v -0.632050 0.895391 0.009542
v -0.636821 0.895391 0.008264
v -0.640313 0.895391 0.004771
v -0.641591 0.895391 0.000000
v -0.640313 0.141910 -0.004771
v -0.636821 0.141910 -0.008263
v -0.632050 0.141910 -0.009542
v -0.627279 0.141910 -0.008263
v -0.623786 0.141910 -0.004771
v -0.622508 0.141910 0.000000
v -0.623786 0.141910 0.004771
v -0.627279 0.141910 0.008263
v -0.632050 0.141910 0.009542
v -0.636821 0.141910 0.008264
v -0.640313 0.141910 0.004771
v -0.641591 0.141910 0.000000
v -0.534972 0.895391 -0.004771
v -0.531479 0.895391 -0.008263
v -0.526708 0.895391 -0.009542
v -0.521937 0.895391 -0.008263
v -0.518445 0.895391 -0.004771
v -0.517166 0.895391 0.000000
v -0.518445 0.895391 0.004771
v -0.521937 0.895391 0.008263
v -0.526708 0.895391 0.009542
v -0.531479 0.895391 0.008264
v -0.534972 0.895391 0.004771
v -0.536250 0.895391 0.000000
v -0.534972 0.141910 -0.004771
v -0.531479 0.141910 -0.008263
v -0.526708 0.141910 -0.009542
v -0.521937 0.141910 -0.008263
v -0.518445 0.141910 -0.004771
v -0.517166 0.141910 0.000000
v -0.518445 0.141910 0.004771
v -0.521937 0.141910 0.008263
v -0.526708 0.141910 0.009542
v -0.531479 0.141910 0.008264
v -0.534972 0.141910 0.004771
v -0.536250 0.141910 0.000000
v -0.429630 0.895391 -0.004771
v -0.426137 0.895391 -0.008263
v -0.421367 0.895391 -0.009542
v -0.416596 0.895391 -0.008263
v -0.413103 0.895391 -0.004771
v -0.411825 0.895391 0.000000
v -0.413103 0.895391 0.004771
v -0.416596 0.895391 0.008263
v -0.421367 0.895391 0.009542
v -0.426137 0.895391 0.008264
v -0.429630 0.895391 0.004771
v -0.430908 0.895391 0.000000
v -0.429630 0.141910 -0.004771
v -0.426137 0.141910 -0.008263
v -0.421367 0.141910 -0.009542
v -0.416596 0.141910 -0.008263
v -0.413103 0.141910 -0.004771
v -0.411825 0.141910 0.000000
v -0.413103 0.141910 0.004771
v -0.416596 0.141910 0.008263
v -0.421367 0.141910 0.009542
v -0.426137 0.141910 0.008264
v -0.429630 0.141910 0.004771
v -0.430908 0.141910 0.000000
v -0.324289 0.895391 -0.004771
v -0.320796 0.895391 -0.008263
v -0.316025 0.895391 -0.009542
v -0.311254 0.895391 -0.008263
v -0.307762 0.895391 -0.004771
v -0.306483 0.895391 0.000000
v -0.307762 0.895391 0.004771
v -0.311254 0.895391 0.008263
v -0.316025 0.895391 0.009542
v -0.320796 0.895391 0.008264
v -0.324289 0.895391 0.004771
v -0.325567 0.895391 0.000000
v -0.324289 0.141910 -0.004771
v -0.320796 0.141910 -0.008263
v -0.316025 0.141910 -0.009542
v -0.311254 0.141910 -0.008263
v -0.307762 0.141910 -0.004771
v -0.306483 0.141910 0.000000
v -0.307762 0.141910 0.004771
v -0.311254 0.141910 0.008263
v -0.316025 0.141910 0.009542
v -0.320796 0.141910 0.008264
v -0.324289 0.141910 0.004771
v -0.325567 0.141910 0.000000
v -0.218947 0.895391 -0.004771
v -0.215455 0.895391 -0.008263
v -0.210684 0.895391 -0.009542
v -0.205913 0.895391 -0.008263
v -0.202420 0.895391 -0.004771
v -0.201142 0.895391 0.000000
v -0.202420 0.895391 0.004771
v -0.205913 0.895391 0.008263
v -0.210684 0.895391 0.009542
v -0.215455 0.895391 0.008264
v -0.218947 0.895391 0.004771
v -0.220225 0.895391 0.000000
v -0.218947 0.141910 -0.004771
v -0.215455 0.141910 -0.008263
v -0.210684 0.141910 -0.009542
v -0.205913 0.141910 -0.008263
v -0.202420 0.141910 -0.004771
v -0.201142 0.141910 0.000000
v -0.202420 0.141910 0.004771
v -0.205913 0.141910 0.008263
v -0.210684 0.141910 0.009542
v -0.215455 0.141910 0.008264
v -0.218947 0.141910 0.004771
v -0.220225 0.141910 0.000000
v -0.113606 0.895391 -0.004771
v -0.110113 0.895391 -0.008263
v -0.105342 0.895391 -0.009542
v -0.100571 0.895391 -0.008263
v -0.097079 0.895391 -0.004771
v -0.095800 0.895391 0.000000
v -0.097079 0.895391 0.004771
v -0.100571 0.895391 0.008263
v -0.105342 0.895391 0.009542
v -0.110113 0.895391 0.008264
v -0.113606 0.895391 0.004771
v -0.114884 0.895391 0.000000
v -0.113606 0.141910 -0.004771
v -0.110113 0.141910 -0.008263
v -0.105342 0.141910 -0.009542
v -0.100571 0.141910 -0.008263
v -0.097079 0.141910 -0.004771
v -0.095800 0.141910 0.000000
v -0.097079 0.141910 0.004771
v -0.100571 0.141910 0.008263
v -0.105342 0.141910 0.009542
v -0.110113 0.141910 0.008264
v -0.113606 0.141910 0.004771
v -0.114884 0.141910 0.000000
v -0.008264 0.895391 -0.004771
v -0.004772 0.895391 -0.008263
v -0.000001 0.895391 -0.009542
v 0.004770 0.895391 -0.008263
v 0.008263 0.895391 -0.004771
v 0.009541 0.895391 0.000000
v 0.008263 0.895391 0.004771
v 0.004770 0.895391 0.008263
v -0.000001 0.895391 0.009542
v -0.004772 0.895391 0.008264
v -0.008264 0.895391 0.004771
v -0.009542 0.895391 0.000000
v -0.008264 0.141910 -0.004771
v -0.004772 0.141910 -0.008263
v -0.000001 0.141910 -0.009542
v 0.004770 0.141910 -0.008263
v 0.008263 0.141910 -0.004771
v 0.009541 0.141910 0.000000
v 0.008263 0.141910 0.004771
v 0.004770 0.141910 0.008263
v -0.000001 0.141910 0.009542
v -0.004772 0.141910 0.008264
v -0.008264 0.141910 0.004771
v -0.009542 0.141910 0.000000
v 0.097078 0.895391 -0.004771
v 0.100570 0.895391 -0.008263
v 0.105341 0.895391 -0.009542
v 0.110112 0.895391 -0.008263
v 0.113604 0.895391 -0.004771
v 0.114883 0.895391 0.000000
v 0.113604 0.895391 0.004771
v 0.110112 0.895391 0.008263
v 0.105341 0.895391 0.009542
v 0.100570 0.895391 0.008264
v 0.097078 0.895391 0.004771
v 0.095799 0.895391 0.000000
v 0.097078 0.141910 -0.004771
v 0.100570 0.141910 -0.008263
v 0.105341 0.141910 -0.009542
v 0.110112 0.141910 -0.008263
v 0.113604 0.141910 -0.004771
v 0.114883 0.141910 0.000000
v 0.113604 0.141910 0.004771
v 0.110112 0.141910 0.008263
v 0.105341 0.141910 0.009542
v 0.100570 0.141910 0.008264
v 0.097078 0.141910 0.004771
v 0.095799 0.141910 0.000000
v 0.202419 0.895391 -0.004771
v 0.205911 0.895391 -0.008263
v 0.210683 0.895391 -0.009542
v 0.215453 0.895391 -0.008263
v 0.218946 0.895391 -0.004771
v 0.220224 0.895391 0.000000
v 0.218946 0.895391 0.004771
v 0.215453 0.895391 0.008263
v 0.210683 0.895391 0.009542
v 0.205912 0.895391 0.008264
v 0.202419 0.895391 0.004771
v 0.201141 0.895391 0.000000
v 0.202419 0.141910 -0.004771
v 0.205911 0.141910 -0.008263
v 0.210683 0.141910 -0.009542
v 0.215453 0.141910 -0.008263
v 0.218946 0.141910 -0.004771
v 0.220224 0.141910 0.000000
v 0.218946 0.141910 0.004771
v 0.215453 0.141910 0.008263
v 0.210683 0.141910 0.009542
v 0.205912 0.141910 0.008264
v 0.202419 0.141910 0.004771
v 0.201141 0.141910 0.000000
v 0.307760 0.895391 -0.004771
v 0.311253 0.895391 -0.008263
v 0.316024 0.895391 -0.009542
v 0.320795 0.895391 -0.008263
v 0.324288 0.895391 -0.004771
v 0.325566 0.895391 0.000000
v 0.324288 0.895391 0.004771
v 0.320795 0.895391 0.008263
v 0.316024 0.895391 0.009542
v 0.311253 0.895391 0.008264
v 0.307760 0.895391 0.004771
v 0.306482 0.895391 0.000000
v 0.307760 0.141910 -0.004771
v 0.311253 0.141910 -0.008263
v 0.316024 0.141910 -0.009542
v 0.320795 0.141910 -0.008263
v 0.324288 0.141910 -0.004771
v 0.325566 0.141910 0.000000
v 0.324288 0.141910 0.004771
v 0.320795 0.141910 0.008263
v 0.316024 0.141910 0.009542
v 0.311253 0.141910 0.008264
v 0.307760 0.141910 0.004771
v 0.306482 0.141910 0.000000
v 0.413102 0.895391 -0.004771
v 0.416595 0.895391 -0.008263
v 0.421365 0.895391 -0.009542
v 0.426136 0.895391 -0.008263
v 0.429629 0.895391 -0.004771
v 0.430907 0.895391 0.000000
v 0.429629 0.895391 0.004771
v 0.426136 0.895391 0.008263
v 0.421365 0.895391 0.009542
v 0.416595 0.895391 0.008264
v 0.413102 0.895391 0.004771
v 0.411824 0.895391 0.000000
v 0.413102 0.141910 -0.004771
v 0.416595 0.141910 -0.008263
v 0.421365 0.141910 -0.009542
v 0.426136 0.141910 -0.008263
v 0.429629 0.141910 -0.004771
v 0.430907 0.141910 0.000000
v 0.429629 0.141910 0.004771
v 0.426136 0.141910 0.008263
v 0.421365 0.141910 0.009542
v 0.416595 0.141910 0.008264
v 0.413102 0.141910 0.004771
v 0.411824 0.141910 0.000000
v 0.518444 0.895391 -0.004771
v 0.521936 0.895391 -0.008263
v 0.526707 0.895391 -0.009542
v 0.531478 0.895391 -0.008263
v 0.534970 0.895391 -0.004771
v 0.536249 0.895391 0.000000
v 0.534970 0.895391 0.004771
v 0.531478 0.895391 0.008263
v 0.526707 0.895391 0.009542
v 0.521936 0.895391 0.008264
v 0.518444 0.895391 0.004771
v 0.517165 0.895391 0.000000
v 0.518444 0.141910 -0.004771
v 0.521936 0.141910 -0.008263
v 0.526707 0.141910 -0.009542
v 0.531478 0.141910 -0.008263
v 0.534970 0.141910 -0.004771
v 0.536249 0.141910 0.000000
v 0.534970 0.141910 0.004771
v 0.531478 0.141910 0.008263
v 0.526707 0.141910 0.009542
v 0.521936 0.141910 0.008264
v 0.518444 0.141910 0.004771
v 0.517165 0.141910 0.000000
v 0.623785 0.895391 -0.004771
v 0.627278 0.895391 -0.008263
v 0.632049 0.895391 -0.009542
v 0.636820 0.895391 -0.008263
v 0.640312 0.895391 -0.004771
v 0.641590 0.895391 0.000000
v 0.640312 0.895391 0.004771
v 0.636820 0.895391 0.008263
v 0.632049 0.895391 0.009542
v 0.627278 0.895391 0.008264
v 0.623785 0.895391 0.004771
v 0.622507 0.895391 0.000000
v 0.623785 0.141910 -0.004771
v 0.627278 0.141910 -0.008263
v 0.632049 0.141910 -0.009542
v 0.636820 0.141910 -0.008263
v 0.640312 0.141910 -0.004771
v 0.641590 0.141910 0.000000
v 0.640312 0.141910 0.004771
v 0.636820 0.141910 0.008263
v 0.632049 0.141910 0.009542
v 0.627278 0.141910 0.008264
v 0.623785 0.141910 0.004771
v 0.622507 0.141910 0.000000
v 0.729127 0.895391 -0.004771
v 0.732619 0.895391 -0.008263
v 0.737390 0.895391 -0.009542
v 0.742161 0.895391 -0.008263
v 0.745653 0.895391 -0.004771
v 0.746932 0.895391 0.000000
v 0.745653 0.895391 0.004771
v 0.742161 0.895391 0.008263
v 0.737390 0.895391 0.009542
v 0.732619 0.895391 0.008264
v 0.729127 0.895391 0.004771
v 0.727848 0.895391 0.000000
v 0.729127 0.141910 -0.004771
v 0.732619 0.141910 -0.008263
v 0.737390 0.141910 -0.009542
v 0.742161 0.141910 -0.008263
v 0.745653 0.141910 -0.004771
v 0.746932 0.141910 0.000000
v 0.745653 0.141910 0.004771
v 0.742161 0.141910 0.008263
v 0.737390 0.141910 0.009542
v 0.732619 0.141910 0.008264
v 0.729127 0.141910 0.004771
v 0.727848 0.141910 0.000000
vn 0.8546 -0.1098 0.5076
vn 0.9919 -0.1267 -0.0000
vn 0.8679 -0.4967 -0.0000
vn 0.7399 -0.4243 0.5221
vn 0.4817 -0.0626 0.8741
vn 0.4020 -0.2316 0.8859
vn -0.0213 0.0031 0.9998
vn -0.0369 0.0217 0.9991
vn -0.5131 0.0689 0.8556
vn -0.4570 0.2658 0.8488
vn -0.8644 0.1165 0.4891
vn -0.7562 0.4398 0.4845
vn -0.9910 0.1336 -0.0000
vn -0.8645 0.5026 -0.0000
vn 0.4967 -0.8679 -0.0000
vn 0.4243 -0.7399 0.5221
vn 0.2316 -0.4020 0.8859
vn -0.0217 0.0369 0.9991
vn -0.2658 0.4570 0.8488
vn -0.4398 0.7562 0.4845
vn -0.5026 0.8645 -0.0000
vn 0.1267 -0.9919 -0.0000
vn 0.1098 -0.8549 0.5070
vn 0.0627 -0.4819 0.8740
vn -0.0031 0.0214 0.9998
vn -0.0689 0.5134 0.8554
vn -0.1164 0.8646 0.4888
vn -0.1336 0.9910 -0.0000
vn 0.0044 0.6192 0.7852
vn 0.0001 0.9263 0.3767
vn 0.0002 0.9266 0.3761
vn 0.0004 0.8013 0.5983
vn -0.0000 0.8676 0.4972
vn 0.1164 0.8646 0.4888
vn 0.1336 0.9910 -0.0000
vn -0.0000 1.0000 -0.0000
vn -0.0000 -0.6093 0.7930
vn -0.0198 0.0601 0.9980
vn -0.0000 -0.0010 1.0000
vn -0.0000 -0.4928 0.8702
vn -0.0000 -0.9825 0.1862
vn -0.0000 -0.9825 0.1861
vn -0.0000 -1.0000 -0.0000
vn 0.8400 -0.0000 -0.5426
vn 1.0000 -0.0000 -0.0000
vn 0.8661 -0.0000 -0.4998
vn -0.5014 0.0002 0.8652
vn -0.8668 0.0004 0.4986
vn -0.8665 0.0007 0.4992
vn -0.5008 0.0003 0.8656
vn -0.0656 -0.0000 0.9978
vn 0.0001 -0.0000 1.0000
vn 0.8400 -0.0000 0.5426
vn 0.8661 -0.0000 0.4998
vn 0.4240 -0.0000 -0.9057
vn 0.5010 -0.0000 -0.8654
vn -1.0000 0.0005 -0.0000
vn -1.0000 0.0010 -0.0000
vn -0.0000 -0.9389 0.3442
vn -0.0000 -0.8972 0.4415
vn -0.0049 0.6206 0.7841
vn -0.0130 0.4954 0.8686
vn 0.4274 -0.0000 0.9041
vn 0.8423 0.0001 0.5391
vn 1.0000 0.0001 -0.0000
vn -0.0000 0.5028 0.8644
vn 0.0689 0.5134 0.8554
vn -0.0000 -0.8676 0.4972
vn -0.1098 -0.8549 0.5070
vn -0.0627 -0.4819 0.8740
vn -0.0000 -0.5028 0.8644
vn -0.0000 -0.0000 1.0000
vn -0.0000 0.6181 0.7861
vn 0.0198 0.0605 0.9980
vn -0.0000 -0.0072 1.0000
vn 0.0016 0.6840 0.7295
vn 0.3424 0.6410 0.6869
vn 0.3146 0.6479 0.6938
vn 0.0010 0.6840 0.7295
vn -0.5614 -0.5608 -0.6086
vn -0.9364 -0.2368 -0.2590
vn -0.8639 -0.3408 -0.3709
vn -0.4587 -0.6020 -0.6536
vn 0.9368 -0.2361 -0.2583
vn 0.5646 -0.5593 -0.6070
vn 0.4620 -0.6009 -0.6523
vn 0.8651 -0.3394 -0.3694
vn -0.7632 0.4380 0.4751
vn -0.3355 0.6426 0.6888
vn -0.3120 0.6484 0.6945
vn -0.7797 0.4245 0.4603
vn 0.0026 -0.6773 -0.7357
vn 0.0022 -0.6773 -0.7357
vn 0.7818 0.4230 0.4581
vn 0.7670 0.4353 0.4714
vn 0.9910 0.0915 0.0976
vn 0.9986 0.0368 0.0379
vn -0.9929 0.0811 0.0869
vn -0.9991 0.0289 0.0298
vn -0.0044 0.6192 0.7852
vn -0.0001 0.9263 0.3767
vn -0.0000 0.9262 0.3770
vn 0.0001 0.9274 0.3740
vn 0.0001 0.9073 0.4204
vn 0.0001 0.4879 0.8729
vn -0.0000 -0.6121 0.7907
vn -0.0000 -0.6057 0.7957
vn -0.0000 -0.9385 0.3454
vn -0.0000 -0.9205 0.3907
vn 0.0132 0.4958 0.8683
vn 0.8546 -0.1098 -0.5076
vn 0.7399 -0.4243 -0.5221
vn 0.4817 -0.0626 -0.8741
vn 0.4020 -0.2316 -0.8859
vn -0.0213 0.0031 -0.9998
vn -0.0369 0.0217 -0.9991
vn -0.5131 0.0689 -0.8556
vn -0.4570 0.2658 -0.8488
vn -0.8644 0.1165 -0.4891
vn -0.7562 0.4398 -0.4844
vn 0.4243 -0.7399 -0.5221
vn 0.2316 -0.4020 -0.8859
vn -0.0217 0.0369 -0.9991
vn -0.2658 0.4570 -0.8488
vn -0.4398 0.7562 -0.4845
vn 0.1098 -0.8549 -0.5070
vn 0.0627 -0.4819 -0.8740
vn -0.0031 0.0214 -0.9998
vn -0.0689 0.5134 -0.8554
vn -0.1164 0.8646 -0.4888
vn 0.0045 0.6184 -0.7858
vn 0.0004 0.8013 -0.5983
vn 0.0002 0.9266 -0.3761
vn 0.0002 0.9249 -0.3802
vn 0.0198 0.0619 -0.9979
vn -0.0000 -0.0037 -1.0000
vn -0.0000 -0.6121 -0.7907
vn -0.0000 -0.6057 -0.7957
vn -0.0000 -0.6093 -0.7930
vn -0.0000 -0.4928 -0.8702
vn -0.0000 -0.0010 -1.0000
vn -0.0198 0.0601 -0.9980
vn -0.0000 -0.9825 -0.1862
vn -0.0000 -0.9825 -0.1861
vn -0.0656 -0.0000 -0.9978
vn 0.0001 -0.0000 -1.0000
vn -0.5014 0.0002 -0.8652
vn -0.5008 0.0003 -0.8656
vn -0.8665 0.0007 -0.4992
vn -0.8668 0.0004 -0.4986
vn 0.4240 -0.0000 0.9057
vn 0.5010 -0.0000 0.8654
vn -0.0000 -0.9205 -0.3907
vn -0.0000 -0.9385 -0.3454
vn -0.0000 -0.9389 -0.3442
vn -0.0000 -0.8972 -0.4415
vn -0.0049 0.6206 -0.7841
vn -0.0130 0.4954 -0.8686
vn 0.4274 -0.0000 -0.9041
vn 0.8423 0.0001 -0.5391
vn -0.0000 0.8676 -0.4972
vn -0.0000 0.5028 -0.8644
vn -0.0000 -0.5028 -0.8644
vn -0.0000 -0.0000 -1.0000
vn -0.0000 -0.8676 -0.4972
vn 0.0016 0.6840 -0.7295
vn 0.0010 0.6840 -0.7295
vn 0.3146 0.6479 -0.6938
vn 0.3424 0.6410 -0.6869
vn -0.5614 -0.5608 0.6086
vn -0.4587 -0.6020 0.6536
vn -0.8639 -0.3408 0.3709
vn -0.9364 -0.2368 0.2590
vn 0.9368 -0.2361 0.2583
vn 0.8651 -0.3394 0.3694
vn 0.4620 -0.6009 0.6523
vn 0.5646 -0.5593 0.6070
vn -0.7632 0.4380 -0.4751
vn -0.7797 0.4245 -0.4603
vn -0.3120 0.6484 -0.6945
vn -0.3355 0.6426 -0.6888
vn 0.0022 -0.6773 0.7357
vn 0.0026 -0.6773 0.7357
vn 0.7818 0.4230 -0.4581
vn 0.9986 0.0368 -0.0379
vn 0.9910 0.0915 -0.0976
vn 0.7670 0.4353 -0.4714
vn -0.9929 0.0811 -0.0869
vn -0.9991 0.0289 -0.0298
vn 0.0001 0.9274 -0.3740
vn 0.0001 0.4879 -0.8729
vn 0.0001 0.9073 -0.4204
vn -0.0000 0.6150 -0.7886
vn -0.0000 0.9234 -0.3839
vn 0.0132 0.4958 -0.8683
vn -0.8546 -0.1098 0.5076
vn -0.7399 -0.4243 0.5221
vn -0.8679 -0.4967 -0.0000
vn -0.9919 -0.1267 -0.0000
vn -0.4817 -0.0626 0.8741
vn -0.4020 -0.2316 0.8859
vn 0.0213 0.0031 0.9998
vn 0.0369 0.0217 0.9991
vn 0.5131 0.0689 0.8556
vn 0.4570 0.2658 0.8488
vn 0.8644 0.1165 0.4891
vn 0.7562 0.4398 0.4844
vn 0.9910 0.1336 -0.0000
vn 0.8645 0.5026 -0.0000
vn -0.4243 -0.7399 0.5221
vn -0.4967 -0.8679 -0.0000
vn -0.2316 -0.4020 0.8859
vn 0.0217 0.0369 0.9991
vn 0.2658 0.4570 0.8488
vn 0.4398 0.7562 0.4845
vn 0.5026 0.8645 -0.0000
vn -0.1267 -0.9919 -0.0000
vn 0.0031 0.0214 0.9998
vn -0.0004 0.8013 0.5983
vn -0.0002 0.9266 0.3761
vn 0.0198 0.0601 0.9980
vn -0.8396 0.0001 0.5433
vn -1.0000 0.0003 -0.0000
vn -0.8656 0.0002 0.5007
vn 0.5014 0.0002 0.8652
vn 0.5008 0.0003 0.8656
vn 0.8665 0.0007 0.4992
vn 0.8668 0.0004 0.4986
vn 0.0656 -0.0000 0.9978
vn -0.0001 -0.0000 1.0000
vn -0.4240 -0.0000 0.9057
vn -0.5010 -0.0000 0.8654
vn 1.0000 0.0010 -0.0000
vn 1.0000 0.0005 -0.0000
vn 0.0049 0.6206 0.7841
vn 0.0130 0.4954 0.8686
vn -0.4274 -0.0000 0.9041
vn -0.8423 0.0001 0.5391
vn -1.0000 0.0001 -0.0000
vn -0.0016 0.6840 0.7295
vn -0.0010 0.6840 0.7295
vn -0.3146 0.6479 0.6938
vn -0.3424 0.6410 0.6869
vn 0.5630 -0.5601 -0.6077
vn 0.4611 -0.6012 -0.6526
vn 0.8639 -0.3408 -0.3709
vn 0.9364 -0.2368 -0.2590
vn -0.9368 -0.2361 -0.2583
vn -0.8651 -0.3394 -0.3694
vn -0.4620 -0.6009 -0.6523
vn -0.5646 -0.5593 -0.6070
vn 0.7632 0.4380 0.4751
vn 0.7797 0.4245 0.4603
vn 0.3120 0.6484 0.6945
vn 0.3355 0.6426 0.6888
vn -0.0000 -0.6774 -0.7356
vn -0.7818 0.4230 0.4581
vn -0.9986 0.0368 0.0379
vn -0.9910 0.0915 0.0976
vn -0.7670 0.4353 0.4714
vn 0.9929 0.0811 0.0869
vn 0.9991 0.0289 0.0298
vn -0.0001 0.9274 0.3740
vn -0.0001 0.4879 0.8729
vn -0.0001 0.9073 0.4204
vn -0.0198 0.0605 0.9980
vn -0.0132 0.4958 0.8683
vn -0.8546 -0.1098 -0.5076
vn -0.7399 -0.4243 -0.5221
vn -0.4817 -0.0626 -0.8741
vn -0.4020 -0.2316 -0.8859
vn 0.0213 0.0031 -0.9998
vn 0.0369 0.0217 -0.9991
vn 0.5131 0.0689 -0.8556
vn 0.4570 0.2658 -0.8488
vn 0.8644 0.1165 -0.4891
vn 0.7562 0.4398 -0.4845
vn -0.4243 -0.7399 -0.5221
vn -0.2316 -0.4020 -0.8859
vn 0.0217 0.0369 -0.9991
vn 0.2658 0.4570 -0.8488
vn 0.4398 0.7562 -0.4845
vn -0.1098 -0.8549 -0.5070
vn -0.0627 -0.4819 -0.8740
vn 0.0031 0.0214 -0.9998
vn 0.0689 0.5134 -0.8554
vn 0.1164 0.8646 -0.4888
vn -0.0045 0.6184 -0.7858
vn -0.0002 0.9249 -0.3802
vn -0.0002 0.9266 -0.3761
vn -0.0004 0.8013 -0.5983
vn -0.0198 0.0619 -0.9979
vn 0.0198 0.0601 -0.9980
vn -0.8396 0.0001 -0.5433
vn -0.8656 0.0002 -0.5007
vn 0.5014 0.0002 -0.8652
vn 0.8668 0.0004 -0.4986
vn 0.8665 0.0007 -0.4992
vn 0.5008 0.0003 -0.8656
vn 0.0656 -0.0000 -0.9978
vn -0.0001 -0.0000 -1.0000
vn -0.4240 -0.0000 -0.9057
vn -0.5010 -0.0000 -0.8654
vn 0.0049 0.6206 -0.7841
vn 0.0130 0.4954 -0.8686
vn -0.4274 -0.0000 -0.9041
vn -0.8423 0.0001 -0.5391
vn -0.0016 0.6840 -0.7295
vn -0.3424 0.6410 -0.6869
vn -0.3146 0.6479 -0.6938
vn -0.0010 0.6840 -0.7295
vn 0.5630 -0.5601 0.6077
vn 0.9364 -0.2368 0.2590
vn 0.8639 -0.3408 0.3709
vn 0.4611 -0.6012 0.6526
vn -0.9368 -0.2361 0.2583
vn -0.5646 -0.5593 0.6070
vn -0.4620 -0.6009 0.6523
vn -0.8651 -0.3394 0.3694
vn 0.7632 0.4380 -0.4751
vn 0.3355 0.6426 -0.6888
vn 0.3120 0.6484 -0.6945
vn 0.7797 0.4245 -0.4603
vn -0.0000 -0.6774 0.7356
vn -0.7818 0.4230 -0.4581
vn -0.7670 0.4353 -0.4714
vn -0.9910 0.0915 -0.0976
vn -0.9986 0.0368 -0.0379
vn 0.9929 0.0811 -0.0869
vn 0.9991 0.0289 -0.0298
vn -0.0001 0.9274 -0.3740
vn -0.0001 0.9073 -0.4204
vn -0.0001 0.4879 -0.8729
vn -0.0132 0.4958 -0.8683
vn -0.8660 -0.0000 -0.5000
vn -1.0000 -0.0000 -0.0000
vn -0.5000 -0.0000 -0.8660
vn 0.5000 -0.0000 -0.8660
vn 0.8660 -0.0000 -0.5000
vn 0.8660 -0.0000 0.5000
vn 0.5000 -0.0000 0.8660
vn -0.5000 -0.0000 0.8660
vn -0.8660 -0.0000 0.5000
vt 0.910118 0.795604
vt 0.907389 0.795604
vt 0.907389 0.776684
vt 0.910118 0.776684
vt 0.912726 0.795604
vt 0.912726 0.776684
vt 0.915592 0.795604
vt 0.915592 0.776684
vt 0.918330 0.795604
vt 0.918330 0.776684
vt 0.921070 0.795604
vt 0.921070 0.776684
vt 0.923811 0.795604
vt 0.923811 0.776684
vt 0.907389 0.757763
vt 0.910118 0.757763
vt 0.912726 0.757763
vt 0.915592 0.757763
vt 0.918330 0.757763
vt 0.921070 0.757763
vt 0.923811 0.757763
vt 0.907389 0.738842
vt 0.910118 0.738842
vt 0.912726 0.738842
vt 0.915592 0.738842
vt 0.918330 0.738842
vt 0.921070 0.738842
vt 0.923811 0.738842
vt 0.943241 0.036294
vt 0.943241 0.029772
vt 0.958249 0.029772
vt 0.958249 0.036284
vt 0.921070 0.499914
vt 0.921070 0.260986
vt 0.923811 0.260986
vt 0.923811 0.499914
vt 0.172316 0.873094
vt 0.164654 0.873094
vt 0.164654 0.657503
vt 0.172316 0.657503
vt 0.958339 0.052051
vt 0.956759 0.056975
vt 0.955189 0.056968
vt 0.955253 0.041961
vt 0.706548 0.743805
vt 0.706548 0.752170
vt 0.650412 0.752170
vt 0.650412 0.743805
vt 0.706548 0.689134
vt 0.706548 0.696983
vt 0.650412 0.696983
vt 0.650412 0.689134
vt 0.706548 0.681289
vt 0.650412 0.681289
vt 0.706548 0.657504
vt 0.706548 0.665869
vt 0.650412 0.665869
vt 0.650412 0.657504
vt 0.706548 0.736047
vt 0.650412 0.736047
vt 0.706548 0.704837
vt 0.650412 0.704837
vt 0.180074 0.873094
vt 0.180074 0.657503
vt 0.943241 0.022217
vt 0.958249 0.022217
vt 0.972631 0.036280
vt 0.963393 0.037748
vt 0.923811 0.998328
vt 0.921070 0.998328
vt 0.915592 0.998328
vt 0.912726 0.998328
vt 0.910118 0.998328
vt 0.918330 0.998328
vt 0.907389 0.998328
vt 0.918330 0.499914
vt 0.918330 0.260986
vt 0.910118 0.499914
vt 0.910118 0.260986
vt 0.912726 0.260986
vt 0.912726 0.499914
vt 0.915592 0.499914
vt 0.031438 0.499944
vt 0.031438 0.998389
vt 0.023632 0.998389
vt 0.023632 0.499944
vt 0.907389 0.499914
vt 0.554757 0.657503
vt 0.558688 0.657503
vt 0.558688 0.807099
vt 0.554757 0.807099
vt 0.530440 0.657503
vt 0.534968 0.657503
vt 0.534968 0.807099
vt 0.530440 0.807099
vt 0.573087 0.657503
vt 0.577640 0.657503
vt 0.577640 0.807099
vt 0.573087 0.807099
vt 0.546228 0.657503
vt 0.550748 0.657503
vt 0.550748 0.807099
vt 0.546228 0.807099
vt 0.583034 0.657503
vt 0.583034 0.807099
vt 0.563159 0.807099
vt 0.563159 0.657503
vt 0.567902 0.657503
vt 0.567902 0.807099
vt 0.540633 0.657503
vt 0.540633 0.807099
vt 0.525146 0.657503
vt 0.525146 0.807099
vt 0.031438 0.001499
vt 0.038658 0.001499
vt 0.038658 0.499944
vt 0.148973 0.873094
vt 0.148973 0.657503
vt 0.156443 0.657503
vt 0.156443 0.873094
vt 0.188439 0.873094
vt 0.188439 0.657503
vt 0.141155 0.873094
vt 0.141155 0.657503
vt 0.017354 0.499944
vt 0.017354 0.998389
vt 0.010492 0.998389
vt 0.010492 0.499944
vt 0.972177 0.022217
vt 0.972300 0.029772
vt 0.966956 0.042173
vt 0.046213 0.499944
vt 0.046213 0.998389
vt 0.038658 0.998389
vt 0.953318 0.037745
vt 0.949973 0.042171
vt 0.001496 0.998389
vt 0.001496 0.499944
vt 0.962781 0.048366
vt 0.958296 0.062126
vt 0.955129 0.070895
vt 0.962632 0.065832
vt 0.937507 0.795604
vt 0.937507 0.776684
vt 0.940236 0.776684
vt 0.940236 0.795604
vt 0.934897 0.795604
vt 0.934897 0.776684
vt 0.932031 0.795604
vt 0.932031 0.776684
vt 0.929292 0.795604
vt 0.929292 0.776684
vt 0.926553 0.795604
vt 0.926553 0.776684
vt 0.937507 0.757763
vt 0.940236 0.757763
vt 0.934897 0.757763
vt 0.932031 0.757763
vt 0.929292 0.757763
vt 0.926553 0.757763
vt 0.937507 0.738842
vt 0.940236 0.738842
vt 0.934897 0.738842
vt 0.932031 0.738842
vt 0.929292 0.738842
vt 0.926553 0.738842
vt 0.943241 0.008139
vt 0.958249 0.008150
vt 0.958249 0.014661
vt 0.943241 0.014661
vt 0.068729 0.998389
vt 0.068729 0.499944
vt 0.075007 0.499944
vt 0.075007 0.998389
vt 0.109986 0.873094
vt 0.109986 0.657503
vt 0.117648 0.657503
vt 0.117648 0.873094
vt 0.952080 0.052024
vt 0.953618 0.056962
vt 0.706548 0.728385
vt 0.650412 0.728385
vt 0.706548 0.720540
vt 0.650412 0.720540
vt 0.650412 0.712691
vt 0.706548 0.712691
vt 0.706548 0.673627
vt 0.650412 0.673627
vt 0.081869 0.499944
vt 0.081869 0.998389
vt 0.102228 0.873094
vt 0.102228 0.657503
vt 0.972631 0.008154
vt 0.963393 0.006686
vt 0.926553 0.998328
vt 0.934897 0.998328
vt 0.932031 0.998328
vt 0.937507 0.998328
vt 0.929292 0.998328
vt 0.940236 0.998328
vt 0.926553 0.499914
vt 0.929292 0.499914
vt 0.934897 0.499914
vt 0.932031 0.499914
vt 0.937507 0.499914
vt 0.940236 0.499914
vt 0.317680 0.657505
vt 0.317680 0.820227
vt 0.311610 0.820227
vt 0.311610 0.657505
vt 0.355220 0.657505
vt 0.355220 0.820227
vt 0.348229 0.820227
vt 0.348229 0.657505
vt 0.289382 0.657505
vt 0.289382 0.820227
vt 0.282352 0.820227
vt 0.282352 0.657505
vt 0.330846 0.657505
vt 0.330846 0.820227
vt 0.323868 0.820227
vt 0.323868 0.657505
vt 0.274025 0.820227
vt 0.274025 0.657505
vt 0.304709 0.820227
vt 0.297386 0.820227
vt 0.297386 0.657505
vt 0.304709 0.657505
vt 0.339484 0.657505
vt 0.339484 0.820227
vt 0.363392 0.657505
vt 0.363392 0.820227
vt 0.133337 0.873094
vt 0.125859 0.873094
vt 0.125859 0.657503
vt 0.133337 0.657503
vt 0.093863 0.873094
vt 0.093863 0.657503
vt 0.060996 0.998389
vt 0.060996 0.499944
vt 0.972300 0.014661
vt 0.966956 0.002261
vt 0.053769 0.499944
vt 0.053769 0.998389
vt 0.949973 0.002262
vt 0.953318 0.006688
vt 0.090865 0.499944
vt 0.090865 0.998389
vt 0.947670 0.048301
vt 0.952037 0.062099
vt 0.947670 0.065768
vt 0.910118 0.204224
vt 0.910118 0.223144
vt 0.907389 0.223144
vt 0.907389 0.204224
vt 0.912726 0.204224
vt 0.912726 0.223144
vt 0.915592 0.204224
vt 0.915592 0.223144
vt 0.918330 0.204224
vt 0.918330 0.223144
vt 0.921070 0.204224
vt 0.921070 0.223144
vt 0.923811 0.204224
vt 0.923811 0.223144
vt 0.910118 0.242065
vt 0.907389 0.242065
vt 0.912726 0.242065
vt 0.915592 0.242065
vt 0.918330 0.242065
vt 0.921070 0.242065
vt 0.923811 0.242065
vt 0.907389 0.260986
vt 0.915592 0.260986
vt 0.216974 0.915687
vt 0.217076 0.900679
vt 0.223587 0.900719
vt 0.223496 0.915727
vt 0.205694 0.891108
vt 0.205650 0.665834
vt 0.211261 0.658434
vt 0.211308 0.892179
vt 0.980551 0.012029
vt 0.983723 0.001966
vt 0.983659 0.016973
vt 0.982122 0.017073
vt 0.647411 0.742052
vt 0.647411 0.750250
vt 0.586025 0.750250
vt 0.586025 0.742052
vt 0.647411 0.719260
vt 0.586025 0.719260
vt 0.586025 0.711570
vt 0.647411 0.711570
vt 0.647411 0.726945
vt 0.586025 0.726945
vt 0.647411 0.734452
vt 0.586025 0.734452
vt 0.586025 0.703876
vt 0.647411 0.703876
vt 0.198971 0.892023
vt 0.198995 0.671252
vt 0.231142 0.900765
vt 0.231051 0.915773
vt 0.217167 0.886298
vt 0.215643 0.895527
vt 0.921070 0.001501
vt 0.923811 0.001501
vt 0.912726 0.001501
vt 0.915592 0.001501
vt 0.910118 0.001501
vt 0.918330 0.001501
vt 0.907389 0.001501
vt 0.404492 0.657495
vt 0.404492 0.827734
vt 0.399201 0.827734
vt 0.399201 0.657495
vt 0.437215 0.657495
vt 0.437215 0.827734
vt 0.431121 0.827734
vt 0.431121 0.657495
vt 0.379825 0.657495
vt 0.379825 0.827734
vt 0.373697 0.827734
vt 0.373697 0.657495
vt 0.415968 0.657495
vt 0.415968 0.827734
vt 0.409886 0.827734
vt 0.409886 0.657495
vt 0.366394 0.827734
vt 0.366394 0.657495
vt 0.393185 0.827734
vt 0.386802 0.827734
vt 0.386802 0.657495
vt 0.393185 0.657495
vt 0.423498 0.657495
vt 0.423498 0.827734
vt 0.444301 0.657495
vt 0.444301 0.827734
vt 0.223674 0.886800
vt 0.217167 0.886469
vt 0.217226 0.665808
vt 0.223674 0.671208
vt 0.191489 0.886930
vt 0.191440 0.673253
vt 0.231230 0.886922
vt 0.231229 0.673216
vt 0.223673 0.886668
vt 0.231227 0.886837
vt 0.211240 0.891936
vt 0.046213 0.001499
vt 0.211138 0.908919
vt 0.215584 0.905602
vt 0.010492 0.001499
vt 0.001496 0.001499
vt 0.976141 0.008306
vt 0.983600 0.030899
vt 0.980508 0.022104
vt 0.976141 0.025773
vt 0.937507 0.204224
vt 0.940236 0.204224
vt 0.940236 0.223144
vt 0.937507 0.223144
vt 0.934897 0.204224
vt 0.934897 0.223144
vt 0.932031 0.204224
vt 0.932031 0.223144
vt 0.929292 0.204224
vt 0.929292 0.223144
vt 0.926553 0.204224
vt 0.926553 0.223144
vt 0.940236 0.242065
vt 0.937507 0.242065
vt 0.934897 0.242065
vt 0.932031 0.242065
vt 0.929292 0.242065
vt 0.926553 0.242065
vt 0.940236 0.260986
vt 0.937507 0.260986
vt 0.934897 0.260986
vt 0.932031 0.260986
vt 0.929292 0.260986
vt 0.926553 0.260986
vt 0.245129 0.915858
vt 0.238606 0.915819
vt 0.238698 0.900811
vt 0.245209 0.900850
vt 0.068729 0.001499
vt 0.075007 0.001499
vt 0.256765 0.891107
vt 0.251151 0.892179
vt 0.251197 0.658434
vt 0.256809 0.665834
vt 0.986810 0.012056
vt 0.985196 0.017086
vt 0.647411 0.657502
vt 0.647411 0.665700
vt 0.586025 0.665700
vt 0.586025 0.657502
vt 0.647411 0.688492
vt 0.647411 0.696182
vt 0.586025 0.696182
vt 0.586025 0.688492
vt 0.647411 0.680807
vt 0.586025 0.680807
vt 0.647411 0.673300
vt 0.586025 0.673300
vt 0.081869 0.001499
vt 0.263488 0.892023
vt 0.263463 0.671252
vt 0.245293 0.886469
vt 0.246704 0.895716
vt 0.926553 0.001501
vt 0.932031 0.001501
vt 0.934897 0.001501
vt 0.937507 0.001501
vt 0.929292 0.001501
vt 0.940236 0.001501
vt 0.485545 0.657505
vt 0.490628 0.657505
vt 0.490628 0.812840
vt 0.485545 0.812840
vt 0.454109 0.657505
vt 0.459964 0.657505
vt 0.459964 0.812840
vt 0.454109 0.812840
vt 0.509242 0.657505
vt 0.515129 0.657505
vt 0.515129 0.812840
vt 0.509242 0.812840
vt 0.474520 0.657505
vt 0.480364 0.657505
vt 0.480364 0.812840
vt 0.474520 0.812840
vt 0.522145 0.657505
vt 0.522145 0.812840
vt 0.496407 0.812840
vt 0.496407 0.657505
vt 0.502539 0.657505
vt 0.502539 0.812840
vt 0.467287 0.657505
vt 0.467287 0.812840
vt 0.447302 0.657505
vt 0.447302 0.812840
vt 0.238785 0.886800
vt 0.238785 0.671208
vt 0.245232 0.665808
vt 0.270970 0.886929
vt 0.271018 0.673253
vt 0.060996 0.001499
vt 0.238783 0.886760
vt 0.053769 0.001499
vt 0.246641 0.905790
vt 0.251046 0.909162
vt 0.090865 0.001499
vt 0.991252 0.008371
vt 0.986767 0.022130
vt 0.991103 0.025836
vt 0.023632 0.001499
vt 0.017354 0.001499
vt 0.666128 0.001499
vt 0.666128 0.652828
vt 0.661858 0.652828
vt 0.661858 0.001499
vt 0.670397 0.001499
vt 0.670397 0.652828
vt 0.674667 0.001499
vt 0.674667 0.652828
vt 0.678936 0.001499
vt 0.678936 0.652828
vt 0.683206 0.001499
vt 0.683206 0.652828
vt 0.687475 0.001499
vt 0.687475 0.652828
vt 0.640510 0.001499
vt 0.640510 0.652828
vt 0.636240 0.652828
vt 0.636240 0.001499
vt 0.644780 0.001499
vt 0.644780 0.652828
vt 0.649049 0.001499
vt 0.649049 0.652828
vt 0.653319 0.001499
vt 0.653319 0.652828
vt 0.657588 0.001499
vt 0.657588 0.652828
vt 0.883044 0.001499
vt 0.883044 0.652828
vt 0.878775 0.652828
vt 0.878775 0.001499
vt 0.887314 0.001499
vt 0.887314 0.652828
vt 0.891583 0.001499
vt 0.891583 0.652828
vt 0.895853 0.001499
vt 0.895853 0.652828
vt 0.900123 0.001499
vt 0.900123 0.652828
vt 0.904392 0.001499
vt 0.904392 0.652828
vt 0.857427 0.001499
vt 0.857427 0.652828
vt 0.853157 0.652828
vt 0.853157 0.001499
vt 0.861696 0.001499
vt 0.861696 0.652828
vt 0.865966 0.001499
vt 0.865966 0.652828
vt 0.870236 0.001499
vt 0.870236 0.652828
vt 0.874505 0.001499
vt 0.874505 0.652828
vt 0.177992 0.001499
vt 0.177992 0.652828
vt 0.173723 0.652828
vt 0.173723 0.001499
vt 0.182262 0.001499
vt 0.182262 0.652828
vt 0.186531 0.001499
vt 0.186531 0.652828
vt 0.190801 0.001499
vt 0.190801 0.652828
vt 0.195070 0.001499
vt 0.195071 0.652828
vt 0.199340 0.001499
vt 0.199340 0.652828
vt 0.152375 0.001499
vt 0.152375 0.652828
vt 0.148105 0.652828
vt 0.148105 0.001499
vt 0.156644 0.001499
vt 0.156644 0.652828
vt 0.160914 0.001499
vt 0.160914 0.652828
vt 0.165183 0.001499
vt 0.165183 0.652828
vt 0.169453 0.001499
vt 0.169453 0.652828
vt 0.737434 0.652828
vt 0.737434 0.001499
vt 0.741704 0.001499
vt 0.741704 0.652828
vt 0.733165 0.652828
vt 0.733165 0.001499
vt 0.728895 0.652828
vt 0.728895 0.001499
vt 0.724625 0.652828
vt 0.724625 0.001499
vt 0.720356 0.652828
vt 0.720356 0.001499
vt 0.716086 0.652828
vt 0.716086 0.001499
vt 0.711817 0.652828
vt 0.711817 0.001499
vt 0.707547 0.652828
vt 0.707547 0.001499
vt 0.703278 0.652828
vt 0.703278 0.001499
vt 0.699008 0.652828
vt 0.699008 0.001499
vt 0.694738 0.652828
vt 0.694738 0.001499
vt 0.690469 0.652828
vt 0.690469 0.001499
vt 0.223690 0.001499
vt 0.223690 0.652828
vt 0.219420 0.652828
vt 0.219420 0.001499
vt 0.227960 0.001499
vt 0.227960 0.652828
vt 0.232229 0.001499
vt 0.232229 0.652828
vt 0.236499 0.001499
vt 0.236499 0.652828
vt 0.240769 0.001499
vt 0.240769 0.652828
vt 0.245038 0.001499
vt 0.245038 0.652828
vt 0.249307 0.001499
vt 0.249308 0.652828
vt 0.253577 0.001499
vt 0.253577 0.652828
vt 0.206612 0.001499
vt 0.206612 0.652828
vt 0.202342 0.652828
vt 0.202342 0.001499
vt 0.210882 0.001499
vt 0.210882 0.652828
vt 0.215151 0.001499
vt 0.215151 0.652828
vt 0.540589 0.001499
vt 0.540589 0.652828
vt 0.536320 0.652828
vt 0.536320 0.001499
vt 0.544859 0.001499
vt 0.544859 0.652828
vt 0.549128 0.001499
vt 0.549128 0.652828
vt 0.553398 0.001499
vt 0.553398 0.652828
vt 0.557667 0.001499
vt 0.557667 0.652828
vt 0.561937 0.001499
vt 0.561937 0.652828
vt 0.566207 0.001499
vt 0.566207 0.652828
vt 0.570476 0.001499
vt 0.570476 0.652828
vt 0.574746 0.001499
vt 0.574746 0.652828
vt 0.579015 0.001499
vt 0.579015 0.652828
vt 0.532050 0.001499
vt 0.532050 0.652828
vt 0.527780 0.652828
vt 0.527780 0.001499
vt 0.098133 0.001499
vt 0.098133 0.652828
vt 0.093863 0.652828
vt 0.093863 0.001499
vt 0.102402 0.001499
vt 0.102402 0.652828
vt 0.106672 0.001499
vt 0.106672 0.652828
vt 0.110942 0.001499
vt 0.110942 0.652828
vt 0.115211 0.001499
vt 0.115211 0.652828
vt 0.119481 0.001499
vt 0.119481 0.652828
vt 0.123750 0.001499
vt 0.123751 0.652828
vt 0.128020 0.001499
vt 0.128020 0.652828
vt 0.132290 0.001499
vt 0.132290 0.652828
vt 0.136559 0.001499
vt 0.136559 0.652828
vt 0.140829 0.001499
vt 0.140829 0.652828
vt 0.145098 0.001499
vt 0.145098 0.652828
vt 0.774586 0.001499
vt 0.774586 0.652828
vt 0.770316 0.652828
vt 0.770316 0.001499
vt 0.778855 0.001499
vt 0.778856 0.652828
vt 0.783125 0.001499
vt 0.783125 0.652828
vt 0.787395 0.001499
vt 0.787395 0.652828
vt 0.791664 0.001499
vt 0.791664 0.652828
vt 0.795934 0.001499
vt 0.795934 0.652828
vt 0.748968 0.001499
vt 0.748968 0.652828
vt 0.744699 0.652828
vt 0.744699 0.001499
vt 0.753238 0.001499
vt 0.753238 0.652828
vt 0.757507 0.001499
vt 0.757507 0.652828
vt 0.761777 0.001499
vt 0.761777 0.652828
vt 0.766047 0.001499
vt 0.766047 0.652828
vt 0.490625 0.001499
vt 0.490625 0.652828
vt 0.486355 0.652828
vt 0.486355 0.001499
vt 0.494894 0.001499
vt 0.494895 0.652828
vt 0.499164 0.001499
vt 0.499164 0.652828
vt 0.503434 0.001499
vt 0.503434 0.652828
vt 0.507703 0.001499
vt 0.507703 0.652828
vt 0.511973 0.001499
vt 0.511973 0.652828
vt 0.516242 0.001499
vt 0.516242 0.652828
vt 0.520512 0.001499
vt 0.520512 0.652828
vt 0.524782 0.001499
vt 0.524782 0.652828
vt 0.477816 0.001499
vt 0.477816 0.652828
vt 0.473547 0.652828
vt 0.473547 0.001499
vt 0.482086 0.001499
vt 0.482086 0.652828
vt 0.807467 0.001499
vt 0.807467 0.652828
vt 0.803197 0.652828
vt 0.803197 0.001499
vt 0.811736 0.001499
vt 0.811736 0.652828
vt 0.816006 0.001499
vt 0.816006 0.652828
vt 0.820275 0.001499
vt 0.820275 0.652828
vt 0.824545 0.001499
vt 0.824545 0.652828
vt 0.828815 0.001499
vt 0.828815 0.652828
vt 0.833084 0.001499
vt 0.833084 0.652828
vt 0.837354 0.001499
vt 0.837354 0.652828
vt 0.841623 0.001499
vt 0.841623 0.652828
vt 0.845893 0.001499
vt 0.845893 0.652828
vt 0.850162 0.001499
vt 0.850163 0.652828
vt 0.798928 0.652828
vt 0.798928 0.001499
vt 0.327902 0.001499
vt 0.327902 0.652828
vt 0.323632 0.652828
vt 0.323632 0.001499
vt 0.332171 0.001499
vt 0.332171 0.652828
vt 0.336441 0.001499
vt 0.336441 0.652828
vt 0.340711 0.001499
vt 0.340711 0.652828
vt 0.344980 0.001499
vt 0.344980 0.652828
vt 0.349250 0.001499
vt 0.349250 0.652828
vt 0.353519 0.001499
vt 0.353519 0.652828
vt 0.357789 0.001499
vt 0.357789 0.652828
vt 0.362058 0.001499
vt 0.362058 0.652828
vt 0.315093 0.001499
vt 0.315093 0.652828
vt 0.310824 0.652828
vt 0.310824 0.001499
vt 0.319363 0.001499
vt 0.319363 0.652828
vt 0.599086 0.001499
vt 0.599086 0.652828
vt 0.594817 0.652828
vt 0.594817 0.001499
vt 0.603356 0.001499
vt 0.603356 0.652828
vt 0.607626 0.001499
vt 0.607626 0.652828
vt 0.611895 0.001499
vt 0.611895 0.652828
vt 0.616165 0.001499
vt 0.616165 0.652828
vt 0.620434 0.001499
vt 0.620434 0.652828
vt 0.624704 0.001499
vt 0.624704 0.652828
vt 0.628973 0.001499
vt 0.628973 0.652828
vt 0.633243 0.001499
vt 0.633243 0.652828
vt 0.586278 0.001499
vt 0.586278 0.652828
vt 0.582008 0.652828
vt 0.582008 0.001499
vt 0.590547 0.001499
vt 0.590547 0.652828
vt 0.444921 0.652828
vt 0.444921 0.001499
vt 0.449190 0.001499
vt 0.449190 0.652828
vt 0.440651 0.652828
vt 0.440651 0.001499
vt 0.436382 0.652828
vt 0.436382 0.001499
vt 0.432112 0.652828
vt 0.432112 0.001499
vt 0.427842 0.652828
vt 0.427843 0.001499
vt 0.423573 0.652828
vt 0.423573 0.001499
vt 0.419303 0.652828
vt 0.419303 0.001499
vt 0.466269 0.652828
vt 0.466269 0.001499
vt 0.470538 0.001499
vt 0.470538 0.652828
vt 0.461999 0.652828
vt 0.461999 0.001499
vt 0.457730 0.652828
vt 0.457730 0.001499
vt 0.453460 0.652828
vt 0.453460 0.001499
vt 0.286469 0.001499
vt 0.286469 0.652828
vt 0.282200 0.652828
vt 0.282200 0.001499
vt 0.290739 0.001499
vt 0.290739 0.652828
vt 0.295008 0.001499
vt 0.295008 0.652828
vt 0.299278 0.001499
vt 0.299278 0.652828
vt 0.303548 0.001499
vt 0.303548 0.652828
vt 0.307817 0.001499
vt 0.307817 0.652828
vt 0.260852 0.001499
vt 0.260852 0.652828
vt 0.256582 0.652828
vt 0.256582 0.001499
vt 0.265121 0.001499
vt 0.265121 0.652828
vt 0.269391 0.001499
vt 0.269391 0.652828
vt 0.273661 0.001499
vt 0.273661 0.652828
vt 0.277930 0.001499
vt 0.277930 0.652828
vt 0.369334 0.001499
vt 0.369334 0.652828
vt 0.365064 0.652828
vt 0.365064 0.001499
vt 0.373603 0.001499
vt 0.373604 0.652828
vt 0.377873 0.001499
vt 0.377873 0.652828
vt 0.382143 0.001499
vt 0.382143 0.652828
vt 0.386412 0.001499
vt 0.386412 0.652828
vt 0.390682 0.001499
vt 0.390682 0.652828
vt 0.394951 0.001499
vt 0.394951 0.652828
vt 0.399221 0.001499
vt 0.399221 0.652828
vt 0.403490 0.001499
vt 0.403491 0.652828
vt 0.407760 0.001499
vt 0.407760 0.652828
vt 0.412030 0.001499
vt 0.412030 0.652828
vt 0.416299 0.001499
vt 0.416299 0.652828
s 1
usemtl barrier
f 22/1/1 28/2/2 35/3/3 29/4/4
f 23/5/5 22/1/1 29/4/4 30/6/6
f 24/7/7 23/5/5 30/6/6 31/8/8
f 25/9/9 24/7/7 31/8/8 32/10/10
f 26/11/11 25/9/9 32/10/10 33/12/12
f 27/13/13 26/11/11 33/12/12 34/14/14
f 29/4/4 35/3/3 42/15/15 36/16/16
f 30/6/6 29/4/4 36/16/16 37/17/17
f 31/8/8 30/6/6 37/17/17 38/18/18
f 32/10/10 31/8/8 38/18/18 39/19/19
f 33/12/12 32/10/10 39/19/19 40/20/20
f 34/14/14 33/12/12 40/20/20 41/21/21
f 36/16/16 42/15/15 49/22/22 43/23/23
f 37/17/17 36/16/16 43/23/23 44/24/24
f 38/18/18 37/17/17 44/24/24 45/25/25
f 39/19/19 38/18/18 45/25/25 46/26/26
f 40/20/20 39/19/19 46/26/26 47/27/27
f 41/21/21 40/20/20 47/27/27 48/28/28
f 84/29/29 83/30/30 79/31/31 80/32/32
f 301/33/33 197/34/34 198/35/35 20/36/36
f 66/37/37 69/38/38 61/39/39 50/40/40
f 72/41/41 78/42/42 82/43/43 86/44/43
f 133/45/44 53/46/45 60/47/45 306/48/46
f 63/49/47 62/50/48 58/51/49 57/52/50
f 61/53/51 63/49/47 57/52/50 56/54/52
f 53/55/45 52/56/53 135/57/54 60/58/45
f 131/59/55 133/45/44 306/48/46 55/60/56
f 62/50/48 65/61/57 59/62/58 58/51/49
f 73/63/59 66/37/37 50/40/40 52/64/60
f 83/30/30 85/65/36 81/66/36 79/31/31
f 68/67/61 1/68/62 80/32/32
f 26/11/11 27/13/13 65/69/57 62/70/48
f 23/5/5 24/7/7 61/71/51 54/72/63
f 22/1/1 23/5/5 54/72/63 51/73/64
f 24/7/7 25/9/9 63/74/47 61/71/51
f 25/9/9 26/11/11 62/70/48 63/74/47
f 28/2/2 22/1/1 51/73/64 64/75/65
f 302/76/66 196/77/67 197/34/34 301/33/33
f 19/78/68 193/79/69 194/80/70 304/81/71
f 303/82/72 302/76/66 46/26/26 45/25/25
f 298/83/73 84/84/29 70/85/74 299/86/75
f 21/87/43 19/78/68 43/23/23 49/22/22
f 11/88/76 10/89/77 2/90/78 80/91/79
f 4/92/80 3/93/81 73/94/82 71/95/83
f 7/96/84 6/97/85 72/98/86 74/99/87
f 13/100/88 12/101/89 1/102/90 69/103/91
f 12/101/89 11/88/76 80/91/79 1/102/90
f 6/97/85 5/104/92 78/105/93 72/98/86
f 70/106/94 9/107/95 8/108/96 67/109/97
f 8/108/96 7/96/84 74/99/87 67/109/97
f 14/110/98 66/111/99 73/94/82 3/93/81
f 14/110/98 13/100/88 69/103/91 66/111/99
f 5/112/92 4/92/80 71/95/83 78/113/93
f 298/83/73 235/114/100 234/115/101 18/116/102
f 77/117/103 51/118/104 54/119/105 68/120/61
f 76/121/43 73/63/59 52/64/60 53/122/43
f 75/123/36 64/124/36 51/118/104 77/117/103
f 300/125/106 67/126/107 74/127/108 17/128/109
f 2/90/78 10/89/77 9/107/95 70/106/94
f 81/66/36 75/129/36 77/130/103 79/31/31
f 79/31/31 77/130/103 68/67/61 80/32/32
f 68/67/61 69/131/38 1/68/62
f 54/119/105 61/39/39 69/38/38 68/120/61
f 18/116/102 15/132/36 85/133/36 83/134/30
f 299/86/75 70/85/74 67/126/107 300/125/106
f 84/29/29 2/135/110 70/136/74
f 80/32/32 2/135/110 84/29/29
f 74/127/108 86/137/43 16/138/43 17/128/109
f 72/41/41 86/44/43 74/139/108
f 78/42/42 71/140/41 76/141/43 82/43/43
f 71/140/41 73/142/59 76/141/43
f 111/143/111 116/144/112 35/145/3 28/146/2
f 112/147/113 117/148/114 116/144/112 111/143/111
f 113/149/115 118/150/116 117/148/114 112/147/113
f 114/151/117 119/152/118 118/150/116 113/149/115
f 115/153/119 120/154/120 119/152/118 114/151/117
f 27/13/13 34/14/14 120/154/120 115/153/119
f 116/144/112 121/155/121 42/156/15 35/145/3
f 117/148/114 122/157/122 121/155/121 116/144/112
f 118/150/116 123/158/123 122/157/122 117/148/114
f 119/152/118 124/159/124 123/158/123 118/150/116
f 120/154/120 125/160/125 124/159/124 119/152/118
f 34/14/14 41/21/21 125/160/125 120/154/120
f 121/155/121 126/161/126 49/162/22 42/156/15
f 122/157/122 127/163/127 126/161/126 121/155/121
f 123/158/123 128/164/128 127/163/127 122/157/122
f 124/159/124 129/165/129 128/164/128 123/158/123
f 125/160/125 130/166/130 129/165/129 124/159/124
f 41/21/21 48/28/28 130/166/130 125/160/125
f 157/167/131 155/168/132 154/169/133 156/170/134
f 147/171/135 101/172/136 105/173/137 144/174/138
f 143/175/139 131/176/140 140/177/141 146/178/142
f 149/179/143 86/44/43 82/43/43 153/180/144
f 140/181/145 131/59/55 55/60/56 137/182/146
f 142/183/147 138/184/148 139/185/149 141/186/150
f 140/181/145 137/182/146 138/184/148 142/183/147
f 50/187/151 61/53/51 56/54/52 136/188/152
f 52/56/53 50/187/151 136/188/152 135/57/54
f 141/186/150 139/185/149 59/62/58 65/61/57
f 144/174/138 105/173/137 103/189/153 151/190/154
f 150/191/155 133/192/156 131/176/140 143/175/139
f 156/170/134 154/169/133 81/66/36 85/65/36
f 145/193/157 155/168/132 87/194/158
f 115/153/119 141/195/150 65/69/57 27/13/13
f 112/147/113 134/196/159 140/197/145 113/149/115
f 111/143/111 132/198/160 134/196/159 112/147/113
f 113/149/115 140/197/145 142/199/147 114/151/117
f 114/151/117 142/199/147 141/195/150 115/153/119
f 28/146/2 64/200/65 132/198/160 111/143/111
f 107/201/161 130/166/130 48/28/28 20/36/36
f 110/202/162 129/165/129 130/166/130 107/201/161
f 108/203/163 127/163/127 128/164/128 109/204/164
f 106/205/165 126/161/126 127/163/127 108/203/163
f 21/206/43 49/162/22 126/161/126 106/205/165
f 97/207/166 155/208/167 88/209/168 96/210/169
f 90/211/170 148/212/171 150/213/172 89/214/173
f 93/215/174 151/216/175 149/217/176 92/218/177
f 99/219/178 146/220/179 87/221/180 98/222/181
f 98/222/181 87/221/180 155/208/167 97/207/166
f 92/218/177 149/217/176 153/223/182 91/224/183
f 147/225/184 144/226/185 94/227/186 95/228/187
f 94/227/186 144/226/185 151/216/175 93/215/174
f 100/229/188 89/214/173 150/213/172 143/230/189
f 100/229/188 143/230/189 146/220/179 99/219/178
f 91/231/183 153/232/182 148/212/171 90/211/170
f 128/164/128 129/165/129 110/202/162 109/204/164
f 152/233/190 145/234/157 134/235/191 132/236/192
f 76/237/43 53/238/43 133/192/156 150/191/155
f 75/123/36 152/233/190 132/236/192 64/124/36
f 157/239/131 102/240/193 101/172/136 147/171/135
f 88/209/168 147/225/184 95/228/187 96/210/169
f 81/66/36 154/169/133 152/241/190 75/129/36
f 154/169/133 155/168/132 145/193/157 152/241/190
f 145/193/157 87/194/158 146/242/142
f 134/235/191 145/234/157 146/178/142 140/177/141
f 104/243/194 156/244/134 85/133/36 15/132/36
f 102/240/193 157/239/131 156/244/134 104/243/194
f 157/167/131 147/245/135 88/246/195
f 155/168/132 157/167/131 88/246/195
f 151/190/154 103/189/153 16/247/43 86/248/43
f 149/179/143 151/249/154 86/44/43
f 153/180/144 82/43/43 76/141/43 148/250/143
f 148/250/143 76/141/43 150/251/155
f 172/252/196 179/253/197 185/254/198 178/255/199
f 173/256/200 180/257/201 179/253/197 172/252/196
f 174/258/202 181/259/203 180/257/201 173/256/200
f 175/260/204 182/261/205 181/259/203 174/258/202
f 176/262/206 183/263/207 182/261/205 175/260/204
f 177/264/208 184/265/209 183/263/207 176/262/206
f 179/253/197 186/266/210 192/267/211 185/254/198
f 180/257/201 187/268/212 186/266/210 179/253/197
f 181/259/203 188/269/213 187/268/212 180/257/201
f 182/261/205 189/270/214 188/269/213 181/259/203
f 183/263/207 190/271/215 189/270/214 182/261/205
f 184/265/209 191/272/216 190/271/215 183/263/207
f 186/266/210 193/79/69 199/273/217 192/267/211
f 187/268/212 194/80/70 193/79/69 186/266/210
f 188/269/213 195/274/218 194/80/70 187/268/212
f 189/270/214 196/77/67 195/274/218 188/269/213
f 190/271/215 197/34/34 196/77/67 189/270/214
f 191/272/216 198/35/35 197/34/34 190/271/215
f 235/275/100 231/276/219 230/277/220 234/278/101
f 217/279/37 200/280/40 212/281/39 220/282/221
f 224/283/41 237/284/43 233/285/43 223/286/42
f 202/287/222 203/288/223 211/289/223 205/290/224
f 214/291/225 208/292/226 209/293/227 213/294/228
f 212/295/229 207/296/230 208/292/226 214/291/225
f 200/297/231 202/287/222 205/290/224 206/298/232
f 212/295/229 200/297/231 206/298/232 207/296/230
f 213/294/228 209/293/227 210/299/233 216/300/234
f 225/301/59 202/302/60 200/280/40 217/279/37
f 234/278/101 230/277/220 232/303/36 236/304/36
f 219/305/235 231/276/219 158/306/236
f 176/262/206 213/307/228 216/308/234 177/264/208
f 173/256/200 204/309/237 212/310/229 174/258/202
f 172/252/196 201/311/238 204/309/237 173/256/200
f 174/258/202 212/310/229 214/312/225 175/260/204
f 175/260/204 214/312/225 213/307/228 176/262/206
f 178/255/199 215/313/239 201/311/238 172/252/196
f 21/87/43 199/273/217 193/79/69 19/78/68
f 168/314/240 231/315/241 159/316/242 167/317/243
f 161/318/244 222/319/245 225/320/246 160/321/247
f 164/322/248 226/323/249 224/324/250 163/325/251
f 170/326/252 220/327/253 158/328/254 169/329/255
f 169/329/255 158/328/254 231/315/241 168/314/240
f 163/325/251 224/324/250 223/330/256 162/331/256
f 221/332/257 218/333/258 165/334/259 166/335/260
f 165/334/259 218/333/258 226/323/249 164/322/248
f 171/336/261 160/321/247 225/320/246 217/337/262
f 171/336/261 217/337/262 220/327/253 170/326/252
f 162/338/256 223/339/256 222/319/245 161/318/244
f 229/340/263 219/341/235 204/342/264 201/343/265
f 228/344/43 203/345/43 202/302/60 225/301/59
f 227/346/36 229/340/263 201/343/265 215/347/36
f 159/316/242 221/332/257 166/335/260 167/317/243
f 232/303/36 230/277/220 229/348/263 227/349/36
f 230/277/220 231/276/219 219/305/235 229/348/263
f 219/305/235 158/306/236 220/350/221
f 204/342/264 219/341/235 220/282/221 212/281/39
f 18/116/102 234/115/101 236/351/36 15/132/36
f 235/275/100 221/352/266 159/353/267
f 231/276/219 235/275/100 159/353/267
f 226/354/108 17/128/109 16/138/43 237/355/43
f 224/283/41 226/356/108 237/284/43
f 223/286/42 233/285/43 228/357/43 222/358/42
f 222/358/42 228/357/43 225/359/59
f 252/360/268 178/361/199 185/362/198 257/363/269
f 253/364/270 252/360/268 257/363/269 258/365/271
f 254/366/272 253/364/270 258/365/271 259/367/273
f 255/368/274 254/366/272 259/367/273 260/369/275
f 256/370/276 255/368/274 260/369/275 261/371/277
f 177/264/208 256/370/276 261/371/277 184/265/209
f 257/363/269 185/362/198 192/372/211 262/373/278
f 258/365/271 257/363/269 262/373/278 263/374/279
f 259/367/273 258/365/271 263/374/279 264/375/280
f 260/369/275 259/367/273 264/375/280 265/376/281
f 261/371/277 260/369/275 265/376/281 266/377/282
f 184/265/209 261/371/277 266/377/282 191/272/216
f 262/373/278 192/372/211 199/378/217 267/379/283
f 263/374/279 262/373/278 267/379/283 268/380/284
f 264/375/280 263/374/279 268/380/284 269/381/285
f 265/376/281 264/375/280 269/381/285 270/382/286
f 266/377/282 265/376/281 270/382/286 271/383/287
f 191/272/216 266/377/282 271/383/287 198/35/35
f 297/384/288 296/385/289 294/386/290 295/387/291
f 287/388/292 284/389/138 105/173/137 101/172/136
f 283/390/139 286/391/293 280/392/141 272/393/140
f 290/394/143 289/395/144 233/285/43 237/284/43
f 203/396/223 274/397/294 305/398/295 211/399/223
f 282/400/296 281/401/297 279/402/298 278/403/299
f 280/404/300 282/400/296 278/403/299 277/405/301
f 274/397/294 272/406/302 276/407/303 305/398/295
f 272/406/302 280/404/300 277/405/301 276/407/303
f 281/401/297 216/300/234 210/299/233 279/402/298
f 284/389/138 292/408/154 103/189/153 105/173/137
f 291/409/155 283/390/139 272/393/140 274/410/156
f 296/385/289 236/304/36 232/303/36 294/386/290
f 285/411/304 238/412/305 295/387/291
f 256/370/276 177/264/208 216/308/234 281/413/297
f 253/364/270 254/366/272 280/414/300 275/415/306
f 252/360/268 253/364/270 275/415/306 273/416/307
f 254/366/272 255/368/274 282/417/296 280/414/300
f 255/368/274 256/370/276 281/413/297 282/417/296
f 178/361/199 252/360/268 273/416/307 215/418/239
f 107/201/161 20/36/36 198/35/35 271/383/287
f 110/202/162 107/201/161 271/383/287 270/382/286
f 108/203/163 109/204/164 269/381/285 268/380/284
f 106/205/165 108/203/163 268/380/284 267/379/283
f 21/206/43 106/205/165 267/379/283 199/378/217
f 248/419/308 247/420/309 239/421/310 295/422/311
f 241/423/312 240/424/313 291/425/314 288/426/315
f 244/427/316 243/428/317 290/429/318 292/430/319
f 250/431/320 249/432/321 238/433/322 286/434/323
f 249/432/321 248/419/308 295/422/311 238/433/322
f 243/428/317 242/435/324 289/436/324 290/429/318
f 287/437/325 246/438/326 245/439/327 284/440/328
f 245/439/327 244/427/316 292/430/319 284/440/328
f 251/441/329 283/442/330 291/425/314 240/424/313
f 251/441/329 250/431/320 286/434/323 283/442/330
f 242/443/324 241/423/312 288/426/315 289/444/324
f 269/381/285 109/204/164 110/202/162 270/382/286
f 293/445/331 273/446/332 275/447/333 285/411/304
f 228/448/43 291/409/155 274/410/156 203/449/43
f 227/346/36 215/347/36 273/446/332 293/445/331
f 297/450/288 287/388/292 101/172/136 102/240/193
f 239/421/310 247/420/309 246/438/326 287/437/325
f 232/303/36 227/349/36 293/451/331 294/386/290
f 294/386/290 293/451/331 285/411/304 295/387/291
f 285/411/304 286/391/293 238/412/305
f 275/447/333 280/392/141 286/391/293 285/411/304
f 104/243/194 15/132/36 236/351/36 296/452/289
f 102/240/193 104/243/194 296/452/289 297/450/288
f 297/384/288 239/453/334 287/454/292
f 295/387/291 239/453/334 297/384/288
f 292/408/154 237/455/43 16/247/43 103/189/153
f 290/394/143 237/284/43 292/456/154
f 289/395/144 288/457/144 228/357/43 233/285/43
f 288/457/144 291/458/155 228/357/43
f 304/81/71 194/80/70 195/274/218 303/82/72
f 221/459/266 299/86/75 300/125/106 218/460/107
f 235/114/100 298/83/73 299/86/75 221/459/266
f 84/84/29 298/83/73 18/116/102 83/134/30
f 218/460/107 300/125/106 17/128/109 226/354/108
f 44/24/24 304/81/71 303/82/72 45/25/25
f 195/274/218 196/77/67 302/76/66 303/82/72
f 46/26/26 302/76/66 301/33/33 47/27/27
f 47/27/27 301/33/33 20/36/36 48/28/28
f 43/23/23 19/78/68 304/81/71 44/24/24
f 307/461/335 319/462/335 330/463/336 318/464/336
f 308/465/337 320/466/337 319/462/335 307/461/335
f 309/467/164 321/468/164 320/466/337 308/465/337
f 310/469/338 322/470/338 321/468/164 309/467/164
f 311/471/339 323/472/339 322/470/338 310/469/338
f 312/473/45 324/474/45 323/472/339 311/471/339
f 313/475/340 325/476/340 324/477/45 312/478/45
f 314/479/341 326/480/341 325/476/340 313/475/340
f 315/481/72 327/482/72 326/480/341 314/479/341
f 316/483/342 328/484/342 327/482/72 315/481/72
f 317/485/343 329/486/343 328/484/342 316/483/342
f 318/464/336 330/463/336 329/486/343 317/485/343
f 331/487/335 343/488/335 354/489/336 342/490/336
f 332/491/337 344/492/337 343/488/335 331/487/335
f 333/493/164 345/494/164 344/492/337 332/491/337
f 334/495/338 346/496/338 345/494/164 333/493/164
f 335/497/339 347/498/339 346/496/338 334/495/338
f 336/499/45 348/500/45 347/498/339 335/497/339
f 337/501/340 349/502/340 348/503/45 336/504/45
f 338/505/341 350/506/341 349/502/340 337/501/340
f 339/507/72 351/508/72 350/506/341 338/505/341
f 340/509/342 352/510/342 351/508/72 339/507/72
f 341/511/343 353/512/343 352/510/342 340/509/342
f 342/490/336 354/489/336 353/512/343 341/511/343
f 355/513/335 367/514/335 378/515/336 366/516/336
f 356/517/337 368/518/337 367/514/335 355/513/335
f 357/519/164 369/520/164 368/518/337 356/517/337
f 358/521/338 370/522/338 369/520/164 357/519/164
f 359/523/339 371/524/339 370/522/338 358/521/338
f 360/525/45 372/526/45 371/524/339 359/523/339
f 361/527/340 373/528/340 372/529/45 360/530/45
f 362/531/341 374/532/341 373/528/340 361/527/340
f 363/533/72 375/534/72 374/532/341 362/531/341
f 364/535/342 376/536/342 375/534/72 363/533/72
f 365/537/343 377/538/343 376/536/342 364/535/342
f 366/516/336 378/515/336 377/538/343 365/537/343
f 379/539/335 391/540/335 402/541/336 390/542/336
f 380/543/337 392/544/337 391/540/335 379/539/335
f 381/545/164 393/546/164 392/544/337 380/543/337
f 382/547/338 394/548/338 393/546/164 381/545/164
f 383/549/339 395/550/339 394/548/338 382/547/338
f 384/551/45 396/552/45 395/550/339 383/549/339
f 385/553/340 397/554/340 396/552/45 384/551/45
f 386/555/341 398/556/341 397/554/340 385/553/340
f 387/557/72 399/558/72 398/556/341 386/555/341
f 388/559/342 400/560/342 399/558/72 387/557/72
f 389/561/343 401/562/343 400/560/342 388/559/342
f 390/563/336 402/564/336 401/562/343 389/561/343
f 403/565/335 415/566/335 426/567/336 414/568/336
f 404/569/337 416/570/337 415/566/335 403/565/335
f 405/571/164 417/572/164 416/570/337 404/569/337
f 406/573/338 418/574/338 417/572/164 405/571/164
f 407/575/339 419/576/339 418/574/338 406/573/338
f 408/577/45 420/578/45 419/576/339 407/575/339
f 409/579/340 421/580/340 420/578/45 408/577/45
f 410/581/341 422/582/341 421/580/340 409/579/340
f 411/583/72 423/584/72 422/585/341 410/586/341
f 412/587/342 424/588/342 423/584/72 411/583/72
f 413/589/343 425/590/343 424/588/342 412/587/342
f 414/568/336 426/567/336 425/590/343 413/589/343
f 427/591/335 439/592/335 450/593/336 438/594/336
f 428/595/337 440/596/337 439/592/335 427/591/335
f 429/597/164 441/598/164 440/596/337 428/595/337
f 430/599/338 442/600/338 441/598/164 429/597/164
f 431/601/339 443/602/339 442/600/338 430/599/338
f 432/603/45 444/604/45 443/602/339 431/601/339
f 433/605/340 445/606/340 444/604/45 432/603/45
f 434/607/341 446/608/341 445/606/340 433/605/340
f 435/609/72 447/610/72 446/608/341 434/607/341
f 436/611/342 448/612/342 447/610/72 435/609/72
f 437/613/343 449/614/343 448/615/342 436/616/342
f 438/594/336 450/593/336 449/614/343 437/613/343
f 451/617/335 463/618/335 474/619/336 462/620/336
f 452/621/337 464/622/337 463/618/335 451/617/335
f 453/623/164 465/624/164 464/622/337 452/621/337
f 454/625/338 466/626/338 465/624/164 453/623/164
f 455/627/339 467/628/339 466/626/338 454/625/338
f 456/629/45 468/630/45 467/628/339 455/627/339
f 457/631/340 469/632/340 468/630/45 456/629/45
f 458/633/341 470/634/341 469/632/340 457/631/340
f 459/635/72 471/636/72 470/634/341 458/633/341
f 460/637/342 472/638/342 471/636/72 459/635/72
f 461/639/343 473/640/343 472/638/342 460/637/342
f 462/641/336 474/642/336 473/640/343 461/639/343
f 475/643/335 487/644/335 498/645/336 486/646/336
f 476/647/337 488/648/337 487/644/335 475/643/335
f 477/649/164 489/650/164 488/648/337 476/647/337
f 478/651/338 490/652/338 489/650/164 477/649/164
f 479/653/339 491/654/339 490/652/338 478/651/338
f 480/655/45 492/656/45 491/654/339 479/653/339
f 481/657/340 493/658/340 492/659/45 480/660/45
f 482/661/341 494/662/341 493/658/340 481/657/340
f 483/663/72 495/664/72 494/662/341 482/661/341
f 484/665/342 496/666/342 495/664/72 483/663/72
f 485/667/343 497/668/343 496/666/342 484/665/342
f 486/646/336 498/645/336 497/668/343 485/667/343
f 499/669/335 511/670/335 522/671/336 510/672/336
f 500/673/337 512/674/337 511/670/335 499/669/335
f 501/675/164 513/676/164 512/674/337 500/673/337
f 502/677/338 514/678/338 513/676/164 501/675/164
f 503/679/339 515/680/339 514/678/338 502/677/338
f 504/681/45 516/682/45 515/680/339 503/679/339
f 505/683/340 517/684/340 516/682/45 504/681/45
f 506/685/341 518/686/341 517/684/340 505/683/340
f 507/687/72 519/688/72 518/686/341 506/685/341
f 508/689/342 520/690/342 519/691/72 507/692/72
f 509/693/343 521/694/343 520/690/342 508/689/342
f 510/672/336 522/671/336 521/694/343 509/693/343
f 523/695/335 535/696/335 546/697/336 534/698/336
f 524/699/337 536/700/337 535/696/335 523/695/335
f 525/701/164 537/702/164 536/700/337 524/699/337
f 526/703/338 538/704/338 537/702/164 525/701/164
f 527/705/339 539/706/339 538/704/338 526/703/338
f 528/707/45 540/708/45 539/706/339 527/705/339
f 529/709/340 541/710/340 540/708/45 528/707/45
f 530/711/341 542/712/341 541/710/340 529/709/340
f 531/713/72 543/714/72 542/712/341 530/711/341
f 532/715/342 544/716/342 543/714/72 531/713/72
f 533/717/343 545/718/343 544/716/342 532/715/342
f 534/698/336 546/697/336 545/719/343 533/720/343
f 547/721/335 559/722/335 570/723/336 558/724/336
f 548/725/337 560/726/337 559/722/335 547/721/335
f 549/727/164 561/728/164 560/726/337 548/725/337
f 550/729/338 562/730/338 561/728/164 549/727/164
f 551/731/339 563/732/339 562/730/338 550/729/338
f 552/733/45 564/734/45 563/732/339 551/731/339
f 553/735/340 565/736/340 564/734/45 552/733/45
f 554/737/341 566/738/341 565/736/340 553/735/340
f 555/739/72 567/740/72 566/738/341 554/737/341
f 556/741/342 568/742/342 567/743/72 555/744/72
f 557/745/343 569/746/343 568/742/342 556/741/342
f 558/724/336 570/723/336 569/746/343 557/745/343
f 571/747/335 583/748/335 594/749/336 582/750/336
f 572/751/337 584/752/337 583/748/335 571/747/335
f 573/753/164 585/754/164 584/752/337 572/751/337
f 574/755/338 586/756/338 585/754/164 573/753/164
f 575/757/339 587/758/339 586/756/338 574/755/338
f 576/759/45 588/760/45 587/758/339 575/757/339
f 577/761/340 589/762/340 588/760/45 576/759/45
f 578/763/341 590/764/341 589/762/340 577/761/340
f 579/765/72 591/766/72 590/764/341 578/763/341
f 580/767/342 592/768/342 591/769/72 579/770/72
f 581/771/343 593/772/343 592/768/342 580/767/342
f 582/750/336 594/749/336 593/772/343 581/771/343
f 595/773/335 607/774/335 618/775/336 606/776/336
f 596/777/337 608/778/337 607/774/335 595/773/335
f 597/779/164 609/780/164 608/778/337 596/777/337
f 598/781/338 610/782/338 609/780/164 597/779/164
f 599/783/339 611/784/339 610/782/338 598/781/338
f 600/785/45 612/786/45 611/784/339 599/783/339
f 601/787/340 613/788/340 612/786/45 600/785/45
f 602/789/341 614/790/341 613/791/340 601/792/340
f 603/793/72 615/794/72 614/790/341 602/789/341
f 604/795/342 616/796/342 615/794/72 603/793/72
f 605/797/343 617/798/343 616/796/342 604/795/342
f 606/776/336 618/775/336 617/798/343 605/797/343
f 619/799/335 631/800/335 642/801/336 630/802/336
f 620/803/337 632/804/337 631/800/335 619/799/335
f 621/805/164 633/806/164 632/804/337 620/803/337
f 622/807/338 634/808/338 633/806/164 621/805/164
f 623/809/339 635/810/339 634/808/338 622/807/338
f 624/811/45 636/812/45 635/810/339 623/809/339
f 625/813/340 637/814/340 636/815/45 624/816/45
f 626/817/341 638/818/341 637/814/340 625/813/340
f 627/819/72 639/820/72 638/818/341 626/817/341
f 628/821/342 640/822/342 639/820/72 627/819/72
f 629/823/343 641/824/343 640/822/342 628/821/342
f 630/802/336 642/801/336 641/824/343 629/823/343
f 643/825/335 655/826/335 666/827/336 654/828/336
f 644/829/337 656/830/337 655/826/335 643/825/335
f 645/831/164 657/832/164 656/830/337 644/829/337
f 646/833/338 658/834/338 657/832/164 645/831/164
f 647/835/339 659/836/339 658/834/338 646/833/338
f 648/837/45 660/838/45 659/836/339 647/835/339
f 649/839/340 661/840/340 660/838/45 648/837/45
f 650/841/341 662/842/341 661/840/340 649/839/340
f 651/843/72 663/844/72 662/842/341 650/841/341
f 652/845/342 664/846/342 663/844/72 651/843/72
f 653/847/343 665/848/343 664/846/342 652/845/342
f 654/849/336 666/850/336 665/848/343 653/847/343
