# Blender 3.6.21
# www.blender.org
mtllib traffic.mtl
v -0.973686 0.044400 0.267312
v -0.973687 0.810000 0.066759
v 0.973688 0.044400 0.267312
v 0.973688 0.810000 0.066759
v -0.973686 0.044400 -0.267312
v -0.973687 0.810000 -0.066759
v 0.973688 0.044400 -0.267312
v 0.973688 0.810000 -0.066759
v -0.973687 0.276521 0.132912
v 0.973688 0.276521 0.132912
v 0.973688 0.276521 -0.132912
v -0.973687 0.276521 -0.132912
v 0.973688 0.000000 0.267312
v -0.973686 0.000000 0.267312
v 0.973688 0.000000 -0.267312
v -0.973686 0.000000 -0.267312
vn -0.0000 0.1231 0.9924
vn 1.0000 -0.0000 -0.0000
vn -0.0000 0.1231 -0.9924
vn -1.0000 -0.0000 -0.0000
vn -0.0000 1.0000 -0.0000
vn -0.0000 0.5011 -0.8654
vn -0.0000 0.5011 0.8654
vn -0.0000 -1.0000 -0.0000
vn -0.0000 -0.0000 1.0000
vn -0.0000 -0.0000 -1.0000
vt 0.195512 0.000251
vt 0.195512 0.705784
vt 0.390272 0.705784
vt 0.390272 0.000251
vt 0.145252 0.806470
vt 0.048944 0.806470
vt 0.072911 0.999749
vt 0.121285 0.999749
vt 0.195010 0.705784
vt 0.195010 0.000251
vt 0.000251 0.000251
vt 0.000251 0.705784
vt 0.339447 0.806470
vt 0.243140 0.806470
vt 0.267107 0.999749
vt 0.315480 0.999749
vt 0.193945 0.722373
vt 0.193945 0.706286
vt 0.000251 0.706286
vt 0.000251 0.722373
vt 0.780327 0.000251
vt 0.780327 0.705784
vt 0.828701 0.705784
vt 0.828701 0.000251
vt 0.388141 0.722373
vt 0.194447 0.722373
vt 0.584969 0.000251
vt 0.584969 0.705784
vt 0.682146 0.705784
vt 0.682146 0.000251
vt 0.779825 0.705784
vt 0.779825 0.000251
vt 0.682648 0.000251
vt 0.682648 0.705784
vt 0.390774 0.000251
vt 0.390774 0.705784
vt 0.584467 0.705784
vt 0.584467 0.000251
vt 0.845289 0.000251
vt 0.829203 0.000251
vt 0.829203 0.705784
vt 0.845289 0.705784
vt 0.861878 0.000251
vt 0.845791 0.000251
vt 0.845791 0.705784
vt 0.861878 0.705784
vt 0.388141 0.706286
vt 0.194447 0.706286
s 1
usemtl concrete
f 9/1/1 10/2/1 4/3/1 2/4/1
f 10/5/2 11/6/2 8/7/2 4/8/2
f 11/9/3 12/10/3 6/11/3 8/12/3
f 12/13/4 9/14/4 2/15/4 6/16/4
f 3/17/2 13/18/2 15/19/2 7/20/2
f 8/21/5 6/22/5 2/23/5 4/24/5
f 5/25/4 1/26/4 9/14/4 12/13/4
f 7/27/6 5/28/6 12/29/6 11/30/6
f 3/17/2 7/20/2 11/6/2 10/5/2
f 1/31/7 3/32/7 10/33/7 9/34/7
f 13/35/8 14/36/8 16/37/8 15/38/8
f 1/39/9 14/40/9 13/41/9 3/42/9
f 7/43/10 15/44/10 16/45/10 5/46/10
f 5/25/4 16/47/4 14/48/4 1/26/4
