# Blender 3.6.21
# www.blender.org
mtllib traffic.mtl
v 0.000000 0.000000 -0.000000
v 0.101453 0.011224 0.150179
v 0.089204 0.011224 0.155253
v 0.095764 0.011224 0.153767
v 0.155253 0.011224 0.089204
v 0.150179 0.011224 0.101453
v 0.153767 0.011224 0.095764
v -0.150179 0.011224 0.101453
v -0.155253 0.011224 0.089204
v -0.153767 0.011224 0.095764
v -0.089204 0.011224 0.155253
v -0.101453 0.011224 0.150179
v -0.095764 0.011224 0.153767
v -0.101453 0.011224 -0.150179
v -0.089204 0.011224 -0.155253
v -0.095764 0.011224 -0.153767
v -0.155253 0.011224 -0.089204
v -0.150179 0.011224 -0.101453
v -0.153767 0.011224 -0.095764
v 0.089204 0.011224 -0.155253
v 0.101453 0.011224 -0.150179
v 0.095764 0.011224 -0.153767
v 0.150179 0.011224 -0.101453
v 0.155253 0.011224 -0.089204
v 0.153767 0.011224 -0.095764
v 0.105378 0.011224 0.159657
v 0.093130 0.011224 0.164730
v 0.099689 0.011224 0.163244
v 0.164730 0.011224 0.093130
v 0.159657 0.011224 0.105378
v 0.163244 0.011224 0.099689
v -0.093130 0.011224 0.164730
v -0.105378 0.011224 0.159657
v -0.099689 0.011224 0.163244
v -0.159657 0.011224 0.105378
v -0.164730 0.011224 0.093130
v -0.163244 0.011224 0.099689
v -0.164730 0.011224 -0.093130
v -0.159657 0.011224 -0.105378
v -0.163244 0.011224 -0.099689
v 0.159657 0.011224 -0.105378
v 0.164730 0.011224 -0.093130
v 0.163244 0.011224 -0.099689
v 0.093130 0.011224 -0.164730
v 0.105378 0.011224 -0.159657
v 0.099689 0.011224 -0.163244
v -0.105378 0.011224 -0.159657
v -0.093130 0.011224 -0.164730
v -0.099689 0.011224 -0.163244
v 0.095764 0.020275 0.153768
v 0.153768 0.020275 0.095764
v -0.095764 0.020275 0.153768
v -0.153768 0.020275 0.095764
v -0.153768 0.020275 -0.095764
v 0.153768 0.020275 -0.095764
v 0.095764 0.020275 -0.153768
v -0.095764 0.020275 -0.153768
v -0.164730 0.000000 -0.093137
v -0.159661 0.000000 -0.105373
v -0.163245 0.000000 -0.099690
v -0.159661 0.000000 0.105373
v -0.164730 0.000000 0.093137
v -0.163245 0.000000 0.099690
v -0.093137 0.000000 0.164730
v -0.105373 0.000000 0.159661
v -0.099690 0.000000 0.163245
v 0.105373 0.000000 0.159661
v 0.093137 0.000000 0.164730
v 0.099690 0.000000 0.163245
v 0.164730 0.000000 0.093137
v 0.159661 0.000000 0.105373
v 0.163245 0.000000 0.099690
v 0.159661 0.000000 -0.105373
v 0.164730 0.000000 -0.093137
v 0.163245 0.000000 -0.099690
v 0.093137 0.000000 -0.164730
v 0.105373 0.000000 -0.159661
v 0.099690 0.000000 -0.163245
v -0.105373 0.000000 -0.159661
v -0.093137 0.000000 -0.164730
v -0.099690 0.000000 -0.163245
v 0.000000 0.020275 -0.000000
v 0.089211 0.020275 0.155253
v 0.101448 0.020275 0.150184
v 0.150184 0.020275 0.101448
v 0.155253 0.020275 0.089211
v -0.101448 0.020275 0.150184
v -0.089211 0.020275 0.155253
v -0.155253 0.020275 0.089211
v -0.150184 0.020275 0.101448
v -0.150184 0.020275 -0.101448
v -0.155253 0.020275 -0.089211
v 0.155253 0.020275 -0.089211
v 0.150184 0.020275 -0.101448
v 0.101448 0.020275 -0.150184
v 0.089211 0.020275 -0.155253
v -0.089211 0.020275 -0.155253
v -0.101448 0.020275 -0.150184
v -0.000000 0.032591 -0.105806
v -0.020642 0.032591 -0.103773
v -0.040490 0.032591 -0.097752
v -0.058783 0.032591 -0.087975
v -0.074816 0.032591 -0.074816
v -0.087975 0.032591 -0.058783
v -0.097752 0.032591 -0.040490
v -0.103773 0.032591 -0.020642
v -0.105806 0.032591 -0.000000
v -0.103773 0.032591 0.020642
v -0.097752 0.032591 0.040490
v -0.087975 0.032591 0.058783
v -0.074816 0.032591 0.074816
v -0.058783 0.032591 0.087975
v -0.040490 0.032591 0.097752
v -0.020642 0.032591 0.103773
v -0.000000 0.032591 0.105806
v 0.020642 0.032591 0.103773
v 0.040490 0.032591 0.097752
v 0.058783 0.032591 0.087975
v 0.074816 0.032591 0.074816
v 0.087975 0.032591 0.058783
v 0.097752 0.032591 0.040490
v 0.103773 0.032591 0.020642
v 0.105806 0.032591 -0.000000
v 0.103773 0.032591 -0.020642
v 0.097752 0.032591 -0.040490
v 0.087975 0.032591 -0.058783
v 0.074816 0.032591 -0.074816
v 0.058783 0.032591 -0.087975
v 0.040490 0.032591 -0.097752
v 0.020642 0.032591 -0.103773
v 0.000000 0.511497 -0.033876
v -0.006609 0.511497 -0.033225
v -0.012964 0.511497 -0.031297
v -0.018821 0.511497 -0.028167
v -0.023954 0.511497 -0.023954
v -0.028167 0.511497 -0.018821
v -0.031297 0.511497 -0.012964
v -0.033225 0.511497 -0.006609
v -0.033876 0.511497 -0.000000
v -0.033225 0.511497 0.006609
v -0.031297 0.511497 0.012964
v -0.028167 0.511497 0.018820
v -0.023954 0.511497 0.023954
v -0.018821 0.511497 0.028167
v -0.012964 0.511497 0.031297
v -0.006609 0.511497 0.033225
v 0.000000 0.511497 0.033876
v 0.006609 0.511497 0.033225
v 0.012964 0.511497 0.031297
v 0.018821 0.511497 0.028167
v 0.023954 0.511497 0.023954
v 0.028167 0.511497 0.018820
v 0.031297 0.511497 0.012964
v 0.033225 0.511497 0.006609
v 0.033876 0.511497 -0.000000
v 0.033225 0.511497 -0.006609
v 0.031297 0.511497 -0.012964
v 0.028167 0.511497 -0.018821
v 0.023954 0.511497 -0.023954
v 0.018821 0.511497 -0.028167
v 0.012964 0.511497 -0.031297
v 0.006609 0.511497 -0.033225
v 0.000000 0.514362 -0.025912
v -0.005055 0.514362 -0.025414
v -0.009916 0.514362 -0.023940
v -0.014396 0.514362 -0.021545
v -0.018322 0.514362 -0.018323
v -0.021545 0.514362 -0.014396
v -0.023939 0.514362 -0.009916
v -0.025414 0.514362 -0.005055
v -0.025912 0.514362 -0.000000
v -0.025414 0.514362 0.005055
v -0.023939 0.514362 0.009916
v -0.021545 0.514362 0.014396
v -0.018322 0.514362 0.018322
v -0.014396 0.514362 0.021545
v -0.009916 0.514362 0.023939
v -0.005055 0.514362 0.025414
v 0.000000 0.514362 0.025912
v 0.005055 0.514362 0.025414
v 0.009916 0.514362 0.023939
v 0.014396 0.514362 0.021545
v 0.018322 0.514362 0.018322
v 0.021545 0.514362 0.014396
v 0.023939 0.514362 0.009916
v 0.025414 0.514362 0.005055
v 0.025912 0.514362 -0.000000
v 0.025414 0.514362 -0.005055
v 0.023939 0.514362 -0.009916
v 0.021545 0.514362 -0.014396
v 0.018322 0.514362 -0.018323
v 0.014396 0.514362 -0.021545
v 0.009916 0.514362 -0.023940
v 0.005055 0.514362 -0.025414
v -0.005055 0.528116 -0.025414
v -0.009916 0.528116 -0.023940
v 0.018322 0.528116 -0.018323
v 0.014396 0.528116 -0.021545
v -0.005055 0.528116 0.025414
v 0.000000 0.528116 0.025912
v -0.014396 0.528116 -0.021545
v 0.009916 0.528116 -0.023940
v 0.005055 0.528116 0.025414
v -0.018322 0.528116 -0.018323
v 0.005055 0.528116 -0.025414
v 0.009916 0.528116 0.023939
v -0.021545 0.528116 -0.014396
v 0.000000 0.528116 -0.025912
v 0.014396 0.528116 0.021545
v -0.023939 0.528116 -0.009916
v 0.018322 0.528116 0.018322
v -0.025414 0.528116 -0.005055
v 0.021545 0.528116 0.014396
v -0.025912 0.528116 -0.000000
v 0.023939 0.528116 0.009916
v -0.025414 0.528116 0.005055
v 0.025414 0.528116 0.005055
v -0.023939 0.528116 0.009916
v 0.025912 0.528116 -0.000000
v -0.021545 0.528116 0.014396
v 0.025414 0.528116 -0.005055
v -0.018322 0.528116 0.018322
v 0.023939 0.528116 -0.009916
v -0.014396 0.528116 0.021545
v 0.021545 0.528116 -0.014396
v -0.009916 0.528116 0.023939
v 0.000000 0.546333 -0.000000
v -0.005922 0.528116 -0.029772
v 0.021464 0.528116 -0.021464
v -0.005922 0.528116 0.029771
v -0.011616 0.528116 -0.028044
v 0.016864 0.528116 -0.025239
v 0.000000 0.528116 0.030355
v -0.016864 0.528116 -0.025239
v 0.011616 0.528116 -0.028044
v 0.005922 0.528116 0.029771
v -0.021464 0.528116 -0.021464
v 0.005922 0.528116 -0.029772
v 0.011616 0.528116 0.028044
v -0.025239 0.528116 -0.016864
v 0.000000 0.528116 -0.030355
v 0.016864 0.528116 0.025239
v -0.028044 0.528116 -0.011616
v 0.021464 0.528116 0.021464
v -0.029771 0.528116 -0.005922
v 0.025239 0.528116 0.016864
v -0.030355 0.528116 -0.000000
v 0.028044 0.528116 0.011616
v -0.029771 0.528116 0.005922
v 0.029771 0.528116 0.005922
v -0.028044 0.528116 0.011616
v 0.030355 0.528116 -0.000000
v -0.025239 0.528116 0.016864
v 0.029771 0.528116 -0.005922
v -0.021464 0.528116 0.021464
v 0.028044 0.528116 -0.011616
v -0.016864 0.528116 0.025239
v 0.025239 0.528116 -0.016864
v -0.011616 0.528116 0.028044
v 0.000000 0.024663 -0.125449
v 0.000000 0.021560 -0.123919
v -0.024474 0.024663 -0.123039
v -0.024175 0.021560 -0.121538
v -0.048007 0.024663 -0.115900
v -0.047422 0.021560 -0.114486
v -0.069696 0.024663 -0.104307
v -0.068846 0.021560 -0.103035
v -0.088706 0.024663 -0.088706
v -0.087624 0.021560 -0.087624
v -0.104307 0.024663 -0.069696
v -0.103035 0.021560 -0.068846
v -0.115900 0.024663 -0.048007
v -0.114486 0.021560 -0.047422
v -0.123039 0.024663 -0.024474
v -0.121538 0.021560 -0.024175
v -0.125449 0.024663 -0.000000
v -0.123919 0.021560 -0.000000
v -0.123039 0.024663 0.024474
v -0.121538 0.021560 0.024175
v -0.115900 0.024663 0.048007
v -0.114486 0.021560 0.047422
v -0.104307 0.024663 0.069696
v -0.103035 0.021560 0.068846
v -0.088706 0.024663 0.088706
v -0.087624 0.021560 0.087624
v -0.069696 0.024663 0.104307
v -0.068846 0.021560 0.103035
v -0.048007 0.024663 0.115900
v -0.047422 0.021560 0.114486
v -0.024474 0.024663 0.123039
v -0.024175 0.021560 0.121538
v 0.000000 0.024663 0.125449
v -0.000000 0.021560 0.123919
v 0.024474 0.024663 0.123039
v 0.000000 0.020275 0.000000
v 0.024175 0.021560 0.121538
v 0.048007 0.024663 0.115900
v 0.047422 0.021560 0.114486
v 0.069696 0.024663 0.104307
v 0.068846 0.021560 0.103035
v 0.088706 0.024663 0.088706
v 0.087624 0.021560 0.087624
v 0.104307 0.024663 0.069696
v 0.103035 0.021560 0.068846
v 0.115900 0.024663 0.048007
v 0.114486 0.021560 0.047422
v 0.123039 0.024663 0.024474
v 0.121538 0.021560 0.024175
v 0.125449 0.024663 -0.000000
v 0.123919 0.021560 -0.000000
v 0.123039 0.024663 -0.024474
v 0.121538 0.021560 -0.024175
v 0.115900 0.024663 -0.048007
v 0.114486 0.021560 -0.047422
v 0.104307 0.024663 -0.069696
v 0.103035 0.021560 -0.068846
v 0.088706 0.024663 -0.088706
v 0.087624 0.021560 -0.087624
v 0.069696 0.024663 -0.104307
v 0.068846 0.021560 -0.103035
v 0.048007 0.024663 -0.115900
v 0.047422 0.021560 -0.114486
v 0.024474 0.024663 -0.123039
v 0.024175 0.021560 -0.121538
v 0.000000 0.028202 -0.125449
v -0.000000 0.032591 -0.120225
v -0.000000 0.031305 -0.123919
v -0.023455 0.032591 -0.117915
v -0.024474 0.028202 -0.123039
v -0.024175 0.031305 -0.121538
v -0.046008 0.032591 -0.111074
v -0.048007 0.028202 -0.115900
v -0.047422 0.031305 -0.114486
v -0.066794 0.032591 -0.099964
v -0.069696 0.028202 -0.104307
v -0.068846 0.031305 -0.103035
v -0.085012 0.032591 -0.085012
v -0.088706 0.028202 -0.088706
v -0.087624 0.031305 -0.087624
v -0.099964 0.032591 -0.066794
v -0.104307 0.028202 -0.069696
v -0.103035 0.031305 -0.068846
v -0.111074 0.032591 -0.046008
v -0.115900 0.028202 -0.048007
v -0.114486 0.031305 -0.047422
v -0.117915 0.032591 -0.023455
v -0.123039 0.028202 -0.024474
v -0.121538 0.031305 -0.024175
v -0.120225 0.032591 -0.000000
v -0.125449 0.028202 -0.000000
v -0.123919 0.031305 -0.000000
v -0.117915 0.032591 0.023455
v -0.123039 0.028202 0.024474
v -0.121538 0.031305 0.024175
v -0.111074 0.032591 0.046008
v -0.115900 0.028202 0.048007
v -0.114486 0.031305 0.047422
v -0.099964 0.032591 0.066794
v -0.104307 0.028202 0.069696
v -0.103035 0.031305 0.068846
v -0.085012 0.032591 0.085012
v -0.088706 0.028202 0.088706
v -0.087624 0.031305 0.087624
v -0.066794 0.032591 0.099964
v -0.069696 0.028202 0.104307
v -0.068846 0.031305 0.103035
v -0.046008 0.032591 0.111074
v -0.048007 0.028202 0.115900
v -0.047422 0.031305 0.114486
v -0.023455 0.032591 0.117915
v -0.024474 0.028202 0.123039
v -0.024175 0.031305 0.121538
v -0.000000 0.032591 0.120225
v 0.000000 0.028202 0.125449
v -0.000000 0.031305 0.123919
v 0.023455 0.032591 0.117915
v 0.024474 0.028202 0.123039
v 0.024175 0.031305 0.121538
v 0.046008 0.032591 0.111074
v 0.048007 0.028202 0.115900
v 0.047422 0.031305 0.114486
v 0.066794 0.032591 0.099964
v 0.069696 0.028202 0.104307
v 0.068846 0.031305 0.103035
v 0.085012 0.032591 0.085012
v 0.088706 0.028202 0.088706
v 0.087624 0.031305 0.087624
v 0.099964 0.032591 0.066794
v 0.104307 0.028202 0.069696
v 0.103035 0.031305 0.068846
v 0.111074 0.032591 0.046008
v 0.115900 0.028202 0.048007
v 0.114486 0.031305 0.047422
v 0.117915 0.032591 0.023455
v 0.123039 0.028202 0.024474
v 0.121538 0.031305 0.024175
v 0.120225 0.032591 -0.000000
v 0.125449 0.028202 -0.000000
v 0.123919 0.031305 -0.000000
v 0.117915 0.032591 -0.023455
v 0.123039 0.028202 -0.024474
v 0.121538 0.031305 -0.024175
v 0.111074 0.032591 -0.046008
v 0.115900 0.028202 -0.048007
v 0.114486 0.031305 -0.047422
v 0.099964 0.032591 -0.066794
v 0.104307 0.028202 -0.069696
v 0.103035 0.031305 -0.068846
v 0.085012 0.032591 -0.085012
v 0.088706 0.028202 -0.088706
v 0.087624 0.031305 -0.087624
v 0.066794 0.032591 -0.099964
v 0.069696 0.028202 -0.104307
v 0.068846 0.031305 -0.103035
v 0.046008 0.032591 -0.111074
v 0.048007 0.028202 -0.115900
v 0.047422 0.031305 -0.114486
v 0.023455 0.032591 -0.117915
v 0.024474 0.028202 -0.123039
v 0.024175 0.031305 -0.121538
v -0.023455 0.020275 -0.117915
v 0.000000 0.020275 -0.120225
v -0.046008 0.020275 -0.111074
v -0.066794 0.020275 -0.099964
v -0.085012 0.020275 -0.085012
v -0.099964 0.020275 -0.066794
v -0.111074 0.020275 -0.046008
v -0.117915 0.020275 -0.023455
v -0.120225 0.020275 -0.000000
v -0.117915 0.020275 0.023455
v -0.111074 0.020275 0.046008
v -0.099964 0.020275 0.066794
v -0.085012 0.020275 0.085012
v -0.066794 0.020275 0.099964
v -0.046008 0.020275 0.111074
v -0.023455 0.020275 0.117915
v -0.000000 0.020275 0.120225
v 0.023455 0.020275 0.117915
v 0.046008 0.020275 0.111074
v 0.066794 0.020275 0.099964
v 0.085012 0.020275 0.085012
v 0.099964 0.020275 0.066794
v 0.111074 0.020275 0.046008
v 0.117915 0.020275 0.023455
v 0.120225 0.020275 -0.000000
v 0.117915 0.020275 -0.023455
v 0.111074 0.020275 -0.046008
v 0.099964 0.020275 -0.066794
v 0.085012 0.020275 -0.085012
v 0.066794 0.020275 -0.099964
v 0.046008 0.020275 -0.111074
v 0.023455 0.020275 -0.117915
v 0.084950 0.124848 0.035187
v 0.090183 0.124848 0.017938
v -0.090183 0.124848 0.017938
v -0.084950 0.124848 0.035187
v 0.091949 0.124848 -0.000000
v -0.076453 0.124848 0.051084
v 0.090183 0.124848 -0.017938
v -0.065018 0.124848 0.065018
v 0.084950 0.124848 -0.035187
v -0.051084 0.124848 0.076453
v 0.076453 0.124848 -0.051084
v -0.035187 0.124848 0.084950
v 0.000000 0.124848 -0.091949
v -0.017938 0.124848 -0.090183
v 0.065018 0.124848 -0.065018
v -0.017938 0.124848 0.090183
v -0.035187 0.124848 -0.084950
v 0.051084 0.124848 -0.076453
v 0.000000 0.124848 0.091949
v -0.051084 0.124848 -0.076453
v 0.035187 0.124848 -0.084950
v 0.017938 0.124848 0.090183
v -0.065018 0.124848 -0.065018
v 0.017938 0.124848 -0.090183
v 0.035187 0.124848 0.084950
v -0.076453 0.124848 -0.051084
v 0.051084 0.124848 0.076453
v -0.084950 0.124848 -0.035187
v 0.065018 0.124848 0.065018
v -0.090183 0.124848 -0.017938
v 0.076453 0.124848 0.051084
v -0.091949 0.124848 -0.000000
v 0.049897 0.377458 0.020668
v -0.052970 0.377458 0.010536
v 0.000000 0.377458 -0.054008
v 0.052970 0.377458 0.010536
v -0.049897 0.377458 0.020668
v 0.054008 0.377458 -0.000000
v -0.044906 0.377458 0.030005
v 0.052970 0.377458 -0.010537
v -0.038190 0.377458 0.038190
v 0.049897 0.377458 -0.020668
v -0.030005 0.377458 0.044906
v 0.044906 0.377458 -0.030005
v -0.020668 0.377458 0.049897
v -0.010536 0.377458 -0.052971
v 0.038190 0.377458 -0.038190
v -0.010536 0.377458 0.052970
v -0.020668 0.377458 -0.049897
v 0.030005 0.377458 -0.044906
v 0.000000 0.377458 0.054008
v -0.030005 0.377458 -0.044906
v 0.020668 0.377458 -0.049897
v 0.010536 0.377458 0.052970
v -0.038190 0.377458 -0.038190
v 0.010536 0.377458 -0.052971
v 0.020668 0.377458 0.049897
v -0.044906 0.377458 -0.030005
v 0.030005 0.377458 0.044906
v -0.049897 0.377458 -0.020668
v 0.038190 0.377458 0.038190
v -0.052970 0.377458 -0.010537
v 0.044906 0.377458 0.030005
v -0.054008 0.377458 -0.000000
v 0.071576 0.251153 0.014237
v -0.067424 0.251153 0.027928
v 0.072979 0.251153 -0.000000
v -0.060680 0.251153 0.040545
v 0.071576 0.251153 -0.014237
v -0.051604 0.251153 0.051604
v 0.067424 0.251153 -0.027928
v -0.040545 0.251153 0.060680
v 0.060680 0.251153 -0.040545
v -0.027928 0.251153 0.067424
v -0.014237 0.251153 -0.071577
v 0.051604 0.251153 -0.051604
v -0.014237 0.251153 0.071576
v -0.027928 0.251153 -0.067424
v 0.040545 0.251153 -0.060680
v 0.000000 0.251153 0.072979
v -0.040545 0.251153 -0.060680
v 0.027928 0.251153 -0.067424
v 0.014237 0.251153 0.071576
v -0.051604 0.251153 -0.051604
v 0.014237 0.251153 -0.071577
v 0.027928 0.251153 0.067424
v -0.060680 0.251153 -0.040545
v 0.040545 0.251153 0.060680
v -0.067424 0.251153 -0.027928
v 0.051604 0.251153 0.051604
v -0.071577 0.251153 -0.014237
v 0.060680 0.251153 0.040545
v -0.072979 0.251153 -0.000000
v 0.067424 0.251153 0.027928
v -0.071576 0.251153 0.014237
v 0.000000 0.251153 -0.072979
v -0.005061 0.546333 -0.025443
v 0.000000 0.546333 -0.025941
v -0.009927 0.546333 -0.023967
v -0.014412 0.546333 -0.021569
v -0.018343 0.546333 -0.018343
v -0.021569 0.546333 -0.014412
v -0.023967 0.546333 -0.009927
v -0.025443 0.546333 -0.005061
v -0.025941 0.546333 -0.000000
v -0.025443 0.546333 0.005061
v -0.023967 0.546333 0.009927
v -0.021569 0.546333 0.014412
v -0.018343 0.546333 0.018343
v -0.014412 0.546333 0.021569
v -0.009927 0.546333 0.023966
v -0.005061 0.546333 0.025443
v 0.000000 0.546333 0.025941
v 0.005061 0.546333 0.025443
v 0.009927 0.546333 0.023966
v 0.014412 0.546333 0.021569
v 0.018343 0.546333 0.018343
v 0.021569 0.546333 0.014412
v 0.023967 0.546333 0.009927
v 0.025443 0.546333 0.005061
v 0.025941 0.546333 -0.000000
v 0.025443 0.546333 -0.005061
v 0.023967 0.546333 -0.009927
v 0.021569 0.546333 -0.014412
v 0.018343 0.546333 -0.018343
v 0.014412 0.546333 -0.021569
v 0.009927 0.546333 -0.023967
v 0.005061 0.546333 -0.025443
vn -0.0000 1.0000 -0.0000
vn -0.6241 0.0001 0.7814
vn -0.7813 0.0001 0.6242
vn -0.7814 0.0001 0.6241
vn 0.9938 0.0001 -0.1112
vn 0.9938 0.0001 0.1111
vn 0.9938 0.0001 0.1112
vn -0.7814 0.0001 -0.6241
vn -0.6242 0.0001 -0.7813
vn -0.6241 0.0001 -0.7814
vn 0.6241 0.0001 -0.7814
vn 0.7813 0.0001 -0.6242
vn 0.7814 0.0001 -0.6241
vn -0.1112 0.0001 -0.9938
vn 0.1111 0.0001 -0.9938
vn 0.1112 0.0001 -0.9938
vn 0.1112 0.0001 0.9938
vn -0.1111 0.0001 0.9938
vn -0.1112 0.0001 0.9938
vn -0.9938 0.0001 0.1112
vn -0.9938 0.0001 -0.1111
vn -0.9938 0.0001 -0.1112
vn -0.1111 -0.0001 0.9938
vn 0.1112 -0.0001 0.9938
vn -0.1112 -0.0001 0.9938
vn -0.9938 -0.0001 -0.1111
vn -0.9938 -0.0001 0.1112
vn -0.9938 -0.0001 -0.1112
vn -0.6242 -0.0001 0.7813
vn -0.7814 -0.0001 0.6241
vn -0.7813 -0.0001 0.6242
vn 0.7814 0.0001 0.6241
vn 0.6242 0.0001 0.7813
vn 0.6241 0.0001 0.7814
vn -0.7813 -0.0001 -0.6242
vn -0.6241 -0.0001 -0.7814
vn -0.6242 -0.0001 -0.7813
vn 0.6242 -0.0001 -0.7813
vn 0.7814 -0.0001 -0.6241
vn 0.7813 -0.0001 -0.6242
vn 0.1111 -0.0001 -0.9938
vn -0.1112 -0.0001 -0.9938
vn 0.1112 -0.0001 -0.9938
vn 0.9938 -0.0001 0.1111
vn 0.9938 -0.0001 -0.1112
vn 0.9938 -0.0001 0.1112
vn -0.0000 -1.0000 -0.0000
vn -0.3827 0.0001 -0.9239
vn 0.3827 0.0001 -0.9239
vn 0.6242 0.0001 -0.7813
vn 0.9239 0.0001 -0.3827
vn 0.9239 0.0001 0.3827
vn 0.7813 0.0001 0.6242
vn 0.3827 0.0001 0.9239
vn -0.3827 0.0001 0.9239
vn -0.6242 0.0001 0.7813
vn -0.9239 0.0001 0.3827
vn -0.9239 0.0001 -0.3827
vn -0.7813 0.0001 -0.6242
vn -0.9239 -0.0002 -0.3827
vn -0.7814 -0.0001 -0.6241
vn -0.3827 -0.0002 -0.9239
vn 0.3827 -0.0002 -0.9239
vn 0.6241 -0.0001 -0.7814
vn 0.9239 -0.0002 -0.3827
vn -0.9239 -0.0002 0.3827
vn -0.9938 -0.0001 0.1111
vn 0.6241 -0.0001 0.7814
vn 0.3827 -0.0002 0.9239
vn 0.6242 -0.0001 0.7813
vn 0.1111 -0.0001 0.9938
vn -0.6241 -0.0001 0.7814
vn -0.3827 -0.0002 0.9239
vn 0.7814 -0.0001 0.6241
vn 0.9239 -0.0002 0.3827
vn 0.7813 -0.0001 0.6242
vn 0.9938 0.0001 -0.1111
vn -0.1111 0.0001 -0.9938
vn 0.1111 0.0001 0.9938
vn -0.9938 0.0001 0.1111
vn -0.1111 -0.0001 -0.9938
vn 0.9938 -0.0001 -0.1111
vn 0.9004 0.2240 -0.3730
vn 0.9559 -0.2240 -0.1901
vn 0.9004 -0.2240 -0.3730
vn -0.5415 0.2240 0.8103
vn -0.6891 -0.2240 0.6891
vn -0.5415 -0.2240 0.8103
vn 0.8103 0.2240 -0.5415
vn 0.8103 -0.2240 -0.5415
vn -0.3730 0.2240 0.9004
vn -0.3730 -0.2240 0.9004
vn 0.6891 0.2240 -0.6891
vn 0.6891 -0.2240 -0.6891
vn -0.1901 0.2240 0.9559
vn -0.1901 -0.2240 0.9559
vn -0.3730 0.2240 -0.9004
vn -0.1901 -0.2240 -0.9559
vn -0.3730 -0.2240 -0.9004
vn 0.5415 0.2240 -0.8103
vn 0.5415 -0.2240 -0.8103
vn -0.0000 0.2240 0.9746
vn -0.0000 -0.2240 0.9746
vn -0.5415 0.2240 -0.8103
vn -0.5415 -0.2240 -0.8103
vn 0.3730 0.2240 -0.9004
vn 0.3730 -0.2240 -0.9004
vn 0.1901 0.2240 0.9559
vn 0.1901 -0.2240 0.9559
vn -0.6891 0.2240 -0.6891
vn -0.6891 -0.2240 -0.6891
vn 0.1901 0.2240 -0.9559
vn 0.1901 -0.2240 -0.9559
vn 0.3730 0.2240 0.9004
vn 0.3730 -0.2240 0.9004
vn -0.8103 0.2240 -0.5415
vn -0.8103 -0.2240 -0.5415
vn -0.0345 0.9843 -0.1733
vn -0.0000 0.9843 -0.1767
vn 0.5415 0.2240 0.8103
vn 0.5415 -0.2240 0.8103
vn -0.9004 0.2240 -0.3730
vn -0.9004 -0.2240 -0.3730
vn -0.1901 0.2240 -0.9559
vn -0.0000 -0.2240 -0.9746
vn 0.6891 0.2240 0.6891
vn 0.6891 -0.2240 0.6891
vn -0.9559 0.2240 -0.1901
vn -0.9559 -0.2240 -0.1901
vn 0.8103 0.2240 0.5415
vn 0.8103 -0.2240 0.5415
vn -0.9746 0.2240 -0.0000
vn -0.9746 -0.2240 -0.0000
vn 0.9004 0.2240 0.3730
vn 0.9004 -0.2240 0.3730
vn -0.9559 0.2240 0.1901
vn -0.9559 -0.2240 0.1901
vn 0.9559 0.2240 0.1901
vn 0.9559 -0.2240 0.1901
vn -0.9004 0.2240 0.3730
vn -0.9004 -0.2240 0.3730
vn 0.9746 0.2240 -0.0000
vn 0.9746 -0.2240 -0.0000
vn -0.8103 0.2240 0.5415
vn -0.8103 -0.2240 0.5415
vn 0.9559 0.2240 -0.1901
vn -0.6891 0.2240 0.6891
vn 0.1250 0.9843 0.1250
vn 0.1470 0.9843 0.0982
vn -0.1733 0.9843 -0.0345
vn -0.1767 0.9843 -0.0000
vn 0.1633 0.9843 0.0676
vn -0.1733 0.9843 0.0345
vn 0.1733 0.9843 0.0345
vn -0.1633 0.9843 0.0676
vn 0.1767 0.9843 -0.0000
vn -0.1470 0.9843 0.0982
vn 0.1733 0.9843 -0.0345
vn -0.1250 0.9843 0.1250
vn 0.1633 0.9843 -0.0676
vn -0.0982 0.9843 0.1470
vn 0.1470 0.9843 -0.0982
vn -0.0676 0.9843 0.1633
vn 0.1250 0.9843 -0.1250
vn -0.0345 0.9843 0.1733
vn 0.0345 0.9843 -0.1733
vn 0.0982 0.9843 -0.1470
vn -0.0000 0.9843 0.1767
vn -0.0676 0.9843 -0.1633
vn -0.0982 0.9843 -0.1470
vn 0.0676 0.9843 -0.1633
vn 0.0345 0.9843 0.1733
vn -0.1250 0.9843 -0.1250
vn 0.0676 0.9843 0.1633
vn -0.1470 0.9843 -0.0982
vn 0.0982 0.9843 0.1470
vn -0.1633 0.9843 -0.0676
vn 0.9699 0.1485 0.1929
vn 0.9136 0.1485 0.3784
vn -0.9136 0.1485 0.3784
vn -0.9699 0.1485 0.1929
vn 0.9889 0.1485 -0.0000
vn -0.8222 0.1485 0.5494
vn 0.9699 0.1485 -0.1929
vn -0.6993 0.1485 0.6993
vn 0.9136 0.1485 -0.3784
vn -0.5494 0.1485 0.8222
vn 0.8222 0.1485 -0.5494
vn -0.3784 0.1485 0.9136
vn -0.1929 0.1485 -0.9699
vn -0.0000 0.1485 -0.9889
vn 0.6993 0.1485 -0.6993
vn -0.1929 0.1485 0.9699
vn -0.3784 0.1485 -0.9136
vn 0.5494 0.1485 -0.8222
vn -0.0000 0.1485 0.9889
vn -0.5494 0.1485 -0.8222
vn 0.3784 0.1485 -0.9136
vn 0.1929 0.1485 0.9699
vn -0.6993 0.1485 -0.6993
vn 0.1929 0.1485 -0.9699
vn 0.3784 0.1485 0.9136
vn -0.8222 0.1485 -0.5494
vn 0.5494 0.1485 0.8222
vn -0.9136 0.1485 -0.3784
vn 0.6993 0.1485 0.6993
vn -0.9699 0.1485 -0.1929
vn 0.8222 0.1485 0.5494
vn -0.9889 0.1485 -0.0000
vn 0.3127 0.9410 -0.1295
vn 0.3320 0.9410 -0.0660
vn -0.1881 0.9410 0.2814
vn -0.2394 0.9410 0.2393
vn 0.2814 0.9410 -0.1881
vn -0.1295 0.9410 0.3127
vn -0.0660 0.9410 -0.3320
vn -0.0000 0.9410 -0.3385
vn 0.2393 0.9410 -0.2393
vn 0.2394 0.9410 -0.2393
vn -0.0660 0.9410 0.3320
vn -0.1295 0.9410 -0.3127
vn 0.1881 0.9410 -0.2814
vn -0.0000 0.9410 0.3385
vn -0.1881 0.9410 -0.2814
vn 0.1295 0.9410 -0.3127
vn 0.0660 0.9410 0.3320
vn -0.2393 0.9410 -0.2393
vn -0.2394 0.9410 -0.2393
vn 0.0660 0.9410 -0.3320
vn 0.1295 0.9410 0.3127
vn -0.2814 0.9410 -0.1881
vn 0.1881 0.9410 0.2814
vn -0.3127 0.9410 -0.1295
vn 0.2393 0.9410 0.2393
vn -0.3320 0.9410 -0.0660
vn 0.2814 0.9410 0.1881
vn -0.3385 0.9410 -0.0000
vn 0.3127 0.9410 0.1295
vn -0.3320 0.9410 0.0660
vn 0.3320 0.9410 0.0660
vn -0.3127 0.9410 0.1295
vn 0.3385 0.9410 -0.0000
vn -0.2814 0.9410 0.1881
vn -0.2393 0.9410 0.2393
vn -0.1951 -0.0000 0.9808
vn -0.3827 -0.0000 0.9239
vn 0.7071 -0.0000 -0.7071
vn 0.8315 -0.0000 -0.5556
vn -0.1951 -0.0000 -0.9808
vn -0.0000 -0.0000 -1.0000
vn -0.5556 -0.0000 0.8315
vn 0.9239 -0.0000 -0.3827
vn -0.7071 -0.0000 0.7071
vn 0.9808 -0.0000 -0.1951
vn -0.8315 -0.0000 0.5556
vn 1.0000 -0.0000 -0.0000
vn -0.9239 -0.0000 0.3827
vn 0.9808 -0.0000 0.1951
vn -0.9808 -0.0000 0.1951
vn 0.9239 -0.0000 0.3827
vn -1.0000 -0.0000 -0.0000
vn 0.8315 -0.0000 0.5556
vn -0.9808 -0.0000 -0.1951
vn 0.7071 -0.0000 0.7071
vn -0.9239 -0.0000 -0.3827
vn 0.5556 -0.0000 0.8315
vn -0.8315 -0.0000 -0.5556
vn 0.3827 -0.0000 0.9239
vn 0.1951 -0.0000 -0.9808
vn -0.7071 -0.0000 -0.7071
vn 0.1951 -0.0000 0.9808
vn 0.3827 -0.0000 -0.9239
vn -0.5556 -0.0000 -0.8315
vn -0.0000 -0.0000 1.0000
vn 0.5556 -0.0000 -0.8315
vn -0.3827 -0.0000 -0.9239
vn -0.3719 0.2355 -0.8979
vn -0.1896 0.2355 -0.9532
vn 0.5399 0.2355 -0.8081
vn 0.6872 0.2355 -0.6872
vn -0.0000 0.2355 0.9719
vn -0.1896 0.2355 0.9532
vn -0.5399 0.2355 -0.8081
vn 0.3719 0.2355 -0.8979
vn 0.1896 0.2355 0.9532
vn -0.6872 0.2355 -0.6872
vn 0.1896 0.2355 -0.9532
vn 0.3719 0.2355 0.8979
vn -0.8081 0.2355 -0.5399
vn -0.0000 0.2355 -0.9719
vn 0.5399 0.2355 0.8081
vn -0.8979 0.2355 -0.3719
vn 0.6872 0.2355 0.6872
vn -0.9532 0.2355 -0.1896
vn 0.8081 0.2355 0.5399
vn -0.9719 0.2355 -0.0000
vn 0.8979 0.2355 0.3719
vn -0.9532 0.2355 0.1896
vn 0.9532 0.2355 0.1896
vn -0.8979 0.2355 0.3719
vn 0.9719 0.2355 -0.0000
vn -0.8081 0.2355 0.5399
vn 0.9532 0.2355 -0.1896
vn -0.6872 0.2355 0.6872
vn 0.8979 0.2355 -0.3719
vn -0.5399 0.2355 0.8081
vn 0.8081 0.2355 -0.5399
vn -0.3719 0.2355 0.8979
vn -0.0000 0.2240 -0.9746
vn -0.1317 -0.7377 -0.6621
vn -0.0000 -0.9843 -0.1767
vn -0.0345 -0.9843 -0.1733
vn -0.0000 -0.7377 -0.6751
vn -0.0676 -0.9843 -0.1633
vn -0.2584 -0.7377 -0.6237
vn -0.3751 -0.7377 -0.5613
vn -0.0982 -0.9843 -0.1470
vn -0.4774 -0.7377 -0.4774
vn -0.1250 -0.9843 -0.1250
vn -0.1470 -0.9843 -0.0982
vn -0.5613 -0.7377 -0.3751
vn -0.1633 -0.9843 -0.0676
vn -0.6237 -0.7377 -0.2584
vn -0.6622 -0.7377 -0.1317
vn -0.1733 -0.9843 -0.0345
vn -0.6751 -0.7377 -0.0000
vn -0.1767 -0.9843 -0.0000
vn -0.6621 -0.7377 0.1317
vn -0.1733 -0.9843 0.0345
vn -0.1633 -0.9843 0.0676
vn -0.6237 -0.7377 0.2584
vn -0.5613 -0.7377 0.3751
vn -0.1470 -0.9843 0.0982
vn -0.4774 -0.7377 0.4774
vn -0.1250 -0.9843 0.1250
vn -0.0982 -0.9843 0.1470
vn -0.3751 -0.7377 0.5613
vn -0.0676 -0.9843 0.1633
vn -0.2584 -0.7377 0.6237
vn -0.1317 -0.7377 0.6622
vn -0.0345 -0.9843 0.1733
vn -0.0000 -0.7377 0.6751
vn -0.0000 -0.9843 0.1767
vn 0.1317 -0.7377 0.6621
vn 0.0345 -0.9843 0.1733
vn 0.0676 -0.9843 0.1633
vn 0.2584 -0.7377 0.6237
vn 0.3751 -0.7377 0.5613
vn 0.0982 -0.9843 0.1470
vn 0.4774 -0.7377 0.4774
vn 0.1250 -0.9843 0.1250
vn 0.1470 -0.9843 0.0982
vn 0.5613 -0.7377 0.3751
vn 0.1633 -0.9843 0.0676
vn 0.6237 -0.7377 0.2584
vn 0.6621 -0.7377 0.1317
vn 0.1733 -0.9843 0.0345
vn 0.6751 -0.7377 -0.0000
vn 0.1767 -0.9843 -0.0000
vn 0.6622 -0.7377 -0.1317
vn 0.1733 -0.9843 -0.0345
vn 0.1633 -0.9843 -0.0676
vn 0.6237 -0.7377 -0.2584
vn 0.5613 -0.7377 -0.3751
vn 0.1470 -0.9843 -0.0982
vn 0.4774 -0.7377 -0.4774
vn 0.1250 -0.9843 -0.1250
vn 0.0982 -0.9843 -0.1470
vn 0.3751 -0.7377 -0.5613
vn 0.0676 -0.9843 -0.1633
vn 0.2584 -0.7377 -0.6237
vn 0.1317 -0.7377 -0.6622
vn 0.0345 -0.9843 -0.1733
vn -0.0000 0.7377 -0.6751
vn -0.1317 0.7377 -0.6621
vn -0.2584 0.7377 -0.6237
vn -0.3751 0.7377 -0.5613
vn -0.4774 0.7377 -0.4774
vn -0.5613 0.7377 -0.3751
vn -0.6237 0.7377 -0.2584
vn -0.6621 0.7377 -0.1317
vn -0.6751 0.7377 -0.0000
vn -0.6621 0.7377 0.1317
vn -0.6237 0.7377 0.2584
vn -0.5613 0.7377 0.3751
vn -0.4774 0.7377 0.4774
vn -0.3751 0.7377 0.5613
vn -0.2584 0.7377 0.6237
vn -0.1317 0.7377 0.6621
vn -0.0000 0.7377 0.6751
vn 0.1317 0.7377 0.6621
vn 0.2584 0.7377 0.6237
vn 0.3751 0.7377 0.5613
vn 0.4774 0.7377 0.4774
vn 0.5613 0.7377 0.3751
vn 0.6237 0.7377 0.2584
vn 0.6621 0.7377 0.1317
vn 0.6751 0.7377 -0.0000
vn 0.6621 0.7377 -0.1317
vn 0.6237 0.7377 -0.2584
vn 0.5613 0.7377 -0.3751
vn 0.4774 0.7377 -0.4774
vn 0.3751 0.7377 -0.5613
vn 0.2584 0.7377 -0.6237
vn 0.1317 0.7377 -0.6621
vt 0.068539 0.842732
vt 0.006463 0.851027
vt 0.006463 0.842732
vt 0.755342 0.840447
vt 0.821434 0.830773
vt 0.821441 0.840436
vt 0.333795 0.840458
vt 0.494159 0.830803
vt 0.494165 0.840466
vt 0.006518 0.840394
vt 0.072614 0.830749
vt 0.072617 0.840412
vt 0.256126 0.840449
vt 0.322220 0.830794
vt 0.322225 0.840457
vt 0.084186 0.840415
vt 0.244553 0.830784
vt 0.244557 0.840447
vt 0.583403 0.840464
vt 0.743766 0.830785
vt 0.743773 0.840449
vt 0.833011 0.840433
vt 0.993373 0.830731
vt 0.993381 0.840394
vt 0.242614 0.852801
vt 0.396218 0.860613
vt 0.242607 0.860594
vt 0.549303 0.842732
vt 0.487227 0.851028
vt 0.487227 0.842732
vt 0.006526 0.852736
vt 0.160128 0.860576
vt 0.006518 0.860529
vt 0.789683 0.842732
vt 0.727607 0.851028
vt 0.727607 0.842732
vt 0.231033 0.852799
vt 0.171698 0.860579
vt 0.171706 0.852786
vt 0.505734 0.840466
vt 0.571827 0.830802
vt 0.571833 0.840465
vt 0.939297 0.852736
vt 0.879966 0.860550
vt 0.879969 0.852757
vt 0.703209 0.852801
vt 0.643877 0.860604
vt 0.643882 0.852811
vt 0.308921 0.842732
vt 0.246845 0.851027
vt 0.246845 0.842732
vt 0.714790 0.852799
vt 0.868397 0.860553
vt 0.714786 0.860592
vt 0.478702 0.852822
vt 0.632307 0.860605
vt 0.478697 0.860615
vt 0.235387 0.842732
vt 0.079997 0.851027
vt 0.079997 0.842732
vt 0.475769 0.842732
vt 0.320379 0.851027
vt 0.320379 0.842732
vt 0.956530 0.842732
vt 0.801141 0.851028
vt 0.801141 0.842732
vt 0.716150 0.842732
vt 0.560760 0.851028
vt 0.560760 0.842732
vt 0.110666 0.652668
vt 0.048510 0.542732
vt 0.172823 0.542733
vt 0.180989 0.546115
vt 0.217219 0.582345
vt 0.000731 0.714825
vt 0.000731 0.590512
vt 0.040343 0.759221
vt 0.004113 0.722991
vt 0.172823 0.762604
vt 0.048510 0.762604
vt 0.217219 0.722991
vt 0.180989 0.759221
vt 0.220602 0.590512
vt 0.220602 0.714825
vt 0.004113 0.582345
vt 0.040343 0.546115
vt 0.940760 0.290660
vt 0.939000 0.298432
vt 0.756635 0.184858
vt 0.934749 0.305173
vt 0.876949 0.362972
vt 0.870208 0.367223
vt 0.862437 0.368984
vt 0.934749 0.064544
vt 0.939000 0.071285
vt 0.940760 0.079057
vt 0.862437 0.000733
vt 0.870209 0.002494
vt 0.876949 0.006745
vt 0.636321 0.006745
vt 0.643062 0.002494
vt 0.650834 0.000733
vt 0.650834 0.368984
vt 0.643062 0.367223
vt 0.636321 0.362972
vt 0.578521 0.305173
vt 0.574271 0.298432
vt 0.572510 0.290660
vt 0.572510 0.079057
vt 0.574270 0.071285
vt 0.578521 0.064544
vt 0.177196 0.543723
vt 0.044136 0.543723
vt 0.001721 0.586138
vt 0.001721 0.719198
vt 0.044136 0.761613
vt 0.177196 0.761613
vt 0.219611 0.719198
vt 0.219611 0.586138
vt 0.078404 0.830750
vt 0.078402 0.840413
vt 0.250343 0.830785
vt 0.256133 0.830785
vt 0.328011 0.830794
vt 0.328010 0.840457
vt 0.499950 0.830803
vt 0.505740 0.830803
vt 0.577617 0.830802
vt 0.577618 0.840465
vt 0.749556 0.830785
vt 0.755347 0.830784
vt 0.827224 0.830771
vt 0.827226 0.840435
vt 0.000736 0.830729
vt 0.006527 0.830731
vt 0.999163 0.830729
vt 0.475769 0.851028
vt 0.481498 0.842732
vt 0.481498 0.851028
vt 0.555031 0.842732
vt 0.549303 0.851028
vt 0.721878 0.842732
vt 0.716150 0.851028
vt 0.795412 0.842732
vt 0.789683 0.851028
vt 0.000734 0.842732
vt 0.962259 0.842732
vt 0.956530 0.851028
vt 0.308921 0.851027
vt 0.314650 0.842732
vt 0.314650 0.851027
vt 0.235387 0.851027
vt 0.241116 0.842732
vt 0.241116 0.851027
vt 0.068539 0.851027
vt 0.074268 0.842732
vt 0.074268 0.851027
vt 0.000736 0.852734
vt 0.945087 0.852734
vt 0.939305 0.860529
vt 0.874179 0.852759
vt 0.874181 0.860552
vt 0.709000 0.852800
vt 0.703216 0.860594
vt 0.638091 0.852812
vt 0.638092 0.860604
vt 0.165915 0.852785
vt 0.160125 0.852783
vt 0.407788 0.860613
vt 0.402003 0.852820
vt 0.407794 0.852820
vt 0.396213 0.852820
vt 0.231038 0.860592
vt 0.236824 0.852800
vt 0.236822 0.860593
vt 0.467127 0.860615
vt 0.472912 0.852822
vt 0.472912 0.860615
vt 0.467121 0.852822
vt 0.333801 0.830795
vt 0.084194 0.830751
vt 0.583408 0.830801
vt 0.833014 0.830770
vt 0.868389 0.852760
vt 0.632301 0.852812
vt 0.250341 0.840448
vt 0.499950 0.840466
vt 0.749558 0.840448
vt 0.000733 0.840392
vt 0.999166 0.840392
vt 0.555031 0.851028
vt 0.721878 0.851028
vt 0.795412 0.851028
vt 0.000734 0.851027
vt 0.962259 0.851028
vt 0.000733 0.860527
vt 0.945091 0.860527
vt 0.709001 0.860593
vt 0.165913 0.860578
vt 0.402003 0.860613
vt 0.235857 0.797508
vt 0.261799 0.801286
vt 0.235849 0.801287
vt 0.567121 0.797956
vt 0.591995 0.801593
vt 0.567113 0.801600
vt 0.209910 0.797513
vt 0.209902 0.801274
vt 0.541976 0.797921
vt 0.541964 0.801596
vt 0.184227 0.797514
vt 0.184218 0.801258
vt 0.516677 0.797863
vt 0.516661 0.801550
vt 0.027910 0.797219
vt 0.054183 0.801096
vt 0.027896 0.801059
vt 0.158544 0.797496
vt 0.158535 0.801258
vt 0.491362 0.797812
vt 0.491345 0.801500
vt 0.000729 0.797115
vt 0.000733 0.801138
vt 0.132590 0.797454
vt 0.132576 0.801247
vt 0.466052 0.797755
vt 0.466038 0.801451
vt 0.791148 0.798027
vt 0.816427 0.801670
vt 0.791140 0.801613
vt 0.106476 0.797387
vt 0.106459 0.801192
vt 0.440646 0.797695
vt 0.440632 0.801402
vt 0.766530 0.798009
vt 0.766522 0.801611
vt 0.808175 0.812729
vt 0.781261 0.829196
vt 0.781261 0.812729
vt 0.415148 0.797648
vt 0.415134 0.801353
vt 0.741677 0.797993
vt 0.741670 0.801614
vt 0.054197 0.797278
vt 0.080324 0.801132
vt 0.389774 0.797635
vt 0.389766 0.801334
vt 0.716807 0.797987
vt 0.716797 0.801603
vt 0.364387 0.797607
vt 0.364378 0.801325
vt 0.692047 0.797976
vt 0.692037 0.801593
vt 0.338732 0.797583
vt 0.338723 0.801321
vt 0.667159 0.797955
vt 0.667153 0.801600
vt 0.313058 0.797570
vt 0.313046 0.801303
vt 0.642020 0.797947
vt 0.642014 0.801608
vt 0.287498 0.797552
vt 0.287487 0.801285
vt 0.616884 0.797959
vt 0.616877 0.801603
vt 0.261807 0.797523
vt 0.592002 0.797966
vt 0.485198 0.829196
vt 0.458284 0.812729
vt 0.485198 0.812729
vt 0.135307 0.829196
vt 0.108392 0.812729
vt 0.135307 0.812729
vt 0.512113 0.812729
vt 0.162221 0.812729
vt 0.539028 0.829196
vt 0.539028 0.812729
vt 0.189136 0.829196
vt 0.189136 0.812729
vt 0.565943 0.829196
vt 0.565943 0.812729
vt 0.216051 0.829196
vt 0.216051 0.812729
vt 0.592857 0.812729
vt 0.242966 0.829196
vt 0.242966 0.812729
vt 0.619772 0.829196
vt 0.619772 0.812729
vt 0.269881 0.829196
vt 0.269881 0.812729
vt 0.646687 0.829196
vt 0.646687 0.812729
vt 0.296795 0.812729
vt 0.673602 0.829196
vt 0.673602 0.812729
vt 0.323710 0.829196
vt 0.323710 0.812729
vt 0.754346 0.812729
vt 0.700516 0.829196
vt 0.700516 0.812729
vt 0.350625 0.829196
vt 0.350625 0.812729
vt 0.862005 0.829196
vt 0.835090 0.812729
vt 0.862005 0.812729
vt 0.727431 0.812729
vt 0.377539 0.812729
vt 0.027648 0.829196
vt 0.000733 0.812729
vt 0.027648 0.812729
vt 0.754346 0.829196
vt 0.404454 0.829196
vt 0.404454 0.812729
vt 0.054562 0.829196
vt 0.054562 0.812729
vt 0.431369 0.829196
vt 0.431369 0.812729
vt 0.081477 0.812729
vt 0.835090 0.829196
vt 0.458284 0.829196
vt 0.108392 0.829196
vt 0.571053 0.202909
vt 0.411428 0.219758
vt 0.411428 0.202909
vt 0.571053 0.421937
vt 0.411428 0.438785
vt 0.411428 0.421937
vt 0.571053 0.186061
vt 0.411428 0.186061
vt 0.411428 0.405088
vt 0.571053 0.169213
vt 0.411428 0.169213
vt 0.571053 0.388240
vt 0.411428 0.388240
vt 0.571053 0.152365
vt 0.411428 0.152365
vt 0.571053 0.371392
vt 0.411428 0.371392
vt 0.571053 0.135516
vt 0.411428 0.135516
vt 0.571053 0.354544
vt 0.411428 0.354544
vt 0.411428 0.034427
vt 0.571053 0.051275
vt 0.411428 0.051275
vt 0.571053 0.118668
vt 0.411428 0.118668
vt 0.571053 0.337695
vt 0.411428 0.337695
vt 0.571053 0.017579
vt 0.411428 0.017579
vt 0.571053 0.101820
vt 0.411428 0.101820
vt 0.571053 0.320847
vt 0.411428 0.320847
vt 0.571053 0.000730
vt 0.411428 0.000730
vt 0.571053 0.084972
vt 0.411428 0.084972
vt 0.571053 0.303999
vt 0.411428 0.303999
vt 0.571053 0.523026
vt 0.411428 0.539874
vt 0.411428 0.523026
vt 0.571053 0.068123
vt 0.411428 0.068123
vt 0.571053 0.287151
vt 0.411428 0.287151
vt 0.571053 0.506178
vt 0.411428 0.506178
vt 0.571053 0.270302
vt 0.411428 0.270302
vt 0.571053 0.489330
vt 0.411428 0.489330
vt 0.571053 0.253454
vt 0.411428 0.253454
vt 0.571053 0.472481
vt 0.411428 0.472481
vt 0.571053 0.236606
vt 0.411428 0.236606
vt 0.571053 0.455633
vt 0.411428 0.455633
vt 0.571053 0.219758
vt 0.571053 0.438785
vt 0.566244 0.699800
vt 0.551280 0.680728
vt 0.566244 0.680728
vt 0.371707 0.699800
vt 0.356742 0.680728
vt 0.371707 0.680728
vt 0.581208 0.699800
vt 0.581208 0.680728
vt 0.386671 0.680728
vt 0.670995 0.680728
vt 0.656030 0.699800
vt 0.656031 0.680728
vt 0.596173 0.699800
vt 0.596173 0.680728
vt 0.401636 0.699800
vt 0.401636 0.680728
vt 0.685959 0.699800
vt 0.685959 0.680728
vt 0.611137 0.699800
vt 0.611137 0.680728
vt 0.416600 0.699800
vt 0.416600 0.680728
vt 0.700924 0.699800
vt 0.700924 0.680728
vt 0.626102 0.680728
vt 0.431564 0.680728
vt 0.237027 0.699800
vt 0.222063 0.680728
vt 0.237027 0.680728
vt 0.641066 0.699800
vt 0.641066 0.680728
vt 0.446529 0.699800
vt 0.446529 0.680728
vt 0.251992 0.680728
vt 0.461493 0.699800
vt 0.461493 0.680728
vt 0.266956 0.699800
vt 0.266956 0.680728
vt 0.476458 0.680728
vt 0.281920 0.699800
vt 0.281920 0.680728
vt 0.491422 0.699800
vt 0.491422 0.680728
vt 0.296885 0.680728
vt 0.506386 0.680728
vt 0.311849 0.699800
vt 0.311849 0.680728
vt 0.521351 0.680728
vt 0.506386 0.699800
vt 0.326814 0.699800
vt 0.326814 0.680728
vt 0.536315 0.699800
vt 0.536315 0.680728
vt 0.341778 0.680728
vt 0.356742 0.699800
vt 0.719363 0.785374
vt 0.747003 0.764737
vt 0.747003 0.785374
vt 0.332407 0.785373
vt 0.360047 0.764736
vt 0.360047 0.785374
vt 0.691723 0.764737
vt 0.691723 0.785374
vt 0.304767 0.785373
vt 0.332407 0.764736
vt 0.664084 0.764737
vt 0.664084 0.785374
vt 0.277128 0.764736
vt 0.277128 0.785373
vt 0.636444 0.764737
vt 0.636444 0.785374
vt 0.249488 0.764736
vt 0.249488 0.785373
vt 0.608804 0.785374
vt 0.028370 0.764736
vt 0.056010 0.785373
vt 0.028370 0.785373
vt 0.221848 0.785373
vt 0.166569 0.785373
vt 0.194209 0.764736
vt 0.194209 0.785373
vt 0.581164 0.764737
vt 0.581164 0.785374
vt 0.525885 0.785374
vt 0.553525 0.764737
vt 0.553525 0.785374
vt 0.939528 0.586815
vt 0.905671 0.599319
vt 0.905671 0.586815
vt 0.939528 0.424264
vt 0.905671 0.436768
vt 0.905671 0.424264
vt 0.939528 0.361744
vt 0.905671 0.374248
vt 0.905671 0.361744
vt 0.939528 0.599319
vt 0.905671 0.611823
vt 0.939528 0.436768
vt 0.905671 0.449272
vt 0.939528 0.611823
vt 0.905671 0.624327
vt 0.939528 0.449272
vt 0.905671 0.461776
vt 0.939528 0.624327
vt 0.905671 0.636831
vt 0.939528 0.461776
vt 0.905671 0.474280
vt 0.939528 0.636831
vt 0.905671 0.649335
vt 0.939528 0.474280
vt 0.905671 0.486783
vt 0.939528 0.649335
vt 0.905671 0.661838
vt 0.939528 0.486783
vt 0.905671 0.499287
vt 0.939528 0.661838
vt 0.905671 0.674343
vt 0.939528 0.499287
vt 0.905671 0.511792
vt 0.939528 0.674343
vt 0.905671 0.686847
vt 0.939528 0.511792
vt 0.905671 0.524295
vt 0.939528 0.686847
vt 0.905671 0.699350
vt 0.939528 0.524295
vt 0.905671 0.536799
vt 0.939528 0.699350
vt 0.905671 0.711854
vt 0.939528 0.536799
vt 0.905671 0.549303
vt 0.939528 0.374248
vt 0.905671 0.386752
vt 0.939528 0.711854
vt 0.905671 0.724358
vt 0.939528 0.549303
vt 0.905671 0.561807
vt 0.939528 0.386752
vt 0.905671 0.399256
vt 0.939528 0.724358
vt 0.905671 0.736862
vt 0.939528 0.561807
vt 0.905671 0.574311
vt 0.939528 0.399256
vt 0.905671 0.411760
vt 0.939528 0.336737
vt 0.905671 0.349240
vt 0.905671 0.336737
vt 0.939528 0.574311
vt 0.939528 0.411760
vt 0.939528 0.349240
vt 0.988366 0.388794
vt 0.942227 0.376276
vt 0.988366 0.376276
vt 0.942227 0.326204
vt 0.988366 0.313686
vt 0.988366 0.326204
vt 0.942227 0.163468
vt 0.988367 0.150950
vt 0.988367 0.163468
vt 0.942227 0.401312
vt 0.988366 0.401312
vt 0.942227 0.338721
vt 0.988366 0.338721
vt 0.988367 0.175986
vt 0.942227 0.013251
vt 0.988367 0.000733
vt 0.988367 0.013251
vt 0.942227 0.351240
vt 0.988366 0.351240
vt 0.988367 0.188504
vt 0.942227 0.175986
vt 0.942227 0.025769
vt 0.988367 0.025769
vt 0.942227 0.363758
vt 0.988366 0.363758
vt 0.942227 0.201023
vt 0.988367 0.201023
vt 0.942227 0.038287
vt 0.988367 0.038287
vt 0.942227 0.213541
vt 0.988367 0.213541
vt 0.942227 0.050805
vt 0.988367 0.050805
vt 0.942227 0.226059
vt 0.988367 0.226059
vt 0.942227 0.063323
vt 0.988367 0.063323
vt 0.942227 0.238577
vt 0.988367 0.238577
vt 0.942227 0.075842
vt 0.988367 0.075842
vt 0.942227 0.251095
vt 0.988367 0.251095
vt 0.942227 0.088360
vt 0.988367 0.088360
vt 0.942227 0.263613
vt 0.988367 0.263613
vt 0.942227 0.100878
vt 0.988367 0.100878
vt 0.942227 0.276131
vt 0.988366 0.276131
vt 0.942227 0.113396
vt 0.988367 0.113396
vt 0.942227 0.288649
vt 0.988366 0.288649
vt 0.942227 0.125914
vt 0.988367 0.125914
vt 0.942227 0.301167
vt 0.988366 0.301167
vt 0.988367 0.138432
vt 0.942227 0.313686
vt 0.942227 0.150950
vt 0.387687 0.785374
vt 0.774643 0.785374
vt 0.415327 0.764736
vt 0.415327 0.785374
vt 0.802282 0.764737
vt 0.802282 0.785374
vt 0.442966 0.785374
vt 0.829922 0.785374
vt 0.470606 0.764736
vt 0.470606 0.785374
vt 0.083650 0.785373
vt 0.111290 0.764736
vt 0.111290 0.785373
vt 0.829922 0.764737
vt 0.857562 0.785374
vt 0.498246 0.785374
vt 0.138929 0.785373
vt 0.857562 0.764737
vt 0.885202 0.785374
vt 0.498246 0.764736
vt 0.138929 0.764736
vt 0.000731 0.785373
vt 0.056010 0.764736
vt 0.080341 0.797324
vt 0.054174 0.804852
vt 0.080306 0.809165
vt 0.054177 0.809094
vt 0.080310 0.804878
vt 0.027922 0.809195
vt 0.027899 0.804834
vt 0.000930 0.805072
vt 0.001381 0.809454
vt 0.791131 0.805131
vt 0.815825 0.809454
vt 0.791111 0.809126
vt 0.816252 0.805324
vt 0.766540 0.809210
vt 0.766533 0.805154
vt 0.741672 0.809317
vt 0.741670 0.805183
vt 0.716786 0.805160
vt 0.716782 0.809231
vt 0.692032 0.805151
vt 0.692036 0.809168
vt 0.667161 0.805180
vt 0.667171 0.809283
vt 0.642015 0.809397
vt 0.642014 0.805216
vt 0.616865 0.805187
vt 0.616856 0.809289
vt 0.591995 0.805156
vt 0.591994 0.809183
vt 0.567134 0.809287
vt 0.567125 0.805184
vt 0.541971 0.809407
vt 0.541969 0.805212
vt 0.516653 0.805184
vt 0.516650 0.809338
vt 0.491331 0.805127
vt 0.491326 0.809279
vt 0.466028 0.805087
vt 0.466028 0.809193
vt 0.440617 0.809280
vt 0.440621 0.805050
vt 0.415120 0.804997
vt 0.415111 0.809168
vt 0.389765 0.804967
vt 0.389765 0.809074
vt 0.364396 0.809169
vt 0.364388 0.804983
vt 0.338723 0.809274
vt 0.338723 0.805005
vt 0.313034 0.804975
vt 0.313029 0.809178
vt 0.287480 0.804958
vt 0.287484 0.809105
vt 0.261807 0.804981
vt 0.261816 0.809216
vt 0.235848 0.809327
vt 0.235849 0.805012
vt 0.209889 0.804974
vt 0.209879 0.809209
vt 0.184217 0.804935
vt 0.184216 0.809092
vt 0.158554 0.809193
vt 0.158546 0.804958
vt 0.132581 0.809309
vt 0.132580 0.804979
vt 0.106449 0.804943
vt 0.106445 0.809231
vt 0.080356 0.793577
vt 0.054212 0.789216
vt 0.054205 0.793516
vt 0.027921 0.793442
vt 0.000926 0.793178
vt 0.027951 0.789106
vt 0.816233 0.794270
vt 0.816420 0.797929
vt 0.791123 0.790508
vt 0.791145 0.794501
vt 0.766542 0.794466
vt 0.766551 0.790410
vt 0.741683 0.794430
vt 0.741683 0.790298
vt 0.716813 0.794429
vt 0.716809 0.790411
vt 0.692059 0.794418
vt 0.692063 0.790347
vt 0.667177 0.790264
vt 0.667170 0.794369
vt 0.642020 0.794339
vt 0.616872 0.794375
vt 0.642019 0.790158
vt 0.592003 0.790376
vt 0.592002 0.794404
vt 0.567133 0.794372
vt 0.567141 0.790271
vt 0.541991 0.794307
vt 0.541998 0.790169
vt 0.516693 0.794236
vt 0.516697 0.790084
vt 0.491370 0.794178
vt 0.491373 0.790025
vt 0.466060 0.789960
vt 0.466055 0.794120
vt 0.440650 0.794048
vt 0.415150 0.794008
vt 0.440657 0.789871
vt 0.389784 0.789886
vt 0.389782 0.793995
vt 0.364401 0.793949
vt 0.364413 0.789763
vt 0.338739 0.793905
vt 0.338740 0.789639
vt 0.313065 0.793897
vt 0.313062 0.789749
vt 0.287511 0.793879
vt 0.287516 0.789677
vt 0.261827 0.789584
vt 0.261819 0.793821
vt 0.235858 0.793783
vt 0.209899 0.793814
vt 0.235858 0.789468
vt 0.184229 0.789680
vt 0.184228 0.793837
vt 0.158558 0.793797
vt 0.158567 0.789563
vt 0.132606 0.793723
vt 0.132614 0.789452
vt 0.106493 0.793643
vt 0.106499 0.789357
vt 0.080360 0.789288
vt 0.713419 0.511634
vt 0.803247 0.621078
vt 0.780170 0.636499
vt 0.822872 0.601450
vt 0.838291 0.578371
vt 0.848912 0.552728
vt 0.854325 0.525505
vt 0.854324 0.497749
vt 0.848908 0.470526
vt 0.838284 0.444884
vt 0.822863 0.421807
vt 0.803235 0.402181
vt 0.780156 0.386762
vt 0.754513 0.376142
vt 0.727290 0.370728
vt 0.699534 0.370730
vt 0.672311 0.376146
vt 0.646669 0.386769
vt 0.623592 0.402191
vt 0.603966 0.421818
vt 0.588547 0.444897
vt 0.577927 0.470541
vt 0.572513 0.497764
vt 0.572515 0.525520
vt 0.577931 0.552742
vt 0.588554 0.578385
vt 0.603976 0.601462
vt 0.623603 0.621087
vt 0.646682 0.636506
vt 0.672326 0.647127
vt 0.699549 0.652540
vt 0.727305 0.652539
vt 0.754527 0.647122
vt 0.110598 0.438785
vt 0.000729 0.455633
vt 0.000729 0.438785
vt 0.110598 0.219757
vt 0.000729 0.236606
vt 0.000729 0.219757
vt 0.110598 0.472481
vt 0.000729 0.472481
vt 0.110598 0.236606
vt 0.000729 0.253454
vt 0.000729 0.489329
vt 0.110598 0.253454
vt 0.000729 0.270302
vt 0.110598 0.489329
vt 0.000729 0.506178
vt 0.110598 0.270302
vt 0.000729 0.287150
vt 0.110598 0.051275
vt 0.000729 0.068123
vt 0.000729 0.051275
vt 0.110598 0.506178
vt 0.000729 0.523026
vt 0.110598 0.287150
vt 0.000729 0.303999
vt 0.110598 0.068123
vt 0.000729 0.084971
vt 0.110598 0.523026
vt 0.000729 0.539874
vt 0.110598 0.303999
vt 0.000729 0.320847
vt 0.110598 0.084971
vt 0.000729 0.101820
vt 0.110598 0.000730
vt 0.000729 0.017578
vt 0.000729 0.000730
vt 0.110598 0.320847
vt 0.000729 0.337695
vt 0.110598 0.101820
vt 0.000729 0.118668
vt 0.110598 0.017578
vt 0.000729 0.034427
vt 0.110598 0.337695
vt 0.000729 0.354543
vt 0.110598 0.118668
vt 0.000729 0.135516
vt 0.110598 0.034427
vt 0.110598 0.354543
vt 0.000729 0.371392
vt 0.110598 0.135516
vt 0.000729 0.152364
vt 0.110598 0.371392
vt 0.000729 0.388240
vt 0.110598 0.152364
vt 0.000729 0.169213
vt 0.110598 0.388240
vt 0.000729 0.405088
vt 0.110598 0.186061
vt 0.000729 0.186061
vt 0.110598 0.405088
vt 0.000729 0.421936
vt 0.000729 0.202909
vt 0.110598 0.421936
vt 0.110598 0.202909
vt 0.261013 0.455633
vt 0.261013 0.438785
vt 0.261013 0.236606
vt 0.261013 0.219757
vt 0.261013 0.472481
vt 0.261013 0.253454
vt 0.261013 0.489329
vt 0.261013 0.270302
vt 0.261013 0.506178
vt 0.261013 0.287150
vt 0.261013 0.068123
vt 0.261013 0.051275
vt 0.261013 0.523026
vt 0.261013 0.303999
vt 0.261013 0.084971
vt 0.261013 0.539874
vt 0.261013 0.320847
vt 0.261013 0.101820
vt 0.261013 0.017579
vt 0.261013 0.000730
vt 0.261013 0.337695
vt 0.261013 0.118668
vt 0.261013 0.034427
vt 0.261013 0.354543
vt 0.261013 0.135516
vt 0.261013 0.371392
vt 0.261013 0.152364
vt 0.261013 0.388240
vt 0.261013 0.169213
vt 0.261013 0.405088
vt 0.261013 0.186061
vt 0.261013 0.421936
vt 0.261013 0.202909
vt 0.110598 0.169213
vt 0.110598 0.539874
vt 0.110598 0.455633
vt 0.285620 0.606278
vt 0.346726 0.624818
vt 0.341935 0.636383
vt 0.334980 0.646791
vt 0.326128 0.655642
vt 0.315719 0.662596
vt 0.304154 0.667386
vt 0.291876 0.669828
vt 0.279358 0.669827
vt 0.267080 0.667385
vt 0.255515 0.662594
vt 0.245107 0.655638
vt 0.236256 0.646786
vt 0.229302 0.636378
vt 0.224512 0.624812
vt 0.222070 0.612535
vt 0.222070 0.600017
vt 0.224513 0.587739
vt 0.229304 0.576174
vt 0.236259 0.565766
vt 0.245111 0.556915
vt 0.255520 0.549961
vt 0.267085 0.545171
vt 0.279363 0.542729
vt 0.291881 0.542729
vt 0.304159 0.545172
vt 0.315724 0.549963
vt 0.326132 0.556918
vt 0.334983 0.565770
vt 0.341937 0.576179
vt 0.346727 0.587744
vt 0.349169 0.600022
vt 0.349168 0.612540
vt 0.808175 0.829196
vt 0.512113 0.829196
vt 0.162221 0.829196
vt 0.592857 0.829196
vt 0.296795 0.829196
vt 0.727431 0.829196
vt 0.377539 0.829196
vt 0.000733 0.829196
vt 0.081477 0.829196
vt 0.571053 0.405088
vt 0.571053 0.034427
vt 0.571053 0.539874
vt 0.551280 0.699800
vt 0.386671 0.699800
vt 0.670995 0.699800
vt 0.626102 0.699800
vt 0.431564 0.699800
vt 0.222063 0.699800
vt 0.251992 0.699800
vt 0.476458 0.699800
vt 0.296885 0.699800
vt 0.521351 0.699800
vt 0.341778 0.699800
vt 0.719363 0.764737
vt 0.304767 0.764736
vt 0.608804 0.764737
vt 0.221848 0.764736
vt 0.166569 0.764736
vt 0.525885 0.764736
vt 0.939528 0.736862
vt 0.942227 0.388794
vt 0.942227 0.000733
vt 0.942227 0.188504
vt 0.942227 0.138432
vt 0.387687 0.764736
vt 0.774643 0.764737
vt 0.442966 0.764736
vt 0.083650 0.764736
vt 0.885202 0.764737
vt 0.000731 0.764736
vt 0.001387 0.788738
vt 0.815801 0.790146
vt 0.616863 0.790273
vt 0.415151 0.789781
vt 0.209891 0.789579
s 1
usemtl cone
f 14/1/1 39/2/1 18/3/1
f 65/4/2 35/5/3 61/6/4
f 74/7/5 29/8/6 70/9/7
f 59/10/8 47/11/9 79/12/10
f 77/13/11 41/14/12 73/15/13
f 80/16/14 44/17/15 76/18/16
f 68/19/17 32/20/18 64/21/19
f 62/22/20 38/23/21 58/24/22
f 11/25/23 83/26/24 88/27/25
f 2/28/1 30/29/1 6/30/1
f 17/31/26 89/32/27 92/33/28
f 8/34/1 33/35/1 12/36/1
f 12/37/29 90/38/30 8/39/31
f 71/40/32 26/41/33 67/42/34
f 18/43/35 98/44/36 14/45/37
f 21/46/38 94/47/39 23/48/40
f 23/49/1 45/50/1 21/51/1
f 20/52/41 97/53/42 96/54/43
f 5/55/44 93/56/45 86/57/46
f 20/58/1 48/59/1 15/60/1
f 5/61/1 42/62/1 24/63/1
f 17/64/1 36/65/1 9/66/1
f 11/67/1 27/68/1 3/69/1
f 1/70/47 62/71/47 58/72/47
f 1/70/47 59/73/47 79/74/47
f 1/70/47 68/75/47 64/76/47
f 1/70/47 71/77/47 67/78/47
f 1/70/47 74/79/47 70/80/47
f 1/70/47 77/81/47 73/82/47
f 1/70/47 80/83/47 76/84/47
f 1/70/47 65/85/47 61/86/47
f 83/87/1 50/88/1 82/89/1
f 50/88/1 84/90/1 82/89/1
f 85/91/1 51/92/1 82/89/1
f 51/92/1 86/93/1 82/89/1
f 87/94/1 52/95/1 82/89/1
f 52/95/1 88/96/1 82/89/1
f 89/97/1 53/98/1 82/89/1
f 53/98/1 90/99/1 82/89/1
f 91/100/1 54/101/1 82/89/1
f 54/101/1 92/102/1 82/89/1
f 93/103/1 55/104/1 82/89/1
f 55/104/1 94/105/1 82/89/1
f 95/106/1 56/107/1 82/89/1
f 56/107/1 96/108/1 82/89/1
f 97/109/1 57/110/1 82/89/1
f 57/110/1 98/111/1 82/89/1
f 58/72/47 60/112/47 1/70/47
f 60/112/47 59/73/47 1/70/47
f 61/86/47 63/113/47 1/70/47
f 63/113/47 62/71/47 1/70/47
f 64/76/47 66/114/47 1/70/47
f 66/114/47 65/85/47 1/70/47
f 67/78/47 69/115/47 1/70/47
f 69/115/47 68/75/47 1/70/47
f 70/80/47 72/116/47 1/70/47
f 72/116/47 71/77/47 1/70/47
f 73/82/47 75/117/47 1/70/47
f 75/117/47 74/79/47 1/70/47
f 76/84/47 78/118/47 1/70/47
f 78/118/47 77/81/47 1/70/47
f 79/74/47 81/119/47 1/70/47
f 81/119/47 80/83/47 1/70/47
f 79/12/10 49/120/48 81/121/48
f 49/120/48 80/16/14 81/121/48
f 77/13/11 46/122/49 45/123/50
f 46/122/49 76/18/16 44/17/15
f 73/15/13 43/124/51 75/125/51
f 43/124/51 74/7/5 75/125/51
f 71/40/32 31/126/52 30/127/53
f 31/126/52 70/9/7 29/8/6
f 67/42/34 28/128/54 69/129/54
f 28/128/54 68/19/17 69/129/54
f 65/4/2 34/130/55 33/131/56
f 34/130/55 64/21/19 32/20/18
f 61/6/4 37/132/57 63/133/57
f 37/132/57 62/22/20 63/133/57
f 59/10/8 40/134/58 39/135/59
f 40/136/58 58/24/22 38/23/21
f 29/137/1 7/138/1 31/139/1
f 7/138/1 30/29/1 31/139/1
f 27/68/1 4/140/1 3/69/1
f 4/140/1 26/141/1 2/28/1
f 33/35/1 13/142/1 12/36/1
f 13/142/1 32/143/1 11/67/1
f 36/65/1 10/144/1 9/66/1
f 10/144/1 35/145/1 8/34/1
f 39/2/1 19/146/1 18/3/1
f 19/147/1 38/148/1 17/64/1
f 41/149/1 25/150/1 43/151/1
f 25/150/1 42/62/1 43/151/1
f 44/152/1 22/153/1 46/154/1
f 22/153/1 45/50/1 46/154/1
f 47/155/1 16/156/1 49/157/1
f 16/156/1 48/59/1 49/157/1
f 92/33/28 19/158/60 17/31/26
f 19/159/60 91/160/61 18/43/35
f 97/53/42 16/161/62 57/162/62
f 16/161/62 98/44/36 57/162/62
f 96/54/43 22/163/63 20/52/41
f 22/163/63 95/164/64 21/46/38
f 93/56/45 25/165/65 55/166/65
f 25/165/65 94/47/39 55/166/65
f 90/38/30 10/167/66 8/39/31
f 10/167/66 89/32/27 9/168/67
f 84/169/68 4/170/69 2/171/70
f 4/170/69 83/26/24 3/172/71
f 87/173/72 13/174/73 52/175/73
f 13/174/73 88/27/25 52/175/73
f 85/176/74 7/177/75 51/178/75
f 7/177/75 86/57/46 51/178/75
f 6/179/76 84/169/68 2/171/70
f 82/89/1 84/90/1 85/91/1
f 82/89/1 88/96/1 83/87/1
f 82/89/1 86/93/1 93/103/1
f 82/89/1 90/99/1 87/94/1
f 82/89/1 92/102/1 89/97/1
f 82/89/1 96/108/1 97/109/1
f 82/89/1 98/111/1 91/100/1
f 82/89/1 94/105/1 95/106/1
f 14/1/1 47/155/1 39/2/1
f 65/4/2 33/131/56 35/5/3
f 74/7/5 42/180/77 29/8/6
f 59/10/8 39/135/59 47/11/9
f 77/13/11 45/123/50 41/14/12
f 80/16/14 48/181/78 44/17/15
f 68/19/17 27/182/79 32/20/18
f 62/22/20 36/183/80 38/23/21
f 11/25/23 3/172/71 83/26/24
f 2/28/1 26/141/1 30/29/1
f 17/31/26 9/168/67 89/32/27
f 8/34/1 35/145/1 33/35/1
f 12/37/29 87/173/72 90/38/30
f 71/40/32 30/127/53 26/41/33
f 18/43/35 91/160/61 98/44/36
f 21/46/38 95/164/64 94/47/39
f 23/49/1 41/149/1 45/50/1
f 20/52/41 15/184/81 97/53/42
f 5/55/44 24/185/82 93/56/45
f 20/58/1 44/152/1 48/59/1
f 5/61/1 29/137/1 42/62/1
f 17/64/1 38/148/1 36/65/1
f 11/67/1 32/143/1 27/68/1
f 79/12/10 47/11/9 49/120/48
f 49/120/48 48/181/78 80/16/14
f 77/13/11 78/186/49 46/122/49
f 46/122/49 78/186/49 76/18/16
f 73/15/13 41/14/12 43/124/51
f 43/124/51 42/180/77 74/7/5
f 71/40/32 72/187/52 31/126/52
f 31/126/52 72/187/52 70/9/7
f 67/42/34 26/41/33 28/128/54
f 28/128/54 27/182/79 68/19/17
f 65/4/2 66/188/55 34/130/55
f 34/130/55 66/188/55 64/21/19
f 61/6/4 35/5/3 37/132/57
f 37/132/57 36/183/80 62/22/20
f 59/10/8 60/189/58 40/134/58
f 40/136/58 60/190/58 58/24/22
f 29/137/1 5/61/1 7/138/1
f 7/138/1 6/30/1 30/29/1
f 27/68/1 28/191/1 4/140/1
f 4/140/1 28/191/1 26/141/1
f 33/35/1 34/192/1 13/142/1
f 13/142/1 34/192/1 32/143/1
f 36/65/1 37/193/1 10/144/1
f 10/144/1 37/193/1 35/145/1
f 39/2/1 40/194/1 19/146/1
f 19/147/1 40/195/1 38/148/1
f 41/149/1 23/49/1 25/150/1
f 25/150/1 24/63/1 42/62/1
f 44/152/1 20/58/1 22/153/1
f 22/153/1 21/51/1 45/50/1
f 47/155/1 14/1/1 16/156/1
f 16/156/1 15/60/1 48/59/1
f 92/33/28 54/196/60 19/158/60
f 19/159/60 54/197/60 91/160/61
f 97/53/42 15/184/81 16/161/62
f 16/161/62 14/45/37 98/44/36
f 96/54/43 56/198/63 22/163/63
f 22/163/63 56/198/63 95/164/64
f 93/56/45 24/185/82 25/165/65
f 25/165/65 23/48/40 94/47/39
f 90/38/30 53/199/66 10/167/66
f 10/167/66 53/199/66 89/32/27
f 84/169/68 50/200/69 4/170/69
f 4/170/69 50/200/69 83/26/24
f 87/173/72 12/37/29 13/174/73
f 13/174/73 11/25/23 88/27/25
f 85/176/74 6/179/76 7/177/75
f 7/177/75 5/55/44 86/57/46
f 6/179/76 85/176/74 84/169/68
f 404/201/83 311/202/84 313/203/85
f 365/204/86 284/205/87 286/206/88
f 407/207/89 313/203/85 315/208/90
f 368/209/91 286/206/88 288/210/92
f 410/211/93 315/208/90 317/212/94
f 371/213/95 288/210/92 290/214/96
f 332/215/97 262/216/98 264/217/99
f 413/218/100 317/212/94 319/219/101
f 374/220/102 290/214/96 292/221/103
f 335/222/104 264/217/99 266/223/105
f 416/224/106 319/219/101 321/225/107
f 377/226/108 292/221/103 294/227/109
f 338/228/110 266/229/105 268/230/111
f 419/231/112 321/225/107 323/232/113
f 380/233/114 294/227/109 297/234/115
f 341/235/116 268/230/111 270/236/117
f 328/237/118 99/238/1 326/239/119
f 383/240/120 297/234/115 299/241/121
f 344/242/122 270/236/117 272/243/123
f 329/244/124 260/245/125 262/216/98
f 386/246/126 299/241/121 301/247/127
f 347/248/128 272/243/123 274/249/129
f 389/250/130 301/247/127 303/251/131
f 350/252/132 274/249/129 276/253/133
f 392/254/134 303/251/131 305/255/135
f 353/256/136 276/253/133 278/257/137
f 395/258/138 305/255/135 307/259/139
f 356/260/140 278/257/137 280/261/141
f 398/262/142 307/259/139 309/263/143
f 359/264/144 280/261/141 282/265/145
f 401/266/146 309/263/143 311/202/84
f 362/267/147 282/265/145 284/205/87
f 120/268/1 385/269/148 388/270/149
f 107/271/1 346/272/150 349/273/151
f 391/274/152 120/268/1 388/270/149
f 352/275/153 107/271/1 349/273/151
f 122/276/1 391/274/152 394/277/154
f 109/278/1 352/275/153 355/279/155
f 123/280/1 394/277/154 397/281/156
f 110/282/1 355/279/155 358/283/157
f 400/284/158 123/280/1 397/281/156
f 111/285/1 358/283/157 361/286/159
f 125/287/1 400/284/158 403/288/160
f 112/289/1 361/286/159 364/290/161
f 126/291/1 403/288/160 406/292/162
f 367/293/163 112/289/1 364/290/161
f 127/294/1 406/292/162 409/295/164
f 114/296/1 367/293/163 370/297/165
f 99/238/1 418/298/166 326/239/119
f 128/299/1 409/295/164 412/300/167
f 115/301/1 370/297/165 373/302/168
f 102/303/1 331/304/169 334/305/170
f 415/306/171 128/299/1 412/300/167
f 376/307/172 115/301/1 373/302/168
f 103/308/1 334/309/170 337/310/173
f 130/311/1 415/306/171 418/298/166
f 117/312/1 376/307/172 379/313/174
f 104/314/1 337/310/173 340/315/175
f 118/316/1 379/313/174 382/317/176
f 343/318/177 104/314/1 340/315/175
f 101/319/1 328/237/118 331/304/169
f 119/320/1 382/317/176 385/269/148
f 106/321/1 343/318/177 346/272/150
f 154/322/178 485/323/179 488/324/178
f 141/325/180 486/326/181 489/327/180
f 155/328/182 488/324/178 490/329/182
f 491/330/183 141/325/180 489/327/180
f 156/331/184 490/329/182 492/332/184
f 143/333/185 491/330/183 493/334/185
f 157/335/186 492/332/184 494/336/186
f 144/337/187 493/334/185 495/338/187
f 158/339/188 494/336/186 496/340/188
f 145/341/189 495/338/187 497/342/189
f 498/343/190 131/344/191 487/345/191
f 159/346/192 496/340/188 499/347/192
f 146/348/193 497/342/189 500/349/193
f 133/350/194 498/343/190 501/351/194
f 160/352/195 499/347/192 502/353/195
f 147/354/196 500/349/193 503/355/196
f 134/356/197 501/351/194 504/357/197
f 161/358/198 502/353/195 505/359/198
f 148/360/199 503/355/196 506/361/199
f 135/362/200 504/363/197 507/364/200
f 162/365/201 505/359/198 508/366/201
f 149/367/202 506/361/199 509/368/202
f 136/369/203 507/364/200 510/370/203
f 131/344/191 508/366/201 487/345/191
f 150/371/204 509/368/202 511/372/204
f 137/373/205 510/370/203 512/374/205
f 151/375/206 511/372/204 513/376/206
f 138/377/207 512/374/205 514/378/207
f 152/379/208 513/376/206 515/380/208
f 139/381/209 514/378/207 516/382/209
f 153/383/179 515/380/208 485/323/179
f 140/384/181 516/382/209 486/326/181
f 189/385/210 156/386/211 157/387/210
f 176/388/212 143/389/213 144/390/212
f 190/391/214 157/387/210 158/392/214
f 145/393/215 176/388/212 144/390/212
f 132/394/216 163/395/217 131/396/217
f 191/397/218 158/392/214 159/398/219
f 178/399/220 145/393/215 146/400/220
f 165/401/221 132/394/216 133/402/221
f 192/403/222 159/398/219 160/404/222
f 179/405/223 146/400/220 147/406/223
f 166/407/224 133/402/221 134/408/224
f 161/409/225 192/403/222 160/404/222
f 148/410/226 179/405/223 147/406/223
f 167/411/227 134/412/224 135/413/228
f 194/414/229 161/409/225 162/415/229
f 181/416/230 148/410/226 149/417/230
f 136/418/231 167/411/227 135/413/228
f 163/395/217 162/415/229 131/396/217
f 182/419/232 149/417/230 150/420/232
f 169/421/233 136/418/231 137/422/233
f 151/423/234 182/419/232 150/420/232
f 170/424/235 137/422/233 138/425/235
f 184/426/236 151/423/234 152/427/236
f 139/428/237 170/424/235 138/425/235
f 153/429/238 184/426/236 152/427/236
f 172/430/239 139/428/237 140/431/239
f 154/432/240 185/433/238 153/429/238
f 173/434/241 140/431/239 141/435/241
f 187/436/242 154/432/240 155/437/242
f 142/438/243 173/434/241 141/435/241
f 156/386/211 187/436/242 155/437/242
f 175/439/244 142/438/243 143/389/213
f 216/440/47 247/441/47 214/442/47
f 217/443/47 248/444/47 215/445/47
f 251/446/47 216/440/47 218/447/47
f 219/448/47 250/449/47 217/443/47
f 253/450/47 218/447/47 220/451/47
f 254/452/47 219/448/47 221/453/47
f 255/454/47 220/451/47 222/455/47
f 256/456/47 221/453/47 223/457/47
f 224/458/47 255/454/47 222/455/47
f 231/459/47 195/460/47 196/461/47
f 225/462/47 256/456/47 223/457/47
f 198/463/47 229/464/47 197/465/47
f 259/466/47 224/458/47 226/467/47
f 200/468/47 230/469/47 199/470/47
f 199/471/245 177/472/246 178/473/245
f 197/474/247 190/475/248 191/476/247
f 195/477/249 163/478/250 164/479/249
f 226/480/246 176/481/251 177/472/246
f 225/482/248 189/483/252 190/475/248
f 224/484/251 175/485/253 176/481/251
f 223/486/252 188/487/254 189/483/252
f 222/488/253 174/489/255 175/485/253
f 221/490/254 187/491/256 188/487/254
f 220/492/255 173/493/257 174/489/255
f 219/494/256 186/495/258 187/491/256
f 218/496/257 172/497/259 173/493/257
f 217/498/258 185/499/260 186/495/258
f 216/500/259 171/501/261 172/497/259
f 215/502/260 184/503/262 185/499/260
f 214/504/261 170/505/263 171/501/261
f 213/506/262 183/507/264 184/503/262
f 212/508/263 169/509/265 170/505/263
f 211/510/264 182/511/266 183/507/264
f 210/512/265 168/513/267 169/509/265
f 209/514/266 181/515/268 182/511/266
f 208/516/250 194/517/269 163/478/250
f 207/518/267 167/519/270 168/513/267
f 206/520/268 180/521/271 181/515/268
f 205/522/269 193/523/272 194/517/269
f 204/524/270 166/525/273 167/519/270
f 203/526/271 179/527/274 180/521/271
f 202/528/272 192/529/275 193/523/272
f 201/530/273 165/531/276 166/532/273
f 200/533/274 178/473/245 179/527/274
f 198/534/275 191/476/247 192/529/275
f 196/535/276 164/479/249 165/531/276
f 231/536/277 549/537/278 228/538/278
f 578/539/279 229/540/280 232/541/279
f 565/542/281 230/543/282 233/544/281
f 552/545/283 231/536/277 234/546/283
f 579/547/284 232/541/279 235/548/284
f 236/549/285 565/542/281 233/544/281
f 553/550/286 234/551/283 237/552/286
f 580/553/287 235/548/284 238/554/287
f 239/555/288 566/556/285 236/549/285
f 554/557/289 237/552/286 240/558/289
f 550/559/290 238/554/287 241/560/290
f 568/561/291 239/555/288 242/562/291
f 555/563/292 240/558/289 243/564/292
f 569/565/293 242/562/291 244/566/293
f 556/567/294 243/564/292 245/568/294
f 570/569/295 244/566/293 246/570/295
f 557/571/296 245/568/294 247/572/296
f 571/573/297 246/570/295 248/574/297
f 558/575/298 247/572/296 249/576/298
f 572/577/299 248/574/297 250/578/299
f 559/579/300 249/576/298 251/580/300
f 573/581/301 250/578/299 252/582/301
f 560/583/302 251/580/300 253/584/302
f 574/585/303 252/582/301 254/586/303
f 561/587/304 253/584/302 255/588/304
f 575/589/305 254/586/303 256/590/305
f 562/591/306 255/588/304 257/592/306
f 576/593/307 256/590/305 258/594/307
f 259/595/308 562/591/306 257/592/306
f 228/538/278 550/559/290 241/560/290
f 577/596/280 258/594/307 229/540/280
f 564/597/282 259/595/308 230/543/282
f 248/444/47 213/598/47 215/445/47
f 247/441/47 212/599/47 214/442/47
f 213/598/47 244/600/47 211/601/47
f 212/599/47 243/602/47 210/603/47
f 244/600/47 209/604/47 211/601/47
f 243/602/47 207/605/47 210/603/47
f 209/604/47 239/606/47 206/607/47
f 208/608/47 238/609/47 205/610/47
f 240/611/47 204/612/47 207/605/47
f 239/606/47 203/613/47 206/607/47
f 238/609/47 202/614/47 205/610/47
f 237/615/47 201/616/47 204/612/47
f 236/617/47 200/468/47 203/613/47
f 199/470/47 259/466/47 226/467/47
f 235/618/47 198/463/47 202/614/47
f 229/464/47 225/462/47 197/465/47
f 201/619/47 231/459/47 196/461/47
f 228/620/47 208/608/47 195/460/47
f 325/621/309 323/232/113 260/245/125
f 263/622/310 422/623/311 421/624/312
f 262/216/98 261/625/313 263/622/310
f 423/626/314 263/622/310 421/624/312
f 265/627/315 262/216/98 263/622/310
f 267/628/316 423/626/314 424/629/317
f 266/223/105 265/627/315 267/628/316
f 269/630/318 424/631/317 425/632/319
f 268/230/111 267/633/316 269/630/318
f 426/634/320 269/630/318 425/632/319
f 271/635/321 268/230/111 269/630/318
f 427/636/322 271/635/321 426/634/320
f 273/637/323 270/236/117 271/635/321
f 275/638/324 427/636/322 428/639/325
f 274/249/129 273/637/323 275/638/324
f 277/640/326 428/639/325 429/641/327
f 276/253/133 275/638/324 277/640/326
f 279/642/328 429/641/327 430/643/329
f 278/257/137 277/640/326 279/642/328
f 431/644/330 279/642/328 430/643/329
f 281/645/331 278/257/137 279/642/328
f 283/646/332 431/644/330 432/647/333
f 282/265/145 281/645/331 283/646/332
f 285/648/334 432/647/333 433/649/335
f 284/205/87 283/646/332 285/648/334
f 434/650/336 285/648/334 433/649/335
f 287/651/337 284/205/87 285/648/334
f 435/652/338 287/651/337 434/650/336
f 289/653/339 286/206/88 287/651/337
f 291/654/340 435/652/338 436/655/341
f 290/214/96 289/653/339 291/654/340
f 293/656/342 436/655/341 437/657/343
f 292/221/103 291/654/340 293/656/342
f 296/658/344 437/657/343 438/659/345
f 294/227/109 293/656/342 296/658/344
f 439/660/346 296/658/344 438/659/345
f 298/661/347 294/227/109 296/658/344
f 300/662/348 439/660/346 440/663/349
f 299/241/121 298/661/347 300/662/348
f 302/664/350 440/663/349 441/665/351
f 301/247/127 300/662/348 302/664/350
f 442/666/352 302/664/350 441/665/351
f 304/667/353 301/247/127 302/664/350
f 443/668/354 304/667/353 442/666/352
f 306/669/355 303/251/131 304/667/353
f 308/670/356 443/668/354 444/671/357
f 307/259/139 306/669/355 308/670/356
f 310/672/358 444/671/357 445/673/359
f 309/263/143 308/670/356 310/672/358
f 312/674/360 445/673/359 446/675/361
f 311/202/84 310/672/358 312/674/360
f 447/676/362 312/674/360 446/675/361
f 314/677/363 311/202/84 312/674/360
f 316/678/364 447/676/362 448/679/365
f 315/208/90 314/677/363 316/678/364
f 318/680/366 448/679/365 449/681/367
f 317/212/94 316/678/364 318/680/366
f 450/682/368 318/680/366 449/681/367
f 320/683/369 317/212/94 318/680/366
f 451/684/370 320/683/369 450/682/368
f 322/685/371 319/219/101 320/683/369
f 324/686/372 451/684/370 452/687/373
f 323/232/113 322/685/371 324/686/372
f 261/625/313 452/687/373 422/623/311
f 260/245/125 324/686/372 261/625/313
f 329/244/124 327/688/374 325/621/309
f 328/689/118 327/688/374 330/690/375
f 333/691/376 329/244/124 332/215/97
f 333/691/376 328/689/118 330/690/375
f 335/222/104 333/691/376 332/215/97
f 336/692/377 331/693/169 333/691/376
f 338/228/110 336/694/377 335/695/104
f 337/696/173 336/694/377 339/697/378
f 342/698/379 338/228/110 341/235/116
f 340/699/175 339/697/378 342/698/379
f 345/700/380 341/235/116 344/242/122
f 343/701/177 342/698/379 345/700/380
f 348/702/381 344/242/122 347/248/128
f 346/703/150 345/700/380 348/702/381
f 351/704/382 347/248/128 350/252/132
f 349/705/151 348/702/381 351/704/382
f 353/256/136 351/704/382 350/252/132
f 352/706/153 351/704/382 354/707/383
f 357/708/384 353/256/136 356/260/140
f 357/708/384 352/706/153 354/707/383
f 359/264/144 357/708/384 356/260/140
f 360/709/385 355/710/155 357/708/384
f 362/267/147 360/709/385 359/264/144
f 361/711/159 360/709/385 363/712/386
f 366/713/387 362/267/147 365/204/86
f 364/714/161 363/712/386 366/713/387
f 369/715/388 365/204/86 368/209/91
f 367/716/163 366/713/387 369/715/388
f 372/717/389 368/209/91 371/213/95
f 370/718/165 369/715/388 372/717/389
f 375/719/390 371/213/95 374/220/102
f 373/720/168 372/717/389 375/719/390
f 377/226/108 375/719/390 374/220/102
f 376/721/172 375/719/390 378/722/391
f 381/723/392 377/226/108 380/233/114
f 381/723/392 376/721/172 378/722/391
f 383/240/120 381/723/392 380/233/114
f 384/724/393 379/725/174 381/723/392
f 386/246/126 384/724/393 383/240/120
f 385/726/148 384/724/393 387/727/394
f 390/728/395 386/246/126 389/250/130
f 388/729/149 387/727/394 390/728/395
f 393/730/396 389/250/130 392/254/134
f 391/731/152 390/728/395 393/730/396
f 396/732/397 392/254/134 395/258/138
f 394/733/154 393/730/396 396/732/397
f 399/734/398 395/258/138 398/262/142
f 397/735/156 396/732/397 399/734/398
f 401/266/146 399/734/398 398/262/142
f 400/736/158 399/734/398 402/737/399
f 405/738/400 401/266/146 404/201/83
f 405/738/400 400/736/158 402/737/399
f 407/207/89 405/738/400 404/201/83
f 408/739/401 403/740/160 405/738/400
f 410/211/93 408/739/401 407/207/89
f 409/741/164 408/739/401 411/742/402
f 414/743/403 410/211/93 413/218/100
f 412/744/167 411/742/402 414/743/403
f 417/745/404 413/218/100 416/224/106
f 415/746/171 414/743/403 417/745/404
f 420/747/405 416/224/106 419/231/112
f 418/748/166 417/745/404 420/747/405
f 327/688/374 419/231/112 325/621/309
f 326/749/119 420/747/405 327/688/374
f 295/750/47 421/751/312 422/752/311
f 295/750/47 423/753/314 421/751/312
f 295/750/47 424/754/317 423/753/314
f 295/750/47 425/755/319 424/754/317
f 295/750/47 426/756/320 425/755/319
f 295/750/47 427/757/322 426/756/320
f 295/750/47 428/758/325 427/757/322
f 295/750/47 429/759/327 428/758/325
f 295/750/47 430/760/329 429/759/327
f 295/750/47 431/761/330 430/760/329
f 295/750/47 432/762/333 431/761/330
f 295/750/47 433/763/335 432/762/333
f 295/750/47 434/764/336 433/763/335
f 295/750/47 435/765/338 434/764/336
f 295/750/47 436/766/341 435/765/338
f 295/750/47 437/767/343 436/766/341
f 295/750/47 438/768/345 437/767/343
f 295/750/47 439/769/346 438/768/345
f 295/750/47 440/770/349 439/769/346
f 295/750/47 441/771/351 440/770/349
f 295/750/47 442/772/352 441/771/351
f 295/750/47 443/773/354 442/772/352
f 295/750/47 444/774/357 443/773/354
f 295/750/47 445/775/359 444/774/357
f 295/750/47 446/776/361 445/775/359
f 295/750/47 447/777/362 446/776/361
f 295/750/47 448/778/365 447/777/362
f 295/750/47 449/779/367 448/778/365
f 295/750/47 450/780/368 449/779/367
f 295/750/47 451/781/370 450/780/368
f 295/750/47 452/782/373 451/781/370
f 295/750/47 422/752/311 452/782/373
f 455/783/181 107/784/209 108/785/181
f 453/786/179 120/787/208 121/788/179
f 107/784/209 482/789/207 106/790/207
f 483/791/208 119/792/206 120/787/208
f 482/789/207 105/793/205 106/790/207
f 481/794/206 118/795/204 119/792/206
f 480/796/205 104/797/203 105/793/205
f 479/798/204 117/799/202 118/795/204
f 465/800/191 130/801/201 99/802/191
f 478/803/203 103/804/200 104/797/203
f 477/805/202 116/806/199 117/799/202
f 476/807/201 129/808/198 130/801/201
f 475/809/200 102/810/197 103/804/200
f 474/811/199 115/812/196 116/806/199
f 473/813/198 128/814/195 129/808/198
f 472/815/197 101/816/194 102/817/197
f 471/818/196 114/819/193 115/812/196
f 470/820/195 127/821/192 128/814/195
f 469/822/194 100/823/190 101/816/194
f 468/824/193 113/825/189 114/819/193
f 467/826/192 126/827/188 127/821/192
f 466/828/190 99/802/191 100/823/190
f 464/829/189 112/830/187 113/825/189
f 463/831/188 125/832/186 126/827/188
f 462/833/187 111/834/185 112/830/187
f 461/835/186 124/836/184 125/832/186
f 460/837/185 110/838/183 111/834/185
f 124/836/184 457/839/182 123/840/182
f 458/841/183 109/842/180 110/838/183
f 457/839/182 122/843/178 123/840/182
f 456/844/180 108/785/181 109/842/180
f 454/845/178 121/788/179 122/843/178
f 486/326/181 545/846/209 547/847/181
f 485/323/179 544/848/208 546/849/179
f 516/382/209 543/850/207 545/846/209
f 515/380/208 542/851/206 544/848/208
f 514/378/207 541/852/205 543/850/207
f 513/376/206 540/853/204 542/851/206
f 512/374/205 539/854/203 541/852/205
f 511/372/204 538/855/202 540/853/204
f 487/345/191 537/856/201 548/857/191
f 510/370/203 536/858/200 539/854/203
f 509/368/202 535/859/199 538/855/202
f 508/366/201 534/860/198 537/856/201
f 507/364/200 533/861/197 536/858/200
f 506/361/199 532/862/196 535/859/199
f 505/359/198 531/863/195 534/860/198
f 504/357/197 530/864/194 533/865/197
f 503/355/196 529/866/193 532/862/196
f 502/353/195 528/867/192 531/863/195
f 501/351/194 527/868/190 530/864/194
f 500/349/193 526/869/189 529/866/193
f 499/347/192 525/870/188 528/867/192
f 527/868/190 487/345/191 548/857/191
f 497/342/189 524/871/187 526/869/189
f 496/340/188 523/872/186 525/870/188
f 495/338/187 522/873/185 524/871/187
f 494/336/186 521/874/184 523/872/186
f 493/334/185 520/875/183 522/873/185
f 492/332/184 519/876/182 521/874/184
f 491/330/183 518/877/180 520/875/183
f 490/329/182 517/878/178 519/876/182
f 518/877/180 486/326/181 547/847/181
f 517/878/178 485/323/179 546/849/179
f 517/878/178 453/786/179 454/845/178
f 518/877/180 455/783/181 456/844/180
f 519/876/182 454/845/178 457/839/182
f 520/875/183 456/844/180 458/841/183
f 459/879/184 519/876/182 457/839/182
f 522/873/185 458/841/183 460/837/185
f 523/872/186 459/879/184 461/835/186
f 524/871/187 460/837/185 462/833/187
f 525/870/188 461/835/186 463/831/188
f 526/869/189 462/833/187 464/829/189
f 527/868/190 465/800/191 466/828/190
f 528/867/192 463/831/188 467/826/192
f 529/866/193 464/829/189 468/824/193
f 530/864/194 466/828/190 469/822/194
f 531/863/195 467/826/192 470/820/195
f 532/862/196 468/824/193 471/818/196
f 533/865/197 469/822/194 472/815/197
f 534/860/198 470/820/195 473/813/198
f 535/859/199 471/818/196 474/811/199
f 536/858/200 472/880/197 475/809/200
f 537/856/201 473/813/198 476/807/201
f 538/855/202 474/811/199 477/805/202
f 539/854/203 475/809/200 478/803/203
f 548/857/191 476/807/201 465/800/191
f 540/853/204 477/805/202 479/798/204
f 541/852/205 478/803/203 480/796/205
f 542/851/206 479/798/204 481/794/206
f 543/850/207 480/796/205 482/789/207
f 544/848/208 481/794/206 483/791/208
f 484/881/209 543/850/207 482/789/207
f 546/849/179 483/791/208 453/786/179
f 547/847/181 484/881/209 455/783/181
f 227/882/1 550/883/1 549/884/1
f 227/882/1 549/884/1 551/885/1
f 227/882/1 551/885/1 552/886/1
f 227/882/1 552/886/1 553/887/1
f 227/882/1 553/887/1 554/888/1
f 227/882/1 554/888/1 555/889/1
f 227/882/1 555/889/1 556/890/1
f 227/882/1 556/890/1 557/891/1
f 227/882/1 557/891/1 558/892/1
f 227/882/1 558/892/1 559/893/1
f 227/882/1 559/893/1 560/894/1
f 227/882/1 560/894/1 561/895/1
f 227/882/1 561/895/1 562/896/1
f 227/882/1 562/896/1 563/897/1
f 227/882/1 563/897/1 564/898/1
f 227/882/1 564/898/1 565/899/1
f 227/882/1 565/899/1 566/900/1
f 227/882/1 566/900/1 567/901/1
f 227/882/1 567/901/1 568/902/1
f 227/882/1 568/902/1 569/903/1
f 227/882/1 569/903/1 570/904/1
f 227/882/1 570/904/1 571/905/1
f 227/882/1 571/905/1 572/906/1
f 227/882/1 572/906/1 573/907/1
f 227/882/1 573/907/1 574/908/1
f 227/882/1 574/908/1 575/909/1
f 227/882/1 575/909/1 576/910/1
f 227/882/1 576/910/1 577/911/1
f 227/882/1 577/911/1 578/912/1
f 227/882/1 578/912/1 579/913/1
f 227/882/1 579/913/1 580/914/1
f 227/882/1 580/914/1 550/883/1
f 404/201/83 401/266/146 311/202/84
f 365/204/86 362/267/147 284/205/87
f 407/207/89 404/201/83 313/203/85
f 368/209/91 365/204/86 286/206/88
f 410/211/93 407/207/89 315/208/90
f 371/213/95 368/209/91 288/210/92
f 332/215/97 329/244/124 262/216/98
f 413/218/100 410/211/93 317/212/94
f 374/220/102 371/213/95 290/214/96
f 335/222/104 332/215/97 264/217/99
f 416/224/106 413/218/100 319/219/101
f 377/226/108 374/220/102 292/221/103
f 338/228/110 335/695/104 266/229/105
f 419/231/112 416/224/106 321/225/107
f 380/233/114 377/226/108 294/227/109
f 341/235/116 338/228/110 268/230/111
f 328/237/118 100/915/1 99/238/1
f 383/240/120 380/233/114 297/234/115
f 344/242/122 341/235/116 270/236/117
f 329/244/124 325/621/309 260/245/125
f 386/246/126 383/240/120 299/241/121
f 347/248/128 344/242/122 272/243/123
f 389/250/130 386/246/126 301/247/127
f 350/252/132 347/248/128 274/249/129
f 392/254/134 389/250/130 303/251/131
f 353/256/136 350/252/132 276/253/133
f 395/258/138 392/254/134 305/255/135
f 356/260/140 353/256/136 278/257/137
f 398/262/142 395/258/138 307/259/139
f 359/264/144 356/260/140 280/261/141
f 401/266/146 398/262/142 309/263/143
f 362/267/147 359/264/144 282/265/145
f 120/268/1 119/320/1 385/269/148
f 107/271/1 106/321/1 346/272/150
f 391/274/152 121/916/1 120/268/1
f 352/275/153 108/917/1 107/271/1
f 122/276/1 121/916/1 391/274/152
f 109/278/1 108/917/1 352/275/153
f 123/280/1 122/276/1 394/277/154
f 110/282/1 109/278/1 355/279/155
f 400/284/158 124/918/1 123/280/1
f 111/285/1 110/282/1 358/283/157
f 125/287/1 124/918/1 400/284/158
f 112/289/1 111/285/1 361/286/159
f 126/291/1 125/287/1 403/288/160
f 367/293/163 113/919/1 112/289/1
f 127/294/1 126/291/1 406/292/162
f 114/296/1 113/919/1 367/293/163
f 99/238/1 130/311/1 418/298/166
f 128/299/1 127/294/1 409/295/164
f 115/301/1 114/296/1 370/297/165
f 102/303/1 101/319/1 331/304/169
f 415/306/171 129/920/1 128/299/1
f 376/307/172 116/921/1 115/301/1
f 103/308/1 102/922/1 334/309/170
f 130/311/1 129/920/1 415/306/171
f 117/312/1 116/921/1 376/307/172
f 104/314/1 103/308/1 337/310/173
f 118/316/1 117/312/1 379/313/174
f 343/318/177 105/923/1 104/314/1
f 101/319/1 100/915/1 328/237/118
f 119/320/1 118/316/1 382/317/176
f 106/321/1 105/923/1 343/318/177
f 154/322/178 153/383/179 485/323/179
f 141/325/180 140/384/181 486/326/181
f 155/328/182 154/322/178 488/324/178
f 491/330/183 142/924/183 141/325/180
f 156/331/184 155/328/182 490/329/182
f 143/333/185 142/924/183 491/330/183
f 157/335/186 156/331/184 492/332/184
f 144/337/187 143/333/185 493/334/185
f 158/339/188 157/335/186 494/336/186
f 145/341/189 144/337/187 495/338/187
f 498/343/190 132/925/190 131/344/191
f 159/346/192 158/339/188 496/340/188
f 146/348/193 145/341/189 497/342/189
f 133/350/194 132/925/190 498/343/190
f 160/352/195 159/346/192 499/347/192
f 147/354/196 146/348/193 500/349/193
f 134/356/197 133/350/194 501/351/194
f 161/358/198 160/352/195 502/353/195
f 148/360/199 147/354/196 503/355/196
f 135/362/200 134/926/197 504/363/197
f 162/365/201 161/358/198 505/359/198
f 149/367/202 148/360/199 506/361/199
f 136/369/203 135/362/200 507/364/200
f 131/344/191 162/365/201 508/366/201
f 150/371/204 149/367/202 509/368/202
f 137/373/205 136/369/203 510/370/203
f 151/375/206 150/371/204 511/372/204
f 138/377/207 137/373/205 512/374/205
f 152/379/208 151/375/206 513/376/206
f 139/381/209 138/377/207 514/378/207
f 153/383/179 152/379/208 515/380/208
f 140/384/181 139/381/209 516/382/209
f 189/385/210 188/927/211 156/386/211
f 176/388/212 175/439/244 143/389/213
f 190/391/214 189/385/210 157/387/210
f 145/393/215 177/928/215 176/388/212
f 132/394/216 164/929/216 163/395/217
f 191/397/218 190/391/214 158/392/214
f 178/399/220 177/928/215 145/393/215
f 165/401/221 164/929/216 132/394/216
f 192/403/222 191/397/218 159/398/219
f 179/405/223 178/399/220 146/400/220
f 166/407/224 165/401/221 133/402/221
f 161/409/225 193/930/225 192/403/222
f 148/410/226 180/931/226 179/405/223
f 167/411/227 166/932/224 134/412/224
f 194/414/229 193/930/225 161/409/225
f 181/416/230 180/931/226 148/410/226
f 136/418/231 168/933/231 167/411/227
f 163/395/217 194/414/229 162/415/229
f 182/419/232 181/416/230 149/417/230
f 169/421/233 168/933/231 136/418/231
f 151/423/234 183/934/234 182/419/232
f 170/424/235 169/421/233 137/422/233
f 184/426/236 183/934/234 151/423/234
f 139/428/237 171/935/237 170/424/235
f 153/429/238 185/433/238 184/426/236
f 172/430/239 171/935/237 139/428/237
f 154/432/240 186/936/240 185/433/238
f 173/434/241 172/430/239 140/431/239
f 187/436/242 186/936/240 154/432/240
f 142/438/243 174/937/243 173/434/241
f 156/386/211 188/927/211 187/436/242
f 175/439/244 174/937/243 142/438/243
f 216/440/47 249/938/47 247/441/47
f 217/443/47 250/449/47 248/444/47
f 251/446/47 249/938/47 216/440/47
f 219/448/47 252/939/47 250/449/47
f 253/450/47 251/446/47 218/447/47
f 254/452/47 252/939/47 219/448/47
f 255/454/47 253/450/47 220/451/47
f 256/456/47 254/452/47 221/453/47
f 224/458/47 257/940/47 255/454/47
f 231/459/47 228/620/47 195/460/47
f 225/462/47 258/941/47 256/456/47
f 198/463/47 232/942/47 229/464/47
f 259/466/47 257/940/47 224/458/47
f 200/468/47 233/943/47 230/469/47
f 199/471/245 226/480/246 177/472/246
f 197/474/247 225/482/248 190/475/248
f 195/477/249 208/516/250 163/478/250
f 226/480/246 224/484/251 176/481/251
f 225/482/248 223/486/252 189/483/252
f 224/484/251 222/488/253 175/485/253
f 223/486/252 221/490/254 188/487/254
f 222/488/253 220/492/255 174/489/255
f 221/490/254 219/494/256 187/491/256
f 220/492/255 218/496/257 173/493/257
f 219/494/256 217/498/258 186/495/258
f 218/496/257 216/500/259 172/497/259
f 217/498/258 215/502/260 185/499/260
f 216/500/259 214/504/261 171/501/261
f 215/502/260 213/506/262 184/503/262
f 214/504/261 212/508/263 170/505/263
f 213/506/262 211/510/264 183/507/264
f 212/508/263 210/512/265 169/509/265
f 211/510/264 209/514/266 182/511/266
f 210/512/265 207/518/267 168/513/267
f 209/514/266 206/520/268 181/515/268
f 208/516/250 205/522/269 194/517/269
f 207/518/267 204/524/270 167/519/270
f 206/520/268 203/526/271 180/521/271
f 205/522/269 202/528/272 193/523/272
f 204/524/270 201/944/273 166/525/273
f 203/526/271 200/533/274 179/527/274
f 202/528/272 198/534/275 192/529/275
f 201/530/273 196/535/276 165/531/276
f 200/533/274 199/471/245 178/473/245
f 198/534/275 197/474/247 191/476/247
f 196/535/276 195/477/249 164/479/249
f 231/536/277 551/945/277 549/537/278
f 578/539/279 577/596/280 229/540/280
f 565/542/281 564/597/282 230/543/282
f 552/545/283 551/945/277 231/536/277
f 579/547/284 578/539/279 232/541/279
f 236/549/285 566/556/285 565/542/281
f 553/550/286 552/946/283 234/551/283
f 580/553/287 579/547/284 235/548/284
f 239/555/288 567/947/288 566/556/285
f 554/557/289 553/550/286 237/552/286
f 550/559/290 580/553/287 238/554/287
f 568/561/291 567/947/288 239/555/288
f 555/563/292 554/557/289 240/558/289
f 569/565/293 568/561/291 242/562/291
f 556/567/294 555/563/292 243/564/292
f 570/569/295 569/565/293 244/566/293
f 557/571/296 556/567/294 245/568/294
f 571/573/297 570/569/295 246/570/295
f 558/575/298 557/571/296 247/572/296
f 572/577/299 571/573/297 248/574/297
f 559/579/300 558/575/298 249/576/298
f 573/581/301 572/577/299 250/578/299
f 560/583/302 559/579/300 251/580/300
f 574/585/303 573/581/301 252/582/301
f 561/587/304 560/583/302 253/584/302
f 575/589/305 574/585/303 254/586/303
f 562/591/306 561/587/304 255/588/304
f 576/593/307 575/589/305 256/590/305
f 259/595/308 563/948/308 562/591/306
f 228/538/278 549/537/278 550/559/290
f 577/596/280 576/593/307 258/594/307
f 564/597/282 563/948/308 259/595/308
f 248/444/47 246/949/47 213/598/47
f 247/441/47 245/950/47 212/599/47
f 213/598/47 246/949/47 244/600/47
f 212/599/47 245/950/47 243/602/47
f 244/600/47 242/951/47 209/604/47
f 243/602/47 240/611/47 207/605/47
f 209/604/47 242/951/47 239/606/47
f 208/608/47 241/952/47 238/609/47
f 240/611/47 237/615/47 204/612/47
f 239/606/47 236/617/47 203/613/47
f 238/609/47 235/618/47 202/614/47
f 237/615/47 234/953/47 201/616/47
f 236/617/47 233/943/47 200/468/47
f 199/470/47 230/469/47 259/466/47
f 235/618/47 232/942/47 198/463/47
f 229/464/47 258/941/47 225/462/47
f 201/619/47 234/954/47 231/459/47
f 228/620/47 241/952/47 208/608/47
f 325/621/309 419/231/112 323/232/113
f 263/622/310 261/625/313 422/623/311
f 262/216/98 260/245/125 261/625/313
f 423/626/314 265/627/315 263/622/310
f 265/627/315 264/217/99 262/216/98
f 267/628/316 265/627/315 423/626/314
f 266/223/105 264/217/99 265/627/315
f 269/630/318 267/633/316 424/631/317
f 268/230/111 266/229/105 267/633/316
f 426/634/320 271/635/321 269/630/318
f 271/635/321 270/236/117 268/230/111
f 427/636/322 273/637/323 271/635/321
f 273/637/323 272/243/123 270/236/117
f 275/638/324 273/637/323 427/636/322
f 274/249/129 272/243/123 273/637/323
f 277/640/326 275/638/324 428/639/325
f 276/253/133 274/249/129 275/638/324
f 279/642/328 277/640/326 429/641/327
f 278/257/137 276/253/133 277/640/326
f 431/644/330 281/645/331 279/642/328
f 281/645/331 280/261/141 278/257/137
f 283/646/332 281/645/331 431/644/330
f 282/265/145 280/261/141 281/645/331
f 285/648/334 283/646/332 432/647/333
f 284/205/87 282/265/145 283/646/332
f 434/650/336 287/651/337 285/648/334
f 287/651/337 286/206/88 284/205/87
f 435/652/338 289/653/339 287/651/337
f 289/653/339 288/210/92 286/206/88
f 291/654/340 289/653/339 435/652/338
f 290/214/96 288/210/92 289/653/339
f 293/656/342 291/654/340 436/655/341
f 292/221/103 290/214/96 291/654/340
f 296/658/344 293/656/342 437/657/343
f 294/227/109 292/221/103 293/656/342
f 439/660/346 298/661/347 296/658/344
f 298/661/347 297/234/115 294/227/109
f 300/662/348 298/661/347 439/660/346
f 299/241/121 297/234/115 298/661/347
f 302/664/350 300/662/348 440/663/349
f 301/247/127 299/241/121 300/662/348
f 442/666/352 304/667/353 302/664/350
f 304/667/353 303/251/131 301/247/127
f 443/668/354 306/669/355 304/667/353
f 306/669/355 305/255/135 303/251/131
f 308/670/356 306/669/355 443/668/354
f 307/259/139 305/255/135 306/669/355
f 310/672/358 308/670/356 444/671/357
f 309/263/143 307/259/139 308/670/356
f 312/674/360 310/672/358 445/673/359
f 311/202/84 309/263/143 310/672/358
f 447/676/362 314/677/363 312/674/360
f 314/677/363 313/203/85 311/202/84
f 316/678/364 314/677/363 447/676/362
f 315/208/90 313/203/85 314/677/363
f 318/680/366 316/678/364 448/679/365
f 317/212/94 315/208/90 316/678/364
f 450/682/368 320/683/369 318/680/366
f 320/683/369 319/219/101 317/212/94
f 451/684/370 322/685/371 320/683/369
f 322/685/371 321/225/107 319/219/101
f 324/686/372 322/685/371 451/684/370
f 323/232/113 321/225/107 322/685/371
f 261/625/313 324/686/372 452/687/373
f 260/245/125 323/232/113 324/686/372
f 329/244/124 330/690/375 327/688/374
f 328/689/118 326/749/119 327/688/374
f 333/691/376 330/690/375 329/244/124
f 333/691/376 331/693/169 328/689/118
f 335/222/104 336/692/377 333/691/376
f 336/692/377 334/955/170 331/693/169
f 338/228/110 339/697/378 336/694/377
f 337/696/173 334/956/170 336/694/377
f 342/698/379 339/697/378 338/228/110
f 340/699/175 337/696/173 339/697/378
f 345/700/380 342/698/379 341/235/116
f 343/701/177 340/699/175 342/698/379
f 348/702/381 345/700/380 344/242/122
f 346/703/150 343/701/177 345/700/380
f 351/704/382 348/702/381 347/248/128
f 349/705/151 346/703/150 348/702/381
f 353/256/136 354/707/383 351/704/382
f 352/706/153 349/705/151 351/704/382
f 357/708/384 354/707/383 353/256/136
f 357/708/384 355/710/155 352/706/153
f 359/264/144 360/709/385 357/708/384
f 360/709/385 358/957/157 355/710/155
f 362/267/147 363/712/386 360/709/385
f 361/711/159 358/957/157 360/709/385
f 366/713/387 363/712/386 362/267/147
f 364/714/161 361/711/159 363/712/386
f 369/715/388 366/713/387 365/204/86
f 367/716/163 364/714/161 366/713/387
f 372/717/389 369/715/388 368/209/91
f 370/718/165 367/716/163 369/715/388
f 375/719/390 372/717/389 371/213/95
f 373/720/168 370/718/165 372/717/389
f 377/226/108 378/722/391 375/719/390
f 376/721/172 373/720/168 375/719/390
f 381/723/392 378/722/391 377/226/108
f 381/723/392 379/725/174 376/721/172
f 383/240/120 384/724/393 381/723/392
f 384/724/393 382/958/176 379/725/174
f 386/246/126 387/727/394 384/724/393
f 385/726/148 382/958/176 384/724/393
f 390/728/395 387/727/394 386/246/126
f 388/729/149 385/726/148 387/727/394
f 393/730/396 390/728/395 389/250/130
f 391/731/152 388/729/149 390/728/395
f 396/732/397 393/730/396 392/254/134
f 394/733/154 391/731/152 393/730/396
f 399/734/398 396/732/397 395/258/138
f 397/735/156 394/733/154 396/732/397
f 401/266/146 402/737/399 399/734/398
f 400/736/158 397/735/156 399/734/398
f 405/738/400 402/737/399 401/266/146
f 405/738/400 403/740/160 400/736/158
f 407/207/89 408/739/401 405/738/400
f 408/739/401 406/959/162 403/740/160
f 410/211/93 411/742/402 408/739/401
f 409/741/164 406/959/162 408/739/401
f 414/743/403 411/742/402 410/211/93
f 412/744/167 409/741/164 411/742/402
f 417/745/404 414/743/403 413/218/100
f 415/746/171 412/744/167 414/743/403
f 420/747/405 417/745/404 416/224/106
f 418/748/166 415/746/171 417/745/404
f 327/688/374 420/747/405 419/231/112
f 326/749/119 418/748/166 420/747/405
f 455/783/181 484/881/209 107/784/209
f 453/786/179 483/791/208 120/787/208
f 107/784/209 484/881/209 482/789/207
f 483/791/208 481/794/206 119/792/206
f 482/789/207 480/796/205 105/793/205
f 481/794/206 479/798/204 118/795/204
f 480/796/205 478/803/203 104/797/203
f 479/798/204 477/805/202 117/799/202
f 465/800/191 476/807/201 130/801/201
f 478/803/203 475/809/200 103/804/200
f 477/805/202 474/811/199 116/806/199
f 476/807/201 473/813/198 129/808/198
f 475/809/200 472/880/197 102/810/197
f 474/811/199 471/818/196 115/812/196
f 473/813/198 470/820/195 128/814/195
f 472/815/197 469/822/194 101/816/194
f 471/818/196 468/824/193 114/819/193
f 470/820/195 467/826/192 127/821/192
f 469/822/194 466/828/190 100/823/190
f 468/824/193 464/829/189 113/825/189
f 467/826/192 463/831/188 126/827/188
f 466/828/190 465/800/191 99/802/191
f 464/829/189 462/833/187 112/830/187
f 463/831/188 461/835/186 125/832/186
f 462/833/187 460/837/185 111/834/185
f 461/835/186 459/879/184 124/836/184
f 460/837/185 458/841/183 110/838/183
f 124/836/184 459/879/184 457/839/182
f 458/841/183 456/844/180 109/842/180
f 457/839/182 454/845/178 122/843/178
f 456/844/180 455/783/181 108/785/181
f 454/845/178 453/786/179 121/788/179
f 486/326/181 516/382/209 545/846/209
f 485/323/179 515/380/208 544/848/208
f 516/382/209 514/378/207 543/850/207
f 515/380/208 513/376/206 542/851/206
f 514/378/207 512/374/205 541/852/205
f 513/376/206 511/372/204 540/853/204
f 512/374/205 510/370/203 539/854/203
f 511/372/204 509/368/202 538/855/202
f 487/345/191 508/366/201 537/856/201
f 510/370/203 507/364/200 536/858/200
f 509/368/202 506/361/199 535/859/199
f 508/366/201 505/359/198 534/860/198
f 507/364/200 504/363/197 533/861/197
f 506/361/199 503/355/196 532/862/196
f 505/359/198 502/353/195 531/863/195
f 504/357/197 501/351/194 530/864/194
f 503/355/196 500/349/193 529/866/193
f 502/353/195 499/347/192 528/867/192
f 501/351/194 498/343/190 527/868/190
f 500/349/193 497/342/189 526/869/189
f 499/347/192 496/340/188 525/870/188
f 527/868/190 498/343/190 487/345/191
f 497/342/189 495/338/187 524/871/187
f 496/340/188 494/336/186 523/872/186
f 495/338/187 493/334/185 522/873/185
f 494/336/186 492/332/184 521/874/184
f 493/334/185 491/330/183 520/875/183
f 492/332/184 490/329/182 519/876/182
f 491/330/183 489/327/180 518/877/180
f 490/329/182 488/324/178 517/878/178
f 518/877/180 489/327/180 486/326/181
f 517/878/178 488/324/178 485/323/179
f 517/878/178 546/849/179 453/786/179
f 518/877/180 547/847/181 455/783/181
f 519/876/182 517/878/178 454/845/178
f 520/875/183 518/877/180 456/844/180
f 459/879/184 521/874/184 519/876/182
f 522/873/185 520/875/183 458/841/183
f 523/872/186 521/874/184 459/879/184
f 524/871/187 522/873/185 460/837/185
f 525/870/188 523/872/186 461/835/186
f 526/869/189 524/871/187 462/833/187
f 527/868/190 548/857/191 465/800/191
f 528/867/192 525/870/188 463/831/188
f 529/866/193 526/869/189 464/829/189
f 530/864/194 527/868/190 466/828/190
f 531/863/195 528/867/192 467/826/192
f 532/862/196 529/866/193 468/824/193
f 533/865/197 530/864/194 469/822/194
f 534/860/198 531/863/195 470/820/195
f 535/859/199 532/862/196 471/818/196
f 536/858/200 533/861/197 472/880/197
f 537/856/201 534/860/198 473/813/198
f 538/855/202 535/859/199 474/811/199
f 539/854/203 536/858/200 475/809/200
f 548/857/191 537/856/201 476/807/201
f 540/853/204 538/855/202 477/805/202
f 541/852/205 539/854/203 478/803/203
f 542/851/206 540/853/204 479/798/204
f 543/850/207 541/852/205 480/796/205
f 544/848/208 542/851/206 481/794/206
f 484/881/209 545/846/209 543/850/207
f 546/849/179 544/848/208 483/791/208
f 547/847/181 545/846/209 484/881/209
