# Blender 3.6.21
# www.blender.org
mtllib traffic.mtl
v -0.000000 0.044816 -0.043401
v 0.000279 0.010359 -0.073279
v 0.011233 0.044816 -0.041922
v -0.011936 0.010359 -0.080331
v 0.021700 0.044816 -0.037586
v 0.030689 0.044816 -0.030689
v 0.037586 0.044816 -0.021700
v -0.011936 0.010359 -0.094436
v 0.041922 0.044816 -0.011233
v 0.000279 0.010359 -0.101488
v 0.043401 0.044816 0.000000
v 0.041922 0.044816 0.011233
v 0.037586 0.044816 0.021700
v 0.012494 0.010359 -0.094436
v 0.030689 0.044816 0.030689
v 0.012494 0.010359 -0.080331
v 0.021700 0.044816 0.037586
v 0.011233 0.044816 0.041922
v -0.000000 0.044816 0.043401
v -0.000279 0.010359 0.073279
v -0.011233 0.044816 0.041922
v -0.021700 0.044816 0.037586
v 0.011936 0.010359 0.080331
v -0.030689 0.044816 0.030689
v 0.011936 0.010359 0.094436
v -0.037586 0.044816 0.021700
v -0.041922 0.044816 0.011233
v -0.043400 0.044816 0.000000
v -0.000279 0.010359 0.101488
v -0.041922 0.044816 -0.011233
v -0.037586 0.044816 -0.021700
v -0.012494 0.010359 0.094436
v -0.030689 0.044816 -0.030689
v -0.021700 0.044816 -0.037586
v -0.012494 0.010359 0.080331
v -0.011233 0.044816 -0.041922
v -0.000000 0.044816 -0.048463
v 0.073279 0.010359 0.000279
v 0.012543 0.044816 -0.046811
v 0.024232 0.044816 -0.041970
v 0.080331 0.010359 -0.011936
v 0.034268 0.044816 -0.034268
v 0.094436 0.010359 -0.011936
v 0.041970 0.044816 -0.024231
v 0.046812 0.044816 -0.012543
v 0.101488 0.010359 0.000279
v 0.048463 0.044816 0.000000
v 0.046812 0.044816 0.012543
v 0.094436 0.010359 0.012494
v 0.041970 0.044816 0.024231
v 0.034268 0.044816 0.034268
v 0.080331 0.010359 0.012494
v 0.024232 0.044816 0.041970
v 0.012543 0.044816 0.046811
v -0.000000 0.044816 0.048463
v -0.073279 0.010359 -0.000279
v -0.012543 0.044816 0.046811
v -0.080331 0.010359 0.011936
v -0.024231 0.044816 0.041970
v -0.034268 0.044816 0.034268
v -0.094436 0.010359 0.011936
v -0.041970 0.044816 0.024231
v -0.046811 0.044816 0.012543
v -0.048463 0.044816 0.000000
v -0.101488 0.010359 -0.000279
v -0.046811 0.044816 -0.012543
v -0.041970 0.044816 -0.024231
v -0.094436 0.010359 -0.012494
v -0.034268 0.044816 -0.034268
v -0.080331 0.010359 -0.012494
v -0.024231 0.044816 -0.041970
v -0.012543 0.044816 -0.046811
v -0.000000 0.039157 -0.048463
v 0.012543 0.039157 -0.046811
v 0.024232 0.039157 -0.041970
v 0.034268 0.039157 -0.034268
v 0.041970 0.039157 -0.024231
v 0.046812 0.039157 -0.012543
v 0.048463 0.039157 0.000000
v 0.046812 0.039157 0.012543
v 0.041970 0.039157 0.024231
v 0.034268 0.039157 0.034268
v 0.024232 0.039157 0.041970
v 0.012543 0.039157 0.046811
v -0.000000 0.039157 0.048463
v -0.012543 0.039157 0.046811
v -0.024231 0.039157 0.041970
v -0.034268 0.039157 0.034268
v -0.041970 0.039157 0.024231
v -0.046811 0.039157 0.012543
v -0.048463 0.039157 0.000000
v -0.046811 0.039157 -0.012543
v -0.041970 0.039157 -0.024231
v -0.034268 0.039157 -0.034268
v -0.024231 0.039157 -0.041970
v -0.012543 0.039157 -0.046811
v -0.043400 0.054212 0.000000
v -0.041922 0.054212 0.011233
v 0.011233 0.054212 0.041922
v 0.021700 0.054212 0.037586
v 0.037586 0.054212 -0.021700
v 0.030689 0.054212 -0.030689
v -0.041922 0.054212 -0.011233
v -0.000000 0.054212 0.043401
v 0.041922 0.054212 -0.011233
v -0.037586 0.054212 -0.021700
v -0.011233 0.054212 0.041922
v 0.043401 0.054212 0.000000
v -0.030689 0.054212 -0.030689
v -0.021700 0.054212 0.037586
v 0.041922 0.054212 0.011233
v -0.021700 0.054212 -0.037586
v -0.030689 0.054212 0.030689
v 0.037586 0.054212 0.021700
v -0.011233 0.054212 -0.041922
v 0.011233 0.054212 -0.041922
v -0.000000 0.054212 -0.043401
v -0.037586 0.054212 0.021700
v 0.030689 0.054212 0.030689
v 0.021700 0.054212 -0.037586
v -0.010368 0.054212 -0.038695
v -0.020030 0.054212 -0.034693
v -0.028326 0.054212 -0.028327
v -0.034693 0.054212 -0.020030
v -0.038695 0.054212 -0.010368
v -0.040060 0.054212 0.000000
v -0.038695 0.054212 0.010368
v -0.034693 0.054212 0.020030
v -0.028326 0.054212 0.028327
v -0.020030 0.054212 0.034693
v -0.010368 0.054212 0.038695
v -0.000000 0.054212 0.040060
v 0.010368 0.054212 0.038695
v 0.020030 0.054212 0.034693
v 0.028327 0.054212 0.028327
v 0.034693 0.054212 0.020030
v 0.038695 0.054212 0.010368
v 0.040060 0.054212 0.000000
v 0.038695 0.054212 -0.010368
v 0.034693 0.054212 -0.020030
v 0.028327 0.054212 -0.028327
v 0.020030 0.054212 -0.034693
v 0.010368 0.054212 -0.038695
v -0.000000 0.054212 -0.040060
v -0.000000 0.039157 -0.066682
v 0.017259 0.039157 -0.064410
v 0.033341 0.039157 -0.057748
v 0.047151 0.039157 -0.047151
v 0.057748 0.039157 -0.033341
v 0.064410 0.039157 -0.017258
v 0.066682 0.039157 -0.000000
v 0.064410 0.039157 0.017258
v 0.057748 0.039157 0.033341
v 0.047151 0.039157 0.047151
v 0.033341 0.039157 0.057748
v 0.017259 0.039157 0.064410
v -0.000000 0.039157 0.066682
v -0.017258 0.039157 0.064410
v -0.033341 0.039157 0.057748
v -0.047151 0.039157 0.047151
v -0.057748 0.039157 0.033341
v -0.064409 0.039157 0.017258
v -0.066682 0.039157 -0.000000
v -0.064409 0.039157 -0.017258
v -0.057748 0.039157 -0.033341
v -0.047151 0.039157 -0.047151
v -0.033341 0.039157 -0.057748
v -0.017258 0.039157 -0.064410
v -0.000000 0.010360 -0.110932
v 0.028711 0.010360 -0.107152
v 0.055466 0.010360 -0.096070
v 0.078441 0.010360 -0.078440
v 0.096070 0.010360 -0.055466
v 0.107152 0.010360 -0.028711
v 0.110932 0.010360 0.000000
v 0.107152 0.010360 0.028711
v 0.096070 0.010360 0.055466
v 0.078441 0.010360 0.078440
v 0.055466 0.010360 0.096070
v 0.028711 0.010360 0.107152
v -0.000000 0.010360 0.110932
v -0.028711 0.010360 0.107152
v -0.055466 0.010360 0.096070
v -0.078440 0.010360 0.078440
v -0.096069 0.010360 0.055466
v -0.107152 0.010360 0.028711
v -0.110931 0.010360 0.000000
v -0.107152 0.010360 -0.028711
v -0.096069 0.010360 -0.055466
v -0.078440 0.010360 -0.078440
v -0.055466 0.010360 -0.096070
v -0.028711 0.010360 -0.107152
v -0.000000 0.000000 -0.110932
v 0.028711 0.000000 -0.107152
v 0.055466 0.000000 -0.096070
v 0.078441 0.000000 -0.078440
v 0.096070 0.000000 -0.055466
v 0.107152 0.000000 -0.028711
v 0.110932 0.000000 0.000000
v 0.107152 0.000000 0.028711
v 0.096070 0.000000 0.055466
v 0.078441 0.000000 0.078440
v 0.055466 0.000000 0.096070
v 0.028711 0.000000 0.107152
v -0.000000 0.000000 0.110932
v -0.028711 0.000000 0.107152
v -0.055466 0.000000 0.096070
v -0.078440 0.000000 0.078440
v -0.096069 0.000000 0.055466
v -0.107152 0.000000 0.028711
v -0.110931 0.000000 0.000000
v -0.107152 0.000000 -0.028711
v -0.096069 0.000000 -0.055466
v -0.078440 0.000000 -0.078440
v -0.055466 0.000000 -0.096070
v -0.028711 0.000000 -0.107152
v -0.000000 0.936085 -0.020887
v -0.000000 0.927800 -0.040060
v -0.000000 0.934975 -0.033475
v -0.000000 0.931943 -0.038295
v 0.005406 0.936085 -0.020175
v 0.010368 0.927800 -0.038695
v 0.008664 0.934975 -0.032334
v 0.009912 0.931943 -0.036991
v 0.010443 0.936085 -0.018088
v 0.020030 0.927800 -0.034693
v 0.016737 0.934975 -0.028990
v 0.019148 0.931943 -0.033165
v 0.014769 0.936085 -0.014769
v 0.028327 0.927800 -0.028327
v 0.023670 0.934975 -0.023670
v 0.027079 0.931943 -0.027079
v 0.018088 0.936085 -0.010443
v 0.034693 0.927800 -0.020030
v 0.028990 0.934975 -0.016737
v 0.033165 0.931943 -0.019148
v 0.020175 0.936085 -0.005406
v 0.038695 0.927800 -0.010368
v 0.032334 0.934975 -0.008664
v 0.036991 0.931943 -0.009912
v 0.020887 0.936085 -0.000000
v 0.040060 0.927800 0.000000
v 0.033475 0.934975 0.000000
v 0.038296 0.931943 0.000000
v 0.020175 0.936085 0.005406
v 0.038695 0.927800 0.010368
v 0.032334 0.934975 0.008664
v 0.036991 0.931943 0.009912
v 0.018088 0.936085 0.010443
v 0.034693 0.927800 0.020030
v 0.028990 0.934975 0.016737
v 0.033165 0.931943 0.019148
v 0.014769 0.936085 0.014769
v 0.028327 0.927800 0.028327
v 0.023670 0.934975 0.023670
v 0.027079 0.931943 0.027079
v 0.010443 0.936085 0.018088
v 0.020030 0.927800 0.034693
v 0.016737 0.934975 0.028990
v 0.019148 0.931943 0.033165
v 0.005406 0.936085 0.020175
v 0.010368 0.927800 0.038695
v 0.008664 0.934975 0.032334
v 0.009912 0.931943 0.036991
v -0.000000 0.936085 0.020887
v -0.000000 0.927800 0.040060
v -0.000000 0.934975 0.033475
v -0.000000 0.931943 0.038295
v -0.005406 0.936085 0.020175
v -0.010368 0.927800 0.038695
v -0.008664 0.934975 0.032334
v -0.009911 0.931943 0.036991
v -0.010443 0.936085 0.018088
v -0.020030 0.927800 0.034693
v -0.016737 0.934975 0.028990
v -0.019148 0.931943 0.033165
v -0.014769 0.936085 0.014769
v -0.028326 0.927800 0.028327
v -0.023670 0.934975 0.023670
v -0.027079 0.931943 0.027079
v -0.018088 0.936085 0.010443
v -0.034693 0.927800 0.020030
v -0.028990 0.934975 0.016737
v -0.033165 0.931943 0.019148
v -0.020175 0.936085 0.005406
v -0.038695 0.927800 0.010368
v -0.032334 0.934975 0.008664
v -0.036990 0.931943 0.009912
v -0.020886 0.936085 0.000000
v -0.040060 0.927800 0.000000
v -0.033475 0.934975 -0.000000
v -0.038295 0.931943 -0.000000
v -0.020175 0.936085 -0.005406
v -0.038695 0.927800 -0.010368
v -0.032334 0.934975 -0.008664
v -0.036990 0.931943 -0.009912
v -0.018088 0.936085 -0.010443
v -0.034693 0.927800 -0.020030
v -0.028990 0.934975 -0.016737
v -0.033165 0.931943 -0.019148
v -0.014769 0.936085 -0.014769
v -0.028326 0.927800 -0.028327
v -0.023670 0.934975 -0.023670
v -0.027079 0.931943 -0.027079
v -0.010443 0.936085 -0.018088
v -0.020030 0.927800 -0.034693
v -0.016737 0.934975 -0.028990
v -0.019148 0.931943 -0.033165
v -0.005406 0.936085 -0.020175
v -0.010368 0.927800 -0.038695
v -0.008664 0.934975 -0.032334
v -0.009911 0.931943 -0.036991
v -0.000000 0.936085 -0.026890
v 0.006960 0.936085 -0.025973
v 0.013445 0.936085 -0.023287
v 0.019014 0.936085 -0.019014
v 0.023287 0.936085 -0.013445
v 0.025973 0.936085 -0.006960
v 0.026890 0.936085 0.000000
v 0.025973 0.936085 0.006960
v 0.023287 0.936085 0.013445
v 0.019014 0.936085 0.019014
v 0.013445 0.936085 0.023287
v 0.006960 0.936085 0.025973
v -0.000000 0.936085 0.026890
v -0.006959 0.936085 0.025973
v -0.013445 0.936085 0.023287
v -0.019014 0.936085 0.019014
v -0.023287 0.936085 0.013445
v -0.025973 0.936085 0.006960
v -0.026889 0.936085 -0.000000
v -0.025973 0.936085 -0.006960
v -0.023287 0.936085 -0.013445
v -0.019014 0.936085 -0.019014
v -0.013445 0.936085 -0.023287
v -0.006959 0.936085 -0.025973
v -0.000000 0.940097 -0.016257
v 0.004208 0.940097 -0.015703
v 0.008129 0.940097 -0.014079
v 0.011495 0.940097 -0.011495
v 0.014079 0.940097 -0.008128
v 0.015703 0.940097 -0.004208
v 0.016257 0.940097 -0.000000
v 0.015703 0.940097 0.004208
v 0.014079 0.940097 0.008128
v 0.011495 0.940097 0.011495
v 0.008129 0.940097 0.014079
v 0.004208 0.940097 0.015703
v -0.000000 0.940097 0.016257
v -0.004207 0.940097 0.015703
v -0.008128 0.940097 0.014079
v -0.011495 0.940097 0.011495
v -0.014079 0.940097 0.008128
v -0.015703 0.940097 0.004208
v -0.016257 0.940097 0.000000
v -0.015703 0.940097 -0.004208
v -0.014079 0.940097 -0.008128
v -0.011495 0.940097 -0.011495
v -0.008128 0.940097 -0.014079
v -0.004207 0.940097 -0.015703
v -0.000000 0.940097 -0.020887
v 0.005406 0.940097 -0.020175
v 0.010443 0.940097 -0.018088
v 0.014769 0.940097 -0.014769
v 0.018088 0.940097 -0.010443
v 0.020175 0.940097 -0.005406
v 0.020887 0.940097 -0.000000
v 0.020175 0.940097 0.005406
v 0.018088 0.940097 0.010443
v 0.014769 0.940097 0.014769
v 0.010443 0.940097 0.018088
v 0.005406 0.940097 0.020175
v -0.000000 0.940097 0.020887
v -0.005406 0.940097 0.020175
v -0.010443 0.940097 0.018088
v -0.014769 0.940097 0.014769
v -0.018088 0.940097 0.010443
v -0.020175 0.940097 0.005406
v -0.020886 0.940097 0.000000
v -0.020175 0.940097 -0.005406
v -0.018088 0.940097 -0.010443
v -0.014769 0.940097 -0.014769
v -0.010443 0.940097 -0.018088
v -0.005406 0.940097 -0.020175
v -0.000000 0.710575 -0.016257
v 0.004208 0.710575 -0.015703
v 0.008129 0.710575 -0.014079
v 0.011495 0.710575 -0.011495
v 0.014079 0.710575 -0.008128
v 0.015703 0.710575 -0.004208
v 0.016257 0.710575 -0.000000
v 0.015703 0.710575 0.004208
v 0.014079 0.710575 0.008128
v 0.011495 0.710575 0.011495
v 0.008129 0.710575 0.014079
v 0.004208 0.710575 0.015703
v -0.000000 0.710575 0.016257
v -0.004207 0.710575 0.015703
v -0.008128 0.710575 0.014079
v -0.011495 0.710575 0.011495
v -0.014079 0.710575 0.008128
v -0.015703 0.710575 0.004208
v -0.016257 0.710575 0.000000
v -0.015703 0.710575 -0.004208
v -0.014079 0.710575 -0.008128
v -0.011495 0.710575 -0.011495
v -0.008128 0.710575 -0.014079
v -0.004207 0.710575 -0.015703
v -0.100311 0.016513 -0.000698
v -0.094184 0.020531 0.012923
v -0.081230 0.028968 0.013389
v -0.080529 0.029369 -0.013388
v -0.074402 0.033387 0.000233
v -0.093483 0.020933 -0.013853
v 0.013337 0.028988 0.081192
v 0.012940 0.020529 0.094173
v -0.013498 0.029329 0.080594
v -0.013895 0.020870 0.093574
v -0.000676 0.016471 0.100364
v 0.000118 0.033387 0.074403
v 0.074455 0.033363 -0.000103
v 0.081188 0.029000 -0.013329
v 0.094144 0.020552 -0.012994
v 0.080677 0.029279 0.013459
v 0.093632 0.020831 0.013794
v 0.100365 0.016468 0.000568
v 0.013388 0.029370 -0.080529
v 0.000698 0.016514 -0.100311
v -0.000233 0.033387 -0.074402
v 0.013854 0.020933 -0.093483
v -0.012923 0.020531 -0.094184
v -0.013389 0.028968 -0.081230
v 0.006773 0.010359 0.075169
v 0.006773 0.010359 0.099598
v -0.007331 0.010359 0.099598
v -0.015772 0.025126 0.087038
v -0.007331 0.010359 0.075169
v -0.008369 0.017702 0.098452
v 0.007124 0.017505 0.098797
v -0.007681 0.032352 0.075969
v 0.013826 0.010359 0.087383
v -0.014383 0.010359 0.087383
v 0.015214 0.024732 0.087729
v 0.007812 0.032156 0.076315
v -0.099598 0.010359 -0.007331
v -0.075935 0.032373 -0.007559
v -0.087383 0.010359 -0.014383
v -0.076340 0.032141 0.007901
v -0.098778 0.017528 0.007094
v -0.086952 0.025182 -0.015692
v -0.075169 0.010359 0.006773
v -0.075169 0.010359 -0.007331
v -0.087761 0.024718 0.015227
v -0.099598 0.010359 0.006773
v -0.087383 0.010359 0.013826
v -0.098373 0.017760 -0.008365
v -0.076909 0.024758 0.044403
v -0.085780 0.024758 0.022985
v -0.022985 0.024758 0.085781
v -0.044403 0.024758 0.076909
v -0.062796 0.024758 0.062796
v -0.015227 0.024718 -0.087761
v -0.085780 0.024758 -0.022985
v 0.098482 0.017680 0.008256
v -0.076909 0.024758 -0.044403
v -0.062796 0.024758 -0.062796
v -0.044403 0.024758 -0.076909
v -0.022985 0.024758 -0.085781
v 0.076338 0.032151 -0.007791
v 0.022985 0.024758 -0.085781
v -0.007901 0.032141 -0.076340
v 0.044403 0.024758 -0.076909
v 0.062796 0.024758 -0.062796
v 0.076909 0.024758 -0.044403
v 0.007331 0.010359 -0.099598
v 0.085781 0.024758 -0.022985
v 0.098777 0.017519 -0.007210
v -0.013826 0.010359 -0.087383
v 0.099598 0.010359 0.007331
v -0.007094 0.017528 -0.098778
v -0.006773 0.010359 -0.099598
v 0.008365 0.017760 -0.098373
v 0.007331 0.010359 -0.075169
v 0.075169 0.010359 -0.006773
v 0.015692 0.025182 -0.086952
v 0.014383 0.010359 -0.087383
v 0.007559 0.032373 -0.075935
v 0.087383 0.010359 0.014383
v -0.006773 0.010359 -0.075169
v 0.099598 0.010359 -0.006773
v 0.087115 0.025076 0.015698
v 0.076043 0.032312 0.007675
v 0.075169 0.010359 0.007331
v 0.087383 0.010359 -0.013826
v 0.087705 0.024755 -0.015234
v 0.085781 0.024758 0.022985
v 0.022985 0.024758 0.085781
v 0.044403 0.024758 0.076909
v 0.062796 0.024758 0.062796
v 0.076909 0.024758 0.044403
vn -0.0000 1.0000 -0.0000
vn 0.2538 0.1968 -0.9470
vn 0.2588 -0.0000 -0.9659
vn -0.0000 -0.0000 -1.0000
vn -0.0000 0.1968 -0.9804
vn 0.2588 -0.0000 0.9659
vn -0.0000 -0.0000 1.0000
vn 0.8660 -0.0000 -0.5000
vn 0.9659 -0.0000 -0.2588
vn -0.9659 -0.0000 -0.2588
vn -0.8660 -0.0000 -0.5000
vn 0.5000 -0.0000 0.8660
vn 0.7071 -0.0000 -0.7071
vn -1.0000 -0.0000 -0.0000
vn -0.2588 -0.0000 0.9659
vn 1.0000 -0.0000 -0.0000
vn -0.7071 -0.0000 -0.7071
vn -0.5000 -0.0000 0.8660
vn 0.9659 -0.0000 0.2588
vn -0.5000 -0.0000 -0.8660
vn -0.7071 -0.0000 0.7071
vn 0.8660 -0.0000 0.5000
vn -0.2588 -0.0000 -0.9659
vn -0.8660 -0.0000 0.5000
vn 0.7071 -0.0000 0.7071
vn 0.5000 -0.0000 -0.8660
vn -0.9659 -0.0000 0.2588
vn -0.4724 0.8381 0.2727
vn -0.5226 0.8373 0.1607
vn -0.5290 0.8369 0.1405
vn 0.3857 0.8381 0.3857
vn 0.2727 0.8381 0.4724
vn 0.2727 0.8381 -0.4724
vn 0.3857 0.8381 -0.3857
vn -0.5272 0.8388 0.1357
vn -0.5628 0.8266 -0.0013
vn -0.5628 0.8266 0.0009
vn -0.5421 0.8394 0.0383
vn 0.1602 0.8373 0.5227
vn 0.1404 0.8370 0.5289
vn 0.4724 0.8381 -0.2727
vn -0.5288 0.8370 -0.1408
vn -0.5328 0.8462 0.0015
vn -0.5330 0.8461 -0.0032
vn -0.5506 0.8332 -0.0517
vn 0.1357 0.8388 0.5273
vn -0.0009 0.8266 0.5627
vn 0.0005 0.8267 0.5627
vn 0.0383 0.8392 0.5425
vn 0.5226 0.8373 -0.1606
vn 0.5289 0.8370 -0.1405
vn -0.5222 0.8375 -0.1607
vn -0.4724 0.8381 -0.2727
vn -0.1408 0.8370 0.5288
vn 0.0014 0.8465 0.5324
vn -0.0030 0.8464 0.5325
vn -0.0515 0.8333 0.5504
vn 0.5271 0.8389 -0.1358
vn 0.5622 0.8270 0.0009
vn 0.5621 0.8270 -0.0003
vn 0.5422 0.8394 -0.0385
vn -0.3857 0.8381 -0.3857
vn -0.1611 0.8375 0.5222
vn -0.2727 0.8381 0.4724
vn 0.5287 0.8370 0.1407
vn 0.5323 0.8465 -0.0011
vn 0.5324 0.8465 0.0026
vn 0.5500 0.8336 0.0514
vn -0.2727 0.8381 -0.4724
vn -0.3857 0.8381 0.3857
vn 0.5223 0.8375 0.1607
vn 0.4724 0.8381 0.2727
vn -0.1607 0.8373 -0.5226
vn -0.1405 0.8369 -0.5290
vn 0.1408 0.8370 -0.5288
vn -0.0015 0.8462 -0.5328
vn 0.0032 0.8461 -0.5330
vn 0.0517 0.8332 -0.5506
vn -0.1357 0.8388 -0.5272
vn 0.0013 0.8266 -0.5628
vn -0.0009 0.8266 -0.5628
vn -0.0383 0.8394 -0.5421
vn -0.0000 -1.0000 -0.0000
vn -0.0000 0.6368 -0.7710
vn 0.1996 0.6368 -0.7448
vn -0.0000 0.9289 -0.3703
vn 0.0958 0.9289 -0.3577
vn -0.0000 0.9959 -0.0903
vn 0.0234 0.9959 -0.0872
vn 0.4902 0.1968 -0.8491
vn 0.3855 0.6368 -0.6677
vn 0.1852 0.9289 -0.3207
vn 0.0451 0.9959 -0.0782
vn 0.6933 0.1968 -0.6933
vn 0.5452 0.6368 -0.5452
vn 0.2618 0.9289 -0.2619
vn 0.0638 0.9959 -0.0638
vn 0.8491 0.1968 -0.4902
vn 0.6677 0.6368 -0.3855
vn 0.3207 0.9289 -0.1852
vn 0.0782 0.9959 -0.0451
vn 0.9470 0.1968 -0.2538
vn 0.7448 0.6368 -0.1996
vn 0.3577 0.9289 -0.0958
vn 0.0872 0.9959 -0.0234
vn 0.9804 0.1968 -0.0000
vn 0.7710 0.6368 -0.0000
vn 0.3703 0.9289 -0.0000
vn 0.0903 0.9959 -0.0000
vn 0.9470 0.1968 0.2538
vn 0.7448 0.6368 0.1996
vn 0.3577 0.9289 0.0958
vn 0.0872 0.9959 0.0234
vn 0.8491 0.1968 0.4902
vn 0.6677 0.6368 0.3855
vn 0.3207 0.9289 0.1852
vn 0.0782 0.9959 0.0451
vn 0.6933 0.1968 0.6933
vn 0.5452 0.6368 0.5452
vn 0.2619 0.9289 0.2619
vn 0.0638 0.9959 0.0638
vn 0.4902 0.1968 0.8491
vn 0.3855 0.6368 0.6677
vn 0.1852 0.9289 0.3207
vn 0.0451 0.9959 0.0782
vn 0.2538 0.1968 0.9470
vn 0.1996 0.6368 0.7448
vn 0.0958 0.9289 0.3577
vn 0.0234 0.9959 0.0872
vn -0.0000 0.1968 0.9804
vn -0.0000 0.6368 0.7710
vn -0.0000 0.9289 0.3703
vn -0.0000 0.9959 0.0903
vn -0.2538 0.1968 0.9470
vn -0.1996 0.6368 0.7448
vn -0.0958 0.9289 0.3577
vn -0.0234 0.9959 0.0872
vn -0.4902 0.1968 0.8491
vn -0.3855 0.6368 0.6677
vn -0.1852 0.9289 0.3207
vn -0.0451 0.9959 0.0782
vn -0.6933 0.1968 0.6933
vn -0.5452 0.6368 0.5452
vn -0.2618 0.9289 0.2619
vn -0.0638 0.9959 0.0638
vn -0.8491 0.1968 0.4902
vn -0.6677 0.6368 0.3855
vn -0.3207 0.9289 0.1852
vn -0.0782 0.9959 0.0451
vn -0.9470 0.1968 0.2538
vn -0.7448 0.6368 0.1996
vn -0.3577 0.9289 0.0958
vn -0.0872 0.9959 0.0234
vn -0.9804 0.1968 -0.0000
vn -0.7710 0.6368 -0.0000
vn -0.3703 0.9289 -0.0000
vn -0.0903 0.9959 -0.0000
vn -0.9470 0.1968 -0.2538
vn -0.7448 0.6368 -0.1996
vn -0.3577 0.9289 -0.0958
vn -0.0872 0.9959 -0.0234
vn -0.8491 0.1968 -0.4902
vn -0.6677 0.6368 -0.3855
vn -0.3207 0.9289 -0.1852
vn -0.0782 0.9959 -0.0451
vn -0.6933 0.1968 -0.6933
vn -0.5452 0.6368 -0.5452
vn -0.2619 0.9289 -0.2619
vn -0.0638 0.9959 -0.0638
vn -0.4902 0.1968 -0.8491
vn -0.3855 0.6368 -0.6677
vn -0.1852 0.9289 -0.3207
vn -0.0451 0.9959 -0.0782
vn -0.2538 0.1968 -0.9470
vn -0.1996 0.6368 -0.7448
vn -0.0958 0.9289 -0.3577
vn -0.0234 0.9959 -0.0872
vn 0.1607 0.8375 -0.5222
vn 0.8433 0.0388 -0.5360
vn 0.8099 0.0312 -0.5857
vn 0.4521 -0.0209 -0.8917
vn 0.4752 -0.0185 -0.8797
vn 0.9962 0.0864 -0.0129
vn 0.9909 0.0821 -0.1066
vn 0.8928 0.0668 0.4455
vn 0.8399 0.0494 0.5405
vn 0.4405 -0.0784 0.8943
vn 0.5001 -0.0583 0.8640
vn -0.0239 -0.1494 0.9885
vn -0.0029 -0.1494 0.9888
vn -0.4499 -0.0828 0.8892
vn -0.5419 -0.0519 0.8388
vn 0.0323 0.0801 -0.9963
vn 0.5522 0.0316 -0.8331
vn 0.6097 0.0228 -0.7923
vn 0.1407 0.0744 -0.9872
vn -0.9962 0.0796 -0.0349
vn -0.8314 0.0327 -0.5548
vn -0.7889 0.0237 -0.6141
vn -0.9864 0.0741 -0.1470
vn -0.4499 -0.0220 0.8928
vn -0.4740 -0.0195 0.8803
vn -0.8425 0.0374 0.5374
vn -0.8085 0.0297 0.5877
vn -0.9962 0.0855 0.0147
vn -0.9907 0.0810 0.1093
vn -0.8410 0.0505 -0.5386
vn -0.4423 -0.0744 -0.8938
vn -0.5030 -0.0543 -0.8626
vn -0.8941 0.0675 -0.4427
vn 0.9989 -0.0450 0.0115
vn 0.9990 -0.0450 0.0077
vn 0.8811 -0.0210 0.4725
vn 0.8934 -0.0235 0.4486
vn -0.5261 0.0472 -0.8491
vn -0.4096 0.0662 -0.9099
vn 0.5390 0.0371 0.8415
vn 0.5892 0.0292 0.8074
vn -0.5369 0.0534 0.8419
vn -0.8938 -0.0722 0.4426
vn -0.8605 -0.0507 0.5068
vn -0.4391 0.0704 0.8957
vn -0.8426 -0.0485 -0.5364
vn -0.9896 -0.1428 -0.0171
vn -0.9898 -0.1428 -0.0024
vn -0.8899 -0.0771 -0.4496
vn 0.0171 0.0868 0.9961
vn 0.1121 0.0819 0.9903
vn -0.9990 -0.0425 -0.0107
vn -0.8797 -0.0185 -0.4752
vn -0.8917 -0.0209 -0.4521
vn -0.9990 -0.0425 -0.0156
vn -0.1470 0.0741 0.9864
vn -0.0349 0.0796 0.9962
vn -0.5548 0.0327 0.8314
vn -0.6141 0.0237 0.7889
vn -0.0391 0.8377 0.5448
vn -0.1356 0.8386 0.5276
vn -0.0914 0.8444 0.5278
vn 0.1093 0.8359 0.5378
vn 0.0931 0.8439 0.5284
vn 0.0499 0.8349 0.5482
vn 0.0776 0.8239 0.5614
vn -0.1119 0.8369 0.5359
vn -0.0831 0.8259 0.5577
vn -0.5616 0.8237 0.0778
vn -0.5485 0.8346 0.0500
vn -0.5282 0.8439 0.0940
vn -0.5377 0.8359 0.1101
vn -0.5452 0.8374 -0.0390
vn -0.5277 0.8386 -0.1356
vn -0.5280 0.8445 -0.0900
vn -0.5358 0.8370 -0.1111
vn -0.5574 0.8261 -0.0832
vn -0.0778 0.8237 -0.5616
vn -0.0500 0.8346 -0.5485
vn -0.0940 0.8439 -0.5282
vn -0.1101 0.8359 -0.5377
vn 0.0390 0.8374 -0.5452
vn 0.1356 0.8386 -0.5277
vn 0.0900 0.8445 -0.5280
vn 0.5486 0.8346 -0.0499
vn 0.5614 0.8239 -0.0781
vn 0.5362 0.8368 0.1111
vn 0.5580 0.8258 0.0822
vn 0.5444 0.8379 0.0393
vn 0.5275 0.8386 0.1357
vn 0.5281 0.8443 0.0912
vn 0.7902 0.0267 0.6122
vn 0.8315 0.0357 0.5543
vn 0.4569 -0.0207 0.8893
vn 0.4255 -0.0238 0.9047
vn 0.9862 0.0792 0.1451
vn 0.9958 0.0851 0.0351
vn 0.9117 0.0719 -0.4045
vn 0.8499 0.0524 -0.5244
vn 0.0017 -0.1428 -0.9897
vn 0.4497 -0.0743 -0.8901
vn 0.5408 -0.0436 -0.8400
vn 0.0215 -0.1427 -0.9895
vn -0.0130 -0.0426 0.9990
vn -0.0094 -0.0426 0.9990
vn -0.8897 -0.0219 0.4560
vn -0.9057 -0.0250 0.4232
vn 0.4035 0.0646 0.9127
vn 0.5248 0.0442 0.8501
vn 0.8388 -0.0519 0.5419
vn 0.8892 -0.0828 0.4499
vn 0.9885 -0.1494 0.0239
vn 0.9888 -0.1494 0.0029
vn 0.8640 -0.0583 -0.5001
vn 0.8943 -0.0784 -0.4405
vn 0.4455 0.0668 -0.8928
vn 0.5405 0.0494 -0.8399
vn -0.5360 0.0388 -0.8433
vn -0.0129 0.0864 -0.9962
vn -0.1066 0.0821 -0.9909
vn -0.5857 0.0312 -0.8099
vn -0.4560 -0.0219 -0.8897
vn 0.0107 -0.0425 -0.9990
vn 0.0156 -0.0425 -0.9990
vn -0.4232 -0.0250 -0.9057
vn 0.1111 0.8370 -0.5358
vn 0.0832 0.8261 -0.5574
vn -0.8501 0.0442 0.5248
vn -0.9127 0.0646 0.4035
vn 0.9037 -0.0270 -0.4274
vn 0.8883 -0.0239 -0.4587
vn 0.5376 0.8360 -0.1101
vn 0.5281 0.8440 -0.0937
vt 0.992821 0.315175
vt 0.992821 0.296050
vt 0.998460 0.296050
vt 0.998460 0.315175
vt 0.208055 0.972711
vt 0.208055 0.001497
vt 0.216289 0.001497
vt 0.216289 0.972711
vt 0.981278 0.357823
vt 0.981278 0.338699
vt 0.989823 0.338699
vt 0.989823 0.357823
vt 0.922776 0.269244
vt 0.922776 0.288368
vt 0.906916 0.288368
vt 0.906916 0.269244
vt 0.922776 0.135371
vt 0.922776 0.154495
vt 0.906916 0.154495
vt 0.906916 0.135371
vt 0.922776 0.422241
vt 0.922776 0.441366
vt 0.906916 0.441366
vt 0.906916 0.422241
vt 0.968726 0.236414
vt 0.968726 0.215058
vt 0.978277 0.215058
vt 0.978278 0.236414
vt 0.981278 0.571616
vt 0.981278 0.545546
vt 0.989823 0.545546
vt 0.989823 0.571616
vt 0.981278 0.170096
vt 0.981278 0.144026
vt 0.989823 0.144026
vt 0.989823 0.170096
vt 0.981278 0.312629
vt 0.989823 0.312629
vt 0.981278 0.519476
vt 0.989823 0.519476
vt 0.981278 0.500352
vt 0.981278 0.481228
vt 0.989823 0.481228
vt 0.989823 0.500352
vt 0.981278 0.117957
vt 0.989823 0.117957
vt 0.981278 0.286559
vt 0.989823 0.286559
vt 0.981278 0.455158
vt 0.989823 0.455158
vt 0.981278 0.091887
vt 0.989823 0.091887
vt 0.981278 0.260489
vt 0.989823 0.260489
vt 0.981278 0.429088
vt 0.989823 0.429088
vt 0.981278 0.072762
vt 0.989823 0.072762
vt 0.981278 0.234419
vt 0.989823 0.234419
vt 0.981278 0.403018
vt 0.989823 0.403018
vt 0.981278 0.053638
vt 0.989823 0.053638
vt 0.981278 0.215293
vt 0.989823 0.215293
vt 0.981278 0.376948
vt 0.989823 0.376948
vt 0.981278 0.027568
vt 0.989823 0.027568
vt 0.981278 0.196166
vt 0.989823 0.196166
vt 0.981278 0.001498
vt 0.989823 0.001498
vt 0.886587 0.424249
vt 0.857476 0.424249
vt 0.857476 0.393496
vt 0.886587 0.393496
vt 0.968726 0.385901
vt 0.968726 0.364546
vt 0.978277 0.364546
vt 0.978277 0.385901
vt 0.968726 0.065571
vt 0.968726 0.044215
vt 0.978278 0.044215
vt 0.978278 0.065571
vt 0.968726 0.193703
vt 0.978278 0.193703
vt 0.968726 0.343190
vt 0.978278 0.343190
vt 0.968726 0.022860
vt 0.978278 0.022860
vt 0.968726 0.172348
vt 0.978278 0.172348
vt 0.968726 0.321835
vt 0.978277 0.321835
vt 0.968726 0.001505
vt 0.978278 0.001505
vt 0.968726 0.150992
vt 0.978278 0.150992
vt 0.968726 0.300480
vt 0.978277 0.300480
vt 0.968726 0.514033
vt 0.968726 0.492678
vt 0.978277 0.492678
vt 0.978277 0.514033
vt 0.968726 0.129637
vt 0.978278 0.129637
vt 0.968726 0.279124
vt 0.978278 0.279124
vt 0.968726 0.471323
vt 0.978277 0.471323
vt 0.968726 0.449967
vt 0.968726 0.428612
vt 0.978277 0.428612
vt 0.978277 0.449967
vt 0.968726 0.108281
vt 0.978278 0.108282
vt 0.968726 0.257769
vt 0.978278 0.257769
vt 0.968726 0.407257
vt 0.978277 0.407257
vt 0.968726 0.086926
vt 0.978278 0.086926
vt 0.922776 0.097121
vt 0.922776 0.116246
vt 0.906916 0.116246
vt 0.906916 0.097121
vt 0.922776 0.230994
vt 0.922776 0.250119
vt 0.906916 0.250119
vt 0.906916 0.230994
vt 0.922776 0.364867
vt 0.922776 0.383992
vt 0.906916 0.383992
vt 0.906916 0.364867
vt 0.922776 0.077997
vt 0.906916 0.077997
vt 0.922776 0.039747
vt 0.922776 0.058872
vt 0.906916 0.058872
vt 0.906916 0.039747
vt 0.922776 0.211869
vt 0.906916 0.211869
vt 0.922776 0.345742
vt 0.906916 0.345742
vt 0.922776 0.020623
vt 0.906916 0.020623
vt 0.922776 0.192745
vt 0.906916 0.192745
vt 0.922776 0.326618
vt 0.906916 0.326618
vt 0.922776 0.001498
vt 0.906916 0.001498
vt 0.922776 0.173620
vt 0.906916 0.173620
vt 0.922776 0.307493
vt 0.906916 0.307493
vt 0.922776 0.460490
vt 0.906916 0.460490
vt 0.922776 0.403116
vt 0.906916 0.403116
vt 0.992821 0.262896
vt 0.992821 0.248866
vt 0.998460 0.248866
vt 0.998460 0.262896
vt 0.992821 0.086932
vt 0.992821 0.067807
vt 0.998460 0.067807
vt 0.998460 0.086932
vt 0.992821 0.053777
vt 0.992821 0.039748
vt 0.998460 0.039748
vt 0.998460 0.053777
vt 0.992821 0.276926
vt 0.998460 0.276926
vt 0.992821 0.106056
vt 0.998460 0.106056
vt 0.992821 0.158337
vt 0.992821 0.144305
vt 0.998460 0.144305
vt 0.998460 0.158337
vt 0.992821 0.367454
vt 0.992821 0.353424
vt 0.998460 0.353424
vt 0.998460 0.367454
vt 0.992821 0.191492
vt 0.992821 0.172368
vt 0.998460 0.172368
vt 0.998460 0.191492
vt 0.992821 0.334300
vt 0.998460 0.334300
vt 0.992821 0.020623
vt 0.998460 0.020623
vt 0.992821 0.001498
vt 0.998460 0.001498
vt 0.992821 0.125181
vt 0.998460 0.125181
vt 0.992821 0.400608
vt 0.992821 0.381484
vt 0.998460 0.381484
vt 0.998460 0.400608
vt 0.992821 0.229742
vt 0.992821 0.210617
vt 0.998460 0.210617
vt 0.998460 0.229742
vt 0.992821 0.419733
vt 0.998460 0.419733
vt 0.438234 0.424249
vt 0.409124 0.424249
vt 0.409124 0.393496
vt 0.438234 0.393496
vt 0.626502 0.424249
vt 0.597392 0.424249
vt 0.597392 0.393496
vt 0.626502 0.393496
vt 0.828366 0.424249
vt 0.828366 0.393496
vt 0.807011 0.424249
vt 0.785656 0.424249
vt 0.785656 0.393496
vt 0.807011 0.393496
vt 0.380013 0.424249
vt 0.380013 0.393496
vt 0.568281 0.424249
vt 0.568281 0.393496
vt 0.756545 0.424249
vt 0.756545 0.393496
vt 0.350902 0.424249
vt 0.350902 0.393496
vt 0.539170 0.424249
vt 0.539170 0.393496
vt 0.727434 0.424249
vt 0.727434 0.393496
vt 0.329547 0.424249
vt 0.329547 0.393496
vt 0.510060 0.424249
vt 0.510060 0.393496
vt 0.698324 0.424249
vt 0.698324 0.393496
vt 0.308192 0.424249
vt 0.308192 0.393496
vt 0.488702 0.424249
vt 0.488702 0.393496
vt 0.669213 0.424249
vt 0.669213 0.393496
vt 0.279082 0.424249
vt 0.279082 0.393496
vt 0.467345 0.424249
vt 0.467345 0.393496
vt 0.647858 0.424249
vt 0.647858 0.393496
vt 0.249971 0.424249
vt 0.249971 0.393496
vt 0.903920 0.321885
vt 0.903920 0.361934
vt 0.889593 0.361934
vt 0.889593 0.321885
vt 0.473651 0.135820
vt 0.486290 0.172856
vt 0.445946 0.191774
vt 0.430158 0.145511
vt 0.574301 0.079771
vt 0.574301 0.040638
vt 0.618860 0.040638
vt 0.618860 0.079771
vt 0.666423 0.118899
vt 0.666423 0.079766
vt 0.710983 0.079766
vt 0.710983 0.118899
vt 0.425028 0.339561
vt 0.428202 0.310367
vt 0.444470 0.310759
vt 0.448359 0.323707
vt 0.574301 0.001505
vt 0.618860 0.001505
vt 0.666423 0.040633
vt 0.710983 0.040633
vt 0.512054 0.261825
vt 0.517388 0.310415
vt 0.496678 0.309215
vt 0.492801 0.296260
vt 0.741361 0.239564
vt 0.744535 0.210370
vt 0.760803 0.210568
vt 0.764641 0.223560
vt 0.666423 0.001500
vt 0.710983 0.001500
vt 0.757544 0.089314
vt 0.761825 0.050416
vt 0.806385 0.050416
vt 0.801037 0.099005
vt 0.828385 0.161828
vt 0.833721 0.210417
vt 0.813124 0.209255
vt 0.809298 0.196256
vt 0.568374 0.239559
vt 0.571548 0.210365
vt 0.587912 0.210537
vt 0.591692 0.223520
vt 0.757544 0.011518
vt 0.801037 0.001827
vt 0.486290 0.020987
vt 0.473651 0.058023
vt 0.430158 0.048332
vt 0.445946 0.002069
vt 0.655399 0.161824
vt 0.660734 0.210413
vt 0.640141 0.209433
vt 0.636374 0.196442
vt 0.762790 0.095518
vt 0.758509 0.134416
vt 0.713950 0.134416
vt 0.719297 0.085827
vt 0.469370 0.096922
vt 0.424811 0.096922
vt 0.574301 0.158037
vt 0.574301 0.118904
vt 0.618860 0.118904
vt 0.618860 0.158037
vt 0.762790 0.173314
vt 0.719297 0.183005
vt 0.563199 0.161822
vt 0.568533 0.210412
vt 0.547823 0.209213
vt 0.543946 0.196257
vt 0.476173 0.239558
vt 0.479347 0.210364
vt 0.495614 0.210756
vt 0.499503 0.223704
vt 0.677343 0.188733
vt 0.685598 0.183967
vt 0.694805 0.181500
vt 0.704336 0.181500
vt 0.713543 0.183967
vt 0.721798 0.188733
vt 0.728538 0.195473
vt 0.733304 0.203727
vt 0.735770 0.212934
vt 0.735770 0.222466
vt 0.733303 0.231673
vt 0.728538 0.239927
vt 0.721798 0.246667
vt 0.713543 0.251433
vt 0.704336 0.253900
vt 0.694805 0.253900
vt 0.685598 0.251433
vt 0.677343 0.246667
vt 0.670604 0.239927
vt 0.665838 0.231673
vt 0.663371 0.222466
vt 0.663371 0.212934
vt 0.665838 0.203727
vt 0.670604 0.195473
vt 0.903921 0.922611
vt 0.903921 0.962659
vt 0.889594 0.962659
vt 0.889594 0.922611
vt 0.903920 0.642272
vt 0.903920 0.682321
vt 0.889594 0.682321
vt 0.889594 0.642272
vt 0.903920 0.401982
vt 0.889593 0.401982
vt 0.903919 0.001498
vt 0.903919 0.041547
vt 0.889593 0.041547
vt 0.889593 0.001498
vt 0.903920 0.722369
vt 0.889594 0.722369
vt 0.903920 0.442030
vt 0.889593 0.442030
vt 0.903919 0.081595
vt 0.889593 0.081595
vt 0.903920 0.121643
vt 0.903920 0.161692
vt 0.889593 0.161692
vt 0.889593 0.121643
vt 0.903921 0.762417
vt 0.889594 0.762417
vt 0.903920 0.482079
vt 0.889593 0.482079
vt 0.903920 0.201740
vt 0.889593 0.201740
vt 0.903921 0.802466
vt 0.889594 0.802466
vt 0.903920 0.522127
vt 0.889593 0.522127
vt 0.903920 0.241789
vt 0.889593 0.241789
vt 0.903921 0.842514
vt 0.889594 0.842514
vt 0.903920 0.562176
vt 0.889594 0.562176
vt 0.903920 0.281837
vt 0.889593 0.281837
vt 0.903921 0.882563
vt 0.889594 0.882563
vt 0.903920 0.602224
vt 0.889594 0.602224
vt 0.216289 0.977716
vt 0.208055 0.977716
vt 0.216289 0.984048
vt 0.208055 0.984048
vt 0.216289 0.991472
vt 0.208055 0.991472
vt 0.196830 0.972711
vt 0.196830 0.977716
vt 0.196830 0.984048
vt 0.196830 0.991472
vt 0.185606 0.972711
vt 0.185606 0.977716
vt 0.185606 0.984048
vt 0.185606 0.991472
vt 0.174381 0.972711
vt 0.174381 0.977716
vt 0.174381 0.984048
vt 0.174381 0.991472
vt 0.163156 0.972711
vt 0.163156 0.977716
vt 0.163156 0.984048
vt 0.163156 0.991472
vt 0.154922 0.972711
vt 0.154922 0.977716
vt 0.154922 0.984048
vt 0.154922 0.991472
vt 0.146687 0.972711
vt 0.146687 0.977716
vt 0.146687 0.984048
vt 0.146687 0.991472
vt 0.135463 0.972711
vt 0.135463 0.977716
vt 0.135463 0.984048
vt 0.135463 0.991472
vt 0.124238 0.972711
vt 0.124238 0.977716
vt 0.124238 0.984048
vt 0.124238 0.991472
vt 0.113013 0.972711
vt 0.113013 0.977716
vt 0.113013 0.984048
vt 0.113013 0.991472
vt 0.101788 0.972711
vt 0.101788 0.977716
vt 0.101788 0.984048
vt 0.101788 0.991472
vt 0.093553 0.972711
vt 0.093553 0.977716
vt 0.093553 0.984048
vt 0.093553 0.991472
vt 0.085318 0.972711
vt 0.085318 0.977716
vt 0.085318 0.984048
vt 0.085318 0.991472
vt 0.074093 0.972711
vt 0.074093 0.977716
vt 0.074093 0.984048
vt 0.074093 0.991472
vt 0.062868 0.972711
vt 0.062868 0.977716
vt 0.062868 0.984048
vt 0.062868 0.991472
vt 0.051644 0.972711
vt 0.051644 0.977716
vt 0.051644 0.984048
vt 0.051644 0.991472
vt 0.040419 0.972711
vt 0.040419 0.977716
vt 0.040419 0.984048
vt 0.040419 0.991472
vt 0.032185 0.972711
vt 0.032185 0.977716
vt 0.032185 0.984048
vt 0.032185 0.991472
vt 0.023950 0.972711
vt 0.023950 0.977716
vt 0.023950 0.984048
vt 0.023950 0.991472
vt 0.012726 0.972711
vt 0.012726 0.977716
vt 0.012726 0.984048
vt 0.012726 0.991472
vt 0.001501 0.972711
vt 0.001501 0.977716
vt 0.001501 0.984048
vt 0.001501 0.991472
vt 0.235748 0.972711
vt 0.246973 0.972711
vt 0.246973 0.977716
vt 0.235748 0.977716
vt 0.246973 0.984048
vt 0.235748 0.984048
vt 0.246973 0.991472
vt 0.235748 0.991472
vt 0.224524 0.972711
vt 0.224524 0.977716
vt 0.224524 0.984048
vt 0.224524 0.991472
vt 0.960680 0.319165
vt 0.960680 0.328369
vt 0.953908 0.328369
vt 0.953908 0.319165
vt 0.216289 0.998146
vt 0.208055 0.998146
vt 0.196830 0.998146
vt 0.185606 0.998146
vt 0.174381 0.998146
vt 0.163156 0.998146
vt 0.154922 0.998146
vt 0.146687 0.998146
vt 0.135463 0.998146
vt 0.124238 0.998146
vt 0.113013 0.998146
vt 0.101788 0.998146
vt 0.093553 0.998146
vt 0.085318 0.998146
vt 0.074093 0.998146
vt 0.062868 0.998146
vt 0.051644 0.998146
vt 0.040419 0.998146
vt 0.032185 0.998146
vt 0.023950 0.998146
vt 0.012726 0.998146
vt 0.001501 0.998146
vt 0.246973 0.998146
vt 0.235748 0.998146
vt 0.224524 0.998146
vt 0.328774 0.388930
vt 0.321610 0.388930
vt 0.321610 0.001498
vt 0.328774 0.001498
vt 0.960680 0.181108
vt 0.960680 0.190312
vt 0.953908 0.190312
vt 0.953908 0.181108
vt 0.960680 0.245535
vt 0.960680 0.254739
vt 0.953908 0.254739
vt 0.953908 0.245535
vt 0.960680 0.309961
vt 0.953908 0.309961
vt 0.960680 0.171905
vt 0.953908 0.171905
vt 0.960680 0.236331
vt 0.953908 0.236331
vt 0.960680 0.300758
vt 0.953908 0.300758
vt 0.960680 0.162701
vt 0.953908 0.162701
vt 0.960680 0.227127
vt 0.953908 0.227127
vt 0.960680 0.291554
vt 0.953908 0.291554
vt 0.960680 0.153497
vt 0.953908 0.153497
vt 0.960680 0.217924
vt 0.953908 0.217924
vt 0.960680 0.282350
vt 0.953908 0.282350
vt 0.960680 0.365184
vt 0.960680 0.374388
vt 0.953907 0.374388
vt 0.953907 0.365184
vt 0.960680 0.208720
vt 0.953908 0.208720
vt 0.960680 0.273146
vt 0.953908 0.273146
vt 0.960680 0.355980
vt 0.953907 0.355980
vt 0.960680 0.337573
vt 0.960680 0.346776
vt 0.953908 0.346776
vt 0.953908 0.337573
vt 0.960680 0.199516
vt 0.953908 0.199516
vt 0.960680 0.263942
vt 0.953908 0.263942
vt 0.761862 0.289311
vt 0.756607 0.289311
vt 0.756607 0.281496
vt 0.761862 0.281496
vt 0.749443 0.289311
vt 0.749443 0.281496
vt 0.742279 0.289311
vt 0.742279 0.281496
vt 0.735115 0.289311
vt 0.735115 0.281496
vt 0.727952 0.289311
vt 0.727952 0.281496
vt 0.722697 0.289311
vt 0.722697 0.281496
vt 0.717441 0.289311
vt 0.717441 0.281496
vt 0.710277 0.289311
vt 0.710277 0.281496
vt 0.703114 0.289311
vt 0.703114 0.281496
vt 0.695950 0.289311
vt 0.695950 0.281496
vt 0.688786 0.289311
vt 0.688786 0.281496
vt 0.683531 0.289311
vt 0.683531 0.281496
vt 0.678275 0.289311
vt 0.678275 0.281496
vt 0.671111 0.289311
vt 0.671111 0.281496
vt 0.663948 0.289311
vt 0.663948 0.281496
vt 0.656784 0.289311
vt 0.656784 0.281496
vt 0.649620 0.289311
vt 0.649620 0.281496
vt 0.644365 0.289311
vt 0.644365 0.281496
vt 0.639110 0.289311
vt 0.639110 0.281496
vt 0.631946 0.289311
vt 0.631946 0.281496
vt 0.624783 0.289311
vt 0.624783 0.281496
vt 0.781444 0.289311
vt 0.774280 0.289311
vt 0.774280 0.281496
vt 0.781444 0.281496
vt 0.767117 0.289311
vt 0.767117 0.281496
vt 0.567353 0.305417
vt 0.562287 0.310482
vt 0.556083 0.314064
vt 0.549164 0.315918
vt 0.542000 0.315918
vt 0.535080 0.314064
vt 0.528877 0.310482
vt 0.523811 0.305417
vt 0.520229 0.299213
vt 0.518375 0.292293
vt 0.518375 0.285129
vt 0.520229 0.278210
vt 0.523811 0.272006
vt 0.528877 0.266941
vt 0.535080 0.263359
vt 0.542000 0.261505
vt 0.549164 0.261505
vt 0.556083 0.263359
vt 0.562287 0.266940
vt 0.567353 0.272006
vt 0.570934 0.278210
vt 0.572788 0.285129
vt 0.572788 0.292293
vt 0.570934 0.299213
vt 0.264301 0.388930
vt 0.257138 0.388930
vt 0.257138 0.001498
vt 0.264301 0.001498
vt 0.278629 0.388930
vt 0.271465 0.388930
vt 0.271465 0.001498
vt 0.278629 0.001498
vt 0.386083 0.388930
vt 0.378920 0.388930
vt 0.378920 0.001498
vt 0.386083 0.001498
vt 0.335938 0.388930
vt 0.335938 0.001498
vt 0.285792 0.388930
vt 0.285792 0.001498
vt 0.393247 0.388930
vt 0.393247 0.001498
vt 0.343101 0.388930
vt 0.343101 0.001498
vt 0.292956 0.388930
vt 0.292956 0.001498
vt 0.400410 0.388930
vt 0.400411 0.001498
vt 0.350265 0.388930
vt 0.350265 0.001498
vt 0.300120 0.388930
vt 0.300120 0.001498
vt 0.407574 0.388930
vt 0.407574 0.001498
vt 0.357429 0.388930
vt 0.357429 0.001498
vt 0.307283 0.388930
vt 0.307283 0.001498
vt 0.414738 0.388930
vt 0.414738 0.001498
vt 0.364592 0.388930
vt 0.364592 0.001498
vt 0.314447 0.388930
vt 0.314447 0.001498
vt 0.421901 0.388930
vt 0.421901 0.001498
vt 0.371756 0.388930
vt 0.371756 0.001498
vt 0.249974 0.388930
vt 0.249974 0.001498
vt 0.666423 0.158032
vt 0.710983 0.158032
vt 0.927420 0.112296
vt 0.958923 0.110716
vt 0.963786 0.123325
vt 0.926939 0.124611
vt 0.927616 0.099974
vt 0.951963 0.099133
vt 0.944445 0.087903
vt 0.927191 0.087657
vt 0.926248 0.075369
vt 0.938431 0.075800
vt 0.936325 0.062451
vt 0.925742 0.063055
vt 0.926434 0.050751
vt 0.939125 0.049230
vt 0.883644 0.140521
vt 0.883524 0.152844
vt 0.851565 0.151620
vt 0.858701 0.140141
vt 0.928297 0.026177
vt 0.928445 0.013854
vt 0.960556 0.014868
vt 0.953425 0.026348
vt 0.846107 0.136670
vt 0.809247 0.138018
vt 0.809659 0.125701
vt 0.841183 0.124055
vt 0.809795 0.113377
vt 0.834160 0.112476
vt 0.809317 0.101063
vt 0.808321 0.088779
vt 0.820467 0.089173
vt 0.826572 0.101260
vt 0.581948 0.301329
vt 0.575786 0.290656
vt 0.575786 0.278333
vt 0.581948 0.267660
vt 0.592621 0.261498
vt 0.604945 0.261498
vt 0.615618 0.267660
vt 0.621780 0.278332
vt 0.621780 0.290656
vt 0.615618 0.301329
vt 0.604945 0.307491
vt 0.592621 0.307491
vt 0.847171 0.029429
vt 0.886055 0.029765
vt 0.885589 0.042080
vt 0.848720 0.042856
vt 0.884335 0.128216
vt 0.866493 0.129095
vt 0.884985 0.054389
vt 0.853420 0.055530
vt 0.884950 0.079030
vt 0.885775 0.091326
vt 0.873606 0.090638
vt 0.867653 0.078503
vt 0.872949 0.117220
vt 0.875715 0.103989
vt 0.886205 0.103643
vt 0.885482 0.115945
vt 0.884656 0.066709
vt 0.860241 0.067199
vt 0.850669 0.155505
vt 0.862993 0.155505
vt 0.873666 0.161667
vt 0.879828 0.172340
vt 0.879828 0.184664
vt 0.873666 0.195337
vt 0.862993 0.201499
vt 0.850669 0.201499
vt 0.839996 0.195337
vt 0.833834 0.184664
vt 0.833834 0.172340
vt 0.839996 0.161667
vt 0.925785 0.254916
vt 0.925785 0.248660
vt 0.950914 0.248660
vt 0.950914 0.254916
vt 0.950914 0.171049
vt 0.925785 0.171049
vt 0.925785 0.158725
vt 0.950914 0.158725
vt 0.875264 0.245329
vt 0.864591 0.251491
vt 0.852267 0.251491
vt 0.841594 0.245329
vt 0.835432 0.234656
vt 0.835432 0.222332
vt 0.841594 0.211659
vt 0.852267 0.205497
vt 0.864591 0.205497
vt 0.875264 0.211659
vt 0.881426 0.222332
vt 0.881426 0.234656
vt 0.763972 0.197391
vt 0.741361 0.181157
vt 0.773315 0.187582
vt 0.787616 0.236036
vt 0.784838 0.249255
vt 0.774465 0.232881
vt 0.809939 0.222422
vt 0.828290 0.258962
vt 0.800596 0.232228
vt 0.786308 0.183769
vt 0.784873 0.171477
vt 0.799475 0.186925
vt 0.511957 0.358960
vt 0.484278 0.332197
vt 0.493557 0.322369
vt 0.468505 0.349253
vt 0.458204 0.332965
vt 0.471341 0.336054
vt 0.447573 0.297595
vt 0.425028 0.281154
vt 0.456853 0.287764
vt 0.469802 0.283901
vt 0.468541 0.271475
vt 0.482957 0.286992
vt 0.563102 0.258957
vt 0.535423 0.232194
vt 0.544702 0.222366
vt 0.519650 0.249250
vt 0.509349 0.232962
vt 0.522486 0.236052
vt 0.498718 0.197593
vt 0.476173 0.181151
vt 0.507998 0.187761
vt 0.636910 0.222563
vt 0.655302 0.258958
vt 0.627546 0.232314
vt 0.613475 0.183888
vt 0.611887 0.171472
vt 0.626606 0.187090
vt 0.591127 0.197398
vt 0.568374 0.181151
vt 0.600491 0.187644
vt 0.185606 0.001497
vt 0.196830 0.001497
vt 0.224524 0.001497
vt 0.235748 0.001497
vt 0.246973 0.001497
vt 0.001501 0.001497
vt 0.012726 0.001497
vt 0.023950 0.001497
vt 0.032185 0.001497
vt 0.040419 0.001497
vt 0.051644 0.001497
vt 0.062868 0.001497
vt 0.074093 0.001497
vt 0.085318 0.001497
vt 0.093553 0.001497
vt 0.101788 0.001497
vt 0.113013 0.001497
vt 0.124238 0.001497
vt 0.135463 0.001497
vt 0.146687 0.001497
vt 0.154922 0.001497
vt 0.163156 0.001497
vt 0.174381 0.001497
vt 0.841714 0.027713
vt 0.809650 0.027234
vt 0.809253 0.014917
vt 0.846406 0.015010
vt 0.834809 0.039362
vt 0.809768 0.039558
vt 0.827193 0.050559
vt 0.809283 0.051872
vt 0.807739 0.076469
vt 0.808312 0.064158
vt 0.820874 0.062536
vt 0.818229 0.075817
vt 0.847887 0.150094
vt 0.808964 0.150339
vt 0.808978 0.002596
vt 0.847887 0.001549
vt 0.925785 0.261172
vt 0.950914 0.261172
vt 0.950914 0.183373
vt 0.925785 0.183373
vt 0.950914 0.188594
vt 0.925785 0.188594
vt 0.950914 0.201081
vt 0.925785 0.201081
vt 0.950914 0.213568
vt 0.925785 0.213568
vt 0.950914 0.218789
vt 0.925785 0.218789
vt 0.925785 0.243440
vt 0.925785 0.231114
vt 0.950914 0.231114
vt 0.950914 0.243440
vt 0.925785 0.153504
vt 0.950914 0.153504
vt 0.513929 0.096922
vt 0.517144 0.126129
vt 0.517144 0.067714
vt 0.526634 0.039905
vt 0.526634 0.153938
vt 0.926530 0.149254
vt 0.926583 0.136930
vt 0.965509 0.136729
vt 0.963702 0.150122
vt 0.803068 0.134416
vt 0.806283 0.163623
vt 0.806283 0.105209
vt 0.717266 0.050416
vt 0.714051 0.021209
vt 0.714051 0.079623
vt 0.621864 0.158032
vt 0.621864 0.118899
vt 0.621864 0.040633
vt 0.621864 0.001500
vt 0.621864 0.079766
vt 0.928334 0.001531
vt 0.965509 0.002294
vt 0.520947 0.183898
vt 0.519686 0.171472
vt 0.534102 0.186989
vt 0.431061 0.201664
vt 0.441734 0.195502
vt 0.454058 0.195502
vt 0.464731 0.201664
vt 0.470893 0.212337
vt 0.470893 0.224661
vt 0.464731 0.235334
vt 0.454058 0.241495
vt 0.441734 0.241495
vt 0.431061 0.235333
vt 0.424899 0.224660
vt 0.424899 0.212336
vt 0.927583 0.038481
vt 0.945615 0.037377
vt 0.849139 0.016056
vt 0.886202 0.017442
vt 0.614574 0.236063
vt 0.611850 0.249251
vt 0.601461 0.232862
vt 0.529741 0.079771
vt 0.529741 0.040638
vt 0.529741 0.001505
vt 0.529741 0.158037
vt 0.529741 0.118904
vt 0.854261 0.003547
vt 0.886205 0.005118
s 1
usemtl delineator
f 141/1/1 140/2/1 101/3/1 102/4/1
f 222/5/2 143/6/3 144/7/4 218/8/5
f 11/9/1 12/10/1 48/11/1 47/12/1
f 99/13/6 104/14/7 19/15/7 18/16/6
f 101/17/8 105/18/9 9/19/9 7/20/8
f 103/21/10 106/22/11 31/23/11 30/24/10
f 53/25/12 54/26/6 84/27/6 83/28/12
f 33/29/1 34/30/1 71/31/1 69/32/1
f 22/33/1 24/34/1 60/35/1 59/36/1
f 12/10/1 13/37/1 50/38/1 48/11/1
f 34/30/1 36/39/1 72/40/1 71/31/1
f 1/41/1 3/42/1 39/43/1 37/44/1
f 24/34/1 26/45/1 62/46/1 60/35/1
f 13/37/1 15/47/1 51/48/1 50/38/1
f 36/39/1 1/41/1 37/44/1 72/40/1
f 3/42/1 5/49/1 40/50/1 39/43/1
f 26/45/1 27/51/1 63/52/1 62/46/1
f 15/47/1 17/53/1 53/54/1 51/48/1
f 5/49/1 6/55/1 42/56/1 40/50/1
f 27/51/1 28/57/1 64/58/1 63/52/1
f 17/53/1 18/59/1 54/60/1 53/54/1
f 6/55/1 7/61/1 44/62/1 42/56/1
f 28/57/1 30/63/1 66/64/1 64/58/1
f 18/59/1 19/65/1 55/66/1 54/60/1
f 7/61/1 9/67/1 45/68/1 44/62/1
f 30/63/1 31/69/1 67/70/1 66/64/1
f 19/65/1 21/71/1 57/72/1 55/66/1
f 9/67/1 11/9/1 47/12/1 45/68/1
f 31/69/1 33/73/1 69/74/1 67/70/1
f 21/71/1 22/33/1 59/36/1 57/72/1
f 94/75/1 95/76/1 167/77/1 166/78/1
f 42/79/13 44/80/8 77/81/8 76/82/13
f 64/83/14 66/84/10 92/85/10 91/86/14
f 54/26/6 55/87/7 85/88/7 84/27/6
f 44/80/8 45/89/9 78/90/9 77/81/8
f 66/84/10 67/91/11 93/92/11 92/85/10
f 55/87/7 57/93/15 86/94/15 85/88/7
f 45/89/9 47/95/16 79/96/16 78/90/9
f 67/91/11 69/97/17 94/98/17 93/92/11
f 57/93/15 59/99/18 87/100/18 86/94/15
f 47/95/16 48/101/19 80/102/19 79/96/16
f 69/103/17 71/104/20 95/105/20 94/106/17
f 59/99/18 60/107/21 88/108/21 87/100/18
f 48/101/19 50/109/22 81/110/22 80/102/19
f 71/104/20 72/111/23 96/112/23 95/105/20
f 37/113/4 39/114/3 74/115/3 73/116/4
f 60/107/21 62/117/24 89/118/24 88/108/21
f 50/109/22 51/119/25 82/120/25 81/110/22
f 72/111/23 37/113/4 73/116/4 96/112/23
f 39/114/3 40/121/26 75/122/26 74/115/3
f 62/117/24 63/123/27 90/124/27 89/118/24
f 51/119/25 53/25/12 83/28/12 82/120/25
f 40/121/26 42/79/13 76/82/13 75/122/26
f 63/123/27 64/83/14 91/86/14 90/124/27
f 120/125/26 102/126/13 6/127/13 5/128/26
f 119/129/25 100/130/12 17/131/12 15/132/25
f 118/133/24 98/134/27 27/135/27 26/136/24
f 116/137/3 120/125/26 5/128/26 3/138/3
f 115/139/23 117/140/4 1/141/4 36/142/23
f 114/143/22 119/129/25 15/132/25 13/144/22
f 117/140/4 116/137/3 3/138/3 1/141/4
f 113/145/21 118/133/24 26/136/24 24/146/21
f 112/147/20 115/139/23 36/142/23 34/148/20
f 111/149/19 114/143/22 13/144/22 12/150/19
f 110/151/18 113/145/21 24/146/21 22/152/18
f 109/153/17 112/147/20 34/148/20 33/154/17
f 108/155/16 111/149/19 12/150/19 11/156/16
f 107/157/15 110/151/18 22/152/18 21/158/15
f 106/22/11 109/159/17 33/160/17 31/23/11
f 105/18/9 108/155/16 11/156/16 9/19/9
f 104/14/7 107/157/15 21/158/15 19/15/7
f 102/126/13 101/17/8 7/20/8 6/127/13
f 100/130/12 99/13/6 18/16/6 17/131/12
f 98/134/27 97/161/14 28/162/14 27/135/27
f 138/163/1 137/164/1 111/165/1 108/166/1
f 128/167/1 127/168/1 98/169/1 118/170/1
f 126/171/1 125/172/1 103/173/1 97/174/1
f 139/175/1 138/163/1 108/166/1 105/176/1
f 129/177/1 128/167/1 118/170/1 113/178/1
f 127/168/1 126/171/1 97/174/1 98/169/1
f 132/179/1 131/180/1 107/181/1 104/182/1
f 97/161/14 103/21/10 30/24/10 28/162/14
f 144/183/1 143/184/1 116/185/1 117/186/1
f 134/187/1 133/188/1 99/189/1 100/190/1
f 143/184/1 142/191/1 120/192/1 116/185/1
f 133/188/1 132/179/1 104/182/1 99/189/1
f 125/172/1 124/193/1 106/194/1 103/173/1
f 124/193/1 123/195/1 109/196/1 106/194/1
f 131/180/1 130/197/1 110/198/1 107/181/1
f 130/197/1 129/177/1 113/178/1 110/198/1
f 122/199/1 121/200/1 115/201/1 112/202/1
f 136/203/1 135/204/1 119/205/1 114/206/1
f 121/200/1 144/183/1 117/186/1 115/201/1
f 142/191/1 141/1/1 102/4/1 120/192/1
f 123/207/1 122/199/1 112/202/1 109/208/1
f 140/2/1 139/175/1 105/176/1 101/3/1
f 135/204/1 134/187/1 100/190/1 119/205/1
f 137/164/1 136/203/1 114/206/1 111/165/1
f 87/209/1 88/210/1 160/211/1 159/212/1
f 80/213/1 81/214/1 153/215/1 152/216/1
f 95/76/1 96/217/1 168/218/1 167/77/1
f 73/219/1 74/220/1 146/221/1 145/222/1
f 88/210/1 89/223/1 161/224/1 160/211/1
f 81/214/1 82/225/1 154/226/1 153/215/1
f 96/217/1 73/219/1 145/222/1 168/218/1
f 74/220/1 75/227/1 147/228/1 146/221/1
f 89/223/1 90/229/1 162/230/1 161/224/1
f 82/225/1 83/231/1 155/232/1 154/226/1
f 75/227/1 76/233/1 148/234/1 147/228/1
f 90/229/1 91/235/1 163/236/1 162/230/1
f 83/231/1 84/237/1 156/238/1 155/232/1
f 76/233/1 77/239/1 149/240/1 148/234/1
f 91/235/1 92/241/1 164/242/1 163/236/1
f 84/237/1 85/243/1 157/244/1 156/238/1
f 77/239/1 78/245/1 150/246/1 149/240/1
f 92/241/1 93/247/1 165/248/1 164/242/1
f 85/243/1 86/249/1 158/250/1 157/244/1
f 78/245/1 79/251/1 151/252/1 150/246/1
f 93/247/1 94/253/1 166/254/1 165/248/1
f 86/249/1 87/209/1 159/212/1 158/250/1
f 79/251/1 80/213/1 152/216/1 151/252/1
f 174/255/9 175/256/16 199/257/16 198/258/9
f 457/259/28 458/260/29 186/261/30 185/262/28
f 499/263/31 498/264/32 179/265/32 178/266/31
f 472/267/33 473/268/34 172/269/34 171/270/33
f 162/271/35 163/272/36 413/273/37 448/274/38
f 498/264/32 497/275/39 180/276/40 179/265/32
f 473/268/34 474/277/41 173/278/41 172/269/34
f 188/279/42 187/280/43 409/281/44 456/282/45
f 156/283/46 157/284/47 420/285/48 444/286/49
f 474/277/41 476/287/50 174/288/51 173/278/41
f 463/289/52 465/290/53 189/291/53 188/292/42
f 182/293/54 181/294/55 419/295/56 438/296/57
f 150/297/58 151/298/59 421/299/60 469/300/61
f 465/290/53 466/301/62 190/302/62 189/291/53
f 459/303/63 460/304/64 183/305/64 182/306/54
f 176/307/65 175/308/66 426/309/67 464/310/68
f 466/311/62 467/312/69 191/313/69 190/314/62
f 460/304/64 461/315/70 184/316/70 183/305/64
f 496/317/71 500/318/72 177/319/72 176/320/65
f 467/312/69 468/321/73 192/322/74 191/313/69
f 170/323/75 169/324/76 428/325/77 482/326/78
f 461/315/70 457/259/28 185/262/28 184/316/70
f 500/318/72 499/263/31 178/266/31 177/319/72
f 168/327/79 145/328/80 429/329/81 471/330/82
f 216/331/83 193/332/83 194/333/83 195/334/83 196/335/83 197/336/83 198/337/83 199/338/83 200/339/83 201/340/83 202/341/83 203/342/83 204/343/83 205/344/83 206/345/83 207/346/83 208/347/83 209/348/83 210/349/83 211/350/83 212/351/83 213/352/83 214/353/83 215/354/83
f 189/355/11 190/356/17 214/357/17 213/358/11
f 182/359/15 183/360/18 207/361/18 206/362/15
f 175/256/16 176/363/19 200/364/19 199/257/16
f 190/365/17 191/366/20 215/367/20 214/368/17
f 183/360/18 184/369/21 208/370/21 207/361/18
f 176/363/19 177/371/22 201/372/22 200/364/19
f 191/366/20 192/373/23 216/374/23 215/367/20
f 169/375/4 170/376/3 194/377/3 193/378/4
f 184/369/21 185/379/24 209/380/24 208/370/21
f 177/371/22 178/381/25 202/382/25 201/372/22
f 192/373/23 169/375/4 193/378/4 216/374/23
f 170/376/3 171/383/26 195/384/26 194/377/3
f 185/379/24 186/385/27 210/386/27 209/380/24
f 178/381/25 179/387/12 203/388/12 202/382/25
f 171/383/26 172/389/13 196/390/13 195/384/26
f 186/385/27 187/391/14 211/392/14 210/386/27
f 179/387/12 180/393/6 204/394/6 203/388/12
f 172/389/13 173/395/8 197/396/8 196/390/13
f 187/391/14 188/397/10 212/398/10 211/392/14
f 180/393/6 181/399/7 205/400/7 204/394/6
f 173/395/8 174/255/9 198/258/9 197/396/8
f 188/397/10 189/355/11 213/358/11 212/398/10
f 181/399/7 182/359/15 206/362/15 205/400/7
f 222/5/2 218/8/5 220/401/84 224/402/85
f 224/402/85 220/401/84 219/403/86 223/404/87
f 223/404/87 219/403/86 313/405/88 314/406/89
f 226/407/90 222/5/2 224/402/85 228/408/91
f 228/408/91 224/402/85 223/404/87 227/409/92
f 227/409/92 223/404/87 314/406/89 315/410/93
f 230/411/94 226/407/90 228/408/91 232/412/95
f 232/412/95 228/408/91 227/409/92 231/413/96
f 231/413/96 227/409/92 315/410/93 316/414/97
f 234/415/98 230/411/94 232/412/95 236/416/99
f 236/416/99 232/412/95 231/413/96 235/417/100
f 235/417/100 231/413/96 316/414/97 317/418/101
f 238/419/102 234/415/98 236/416/99 240/420/103
f 240/420/103 236/416/99 235/417/100 239/421/104
f 239/421/104 235/417/100 317/418/101 318/422/105
f 242/423/106 238/419/102 240/420/103 244/424/107
f 244/424/107 240/420/103 239/421/104 243/425/108
f 243/425/108 239/421/104 318/422/105 319/426/109
f 246/427/110 242/423/106 244/424/107 248/428/111
f 248/428/111 244/424/107 243/425/108 247/429/112
f 247/429/112 243/425/108 319/426/109 320/430/113
f 250/431/114 246/427/110 248/428/111 252/432/115
f 252/432/115 248/428/111 247/429/112 251/433/116
f 251/433/116 247/429/112 320/430/113 321/434/117
f 254/435/118 250/431/114 252/432/115 256/436/119
f 256/436/119 252/432/115 251/433/116 255/437/120
f 255/437/120 251/433/116 321/434/117 322/438/121
f 258/439/122 254/435/118 256/436/119 260/440/123
f 260/440/123 256/436/119 255/437/120 259/441/124
f 259/441/124 255/437/120 322/438/121 323/442/125
f 262/443/126 258/439/122 260/440/123 264/444/127
f 264/444/127 260/440/123 259/441/124 263/445/128
f 263/445/128 259/441/124 323/442/125 324/446/129
f 266/447/130 262/443/126 264/444/127 268/448/131
f 268/448/131 264/444/127 263/445/128 267/449/132
f 267/449/132 263/445/128 324/446/129 325/450/133
f 270/451/134 266/447/130 268/448/131 272/452/135
f 272/452/135 268/448/131 267/449/132 271/453/136
f 271/453/136 267/449/132 325/450/133 326/454/137
f 274/455/138 270/451/134 272/452/135 276/456/139
f 276/456/139 272/452/135 271/453/136 275/457/140
f 275/457/140 271/453/136 326/454/137 327/458/141
f 278/459/142 274/455/138 276/456/139 280/460/143
f 280/460/143 276/456/139 275/457/140 279/461/144
f 279/461/144 275/457/140 327/458/141 328/462/145
f 282/463/146 278/459/142 280/460/143 284/464/147
f 284/464/147 280/460/143 279/461/144 283/465/148
f 283/465/148 279/461/144 328/462/145 329/466/149
f 286/467/150 282/463/146 284/464/147 288/468/151
f 288/468/151 284/464/147 283/465/148 287/469/152
f 287/469/152 283/465/148 329/466/149 330/470/153
f 290/471/154 286/467/150 288/468/151 292/472/155
f 292/472/155 288/468/151 287/469/152 291/473/156
f 291/473/156 287/469/152 330/470/153 331/474/157
f 294/475/158 290/471/154 292/472/155 296/476/159
f 296/476/159 292/472/155 291/473/156 295/477/160
f 295/477/160 291/473/156 331/474/157 332/478/161
f 298/479/162 294/475/158 296/476/159 300/480/163
f 300/480/163 296/476/159 295/477/160 299/481/164
f 299/481/164 295/477/160 332/478/161 333/482/165
f 302/483/166 298/479/162 300/480/163 304/484/167
f 304/484/167 300/480/163 299/481/164 303/485/168
f 303/485/168 299/481/164 333/482/165 334/486/169
f 306/487/170 302/488/166 304/489/167 308/490/171
f 308/490/171 304/489/167 303/491/168 307/492/172
f 307/492/172 303/491/168 334/493/169 335/494/173
f 310/495/174 306/487/170 308/490/171 312/496/175
f 312/496/175 308/490/171 307/492/172 311/497/176
f 311/497/176 307/492/172 335/494/173 336/498/177
f 218/8/5 310/495/174 312/496/175 220/401/84
f 220/401/84 312/496/175 311/497/176 219/403/86
f 219/403/86 311/497/176 336/498/177 313/405/88
f 229/499/13 225/500/26 363/501/26 364/502/13
f 217/503/1 221/504/1 314/406/89 313/405/88
f 221/504/1 225/505/1 315/410/93 314/406/89
f 225/505/1 229/506/1 316/414/97 315/410/93
f 229/506/1 233/507/1 317/418/101 316/414/97
f 233/507/1 237/508/1 318/422/105 317/418/101
f 237/508/1 241/509/1 319/426/109 318/422/105
f 241/509/1 245/510/1 320/430/113 319/426/109
f 245/510/1 249/511/1 321/434/117 320/430/113
f 249/511/1 253/512/1 322/438/121 321/434/117
f 253/512/1 257/513/1 323/442/125 322/438/121
f 257/513/1 261/514/1 324/446/129 323/442/125
f 261/514/1 265/515/1 325/450/133 324/446/129
f 265/515/1 269/516/1 326/454/137 325/450/133
f 269/516/1 273/517/1 327/458/141 326/454/137
f 273/517/1 277/518/1 328/462/145 327/458/141
f 277/518/1 281/519/1 329/466/149 328/462/145
f 281/519/1 285/520/1 330/470/153 329/466/149
f 285/520/1 289/521/1 331/474/157 330/470/153
f 289/521/1 293/522/1 332/478/161 331/474/157
f 293/522/1 297/523/1 333/482/165 332/478/161
f 297/523/1 301/524/1 334/486/169 333/482/165
f 301/525/1 305/526/1 335/494/173 334/493/169
f 305/526/1 309/527/1 336/498/177 335/494/173
f 309/527/1 217/503/1 313/405/88 336/498/177
f 345/528/11 344/529/10 392/530/10 393/531/11
f 289/532/14 285/533/27 378/534/27 379/535/14
f 261/536/6 257/537/12 371/538/12 372/539/6
f 233/540/8 229/499/13 364/502/13 365/541/8
f 293/542/10 289/532/14 379/535/14 380/543/10
f 265/544/7 261/536/6 372/539/6 373/545/7
f 237/546/9 233/540/8 365/541/8 366/547/9
f 297/548/11 293/542/10 380/543/10 381/549/11
f 269/550/15 265/544/7 373/545/7 374/551/15
f 241/552/16 237/546/9 366/547/9 367/553/16
f 301/554/17 297/548/11 381/549/11 382/555/17
f 273/556/18 269/550/15 374/551/15 375/557/18
f 245/558/19 241/552/16 367/553/16 368/559/19
f 305/560/20 301/561/17 382/562/17 383/563/20
f 277/564/21 273/556/18 375/557/18 376/565/21
f 249/566/22 245/558/19 368/559/19 369/567/22
f 309/568/23 305/560/20 383/563/20 384/569/23
f 221/570/3 217/571/4 361/572/4 362/573/3
f 281/574/24 277/564/21 376/565/21 377/575/24
f 253/576/25 249/566/22 369/567/22 370/577/25
f 217/571/4 309/568/23 384/569/23 361/572/4
f 225/500/26 221/570/3 362/573/3 363/501/26
f 285/533/27 281/574/24 377/575/24 378/534/27
f 257/537/12 253/576/25 370/577/25 371/538/12
f 337/578/1 338/579/1 362/580/1 361/581/1
f 338/579/1 339/582/1 363/583/1 362/580/1
f 339/582/1 340/584/1 364/585/1 363/583/1
f 340/584/1 341/586/1 365/587/1 364/585/1
f 341/586/1 342/588/1 366/589/1 365/587/1
f 342/588/1 343/590/1 367/591/1 366/589/1
f 343/590/1 344/592/1 368/593/1 367/591/1
f 344/592/1 345/594/1 369/595/1 368/593/1
f 345/594/1 346/596/1 370/597/1 369/595/1
f 346/596/1 347/598/1 371/599/1 370/597/1
f 347/598/1 348/600/1 372/601/1 371/599/1
f 348/600/1 349/602/1 373/603/1 372/601/1
f 349/602/1 350/604/1 374/605/1 373/603/1
f 350/604/1 351/606/1 375/607/1 374/605/1
f 351/606/1 352/608/1 376/609/1 375/607/1
f 352/608/1 353/610/1 377/611/1 376/609/1
f 353/610/1 354/612/1 378/613/1 377/611/1
f 354/612/1 355/614/1 379/615/1 378/613/1
f 355/614/1 356/616/1 380/617/1 379/615/1
f 356/616/1 357/618/1 381/619/1 380/617/1
f 357/618/1 358/620/1 382/621/1 381/619/1
f 358/622/1 359/623/1 383/624/1 382/625/1
f 359/623/1 360/626/1 384/627/1 383/624/1
f 360/626/1 337/578/1 361/581/1 384/627/1
f 407/628/1 406/629/1 405/630/1 404/631/1 403/632/1 402/633/1 401/634/1 400/635/1 399/636/1 398/637/1 397/638/1 396/639/1 395/640/1 394/641/1 393/642/1 392/643/1 391/644/1 390/645/1 389/646/1 388/647/1 387/648/1 386/649/1 385/650/1 408/651/1
f 360/652/6 359/653/12 407/654/12 408/655/6
f 338/656/15 337/657/7 385/658/7 386/659/15
f 353/660/8 352/661/13 400/662/13 401/663/8
f 346/664/17 345/528/11 393/531/11 394/665/17
f 337/657/7 360/652/6 408/655/6 385/658/7
f 339/666/18 338/656/15 386/659/15 387/667/18
f 354/668/9 353/660/8 401/663/8 402/669/9
f 347/670/20 346/664/17 394/665/17 395/671/20
f 340/672/21 339/666/18 387/667/18 388/673/21
f 355/674/16 354/668/9 402/669/9 403/675/16
f 348/676/23 347/670/20 395/671/20 396/677/23
f 341/678/24 340/672/21 388/673/21 389/679/24
f 356/680/19 355/674/16 403/675/16 404/681/19
f 349/682/4 348/676/23 396/677/23 397/683/4
f 342/684/27 341/678/24 389/679/24 390/685/27
f 357/686/22 356/680/19 404/681/19 405/687/22
f 350/688/3 349/682/4 397/683/4 398/689/3
f 343/690/14 342/684/27 390/685/27 391/691/14
f 358/692/25 357/686/22 405/687/22 406/693/25
f 351/694/26 350/688/3 398/689/3 399/695/26
f 344/529/10 343/690/14 391/691/14 392/530/10
f 359/653/12 358/696/25 406/697/25 407/654/12
f 352/661/13 351/694/26 399/695/26 400/662/13
f 470/698/178 472/267/33 171/270/33 170/699/75
f 4/700/179 432/701/180 471/702/181 489/703/182
f 432/701/180 4/700/179 478/704/183 462/705/184
f 431/706/185 8/707/186 481/708/187 480/709/188
f 428/710/189 10/711/190 475/712/191 482/713/192
f 488/714/193 52/715/194 424/716/195 491/717/196
f 462/705/184 478/704/183 8/707/186 431/706/185
f 486/718/197 16/719/198 427/720/199 485/721/200
f 444/722/201 433/723/202 23/724/203 415/725/204
f 23/724/203 441/726/205 443/727/206 415/725/204
f 25/728/207 434/729/208 439/730/209 416/731/210
f 29/732/1 434/733/1 25/734/1 441/735/1 23/736/1 433/737/1 20/738/1 437/739/1 35/740/1 442/741/1 32/742/1 435/743/1
f 421/744/211 38/745/212 484/746/213 469/747/214
f 49/748/215 488/714/193 491/717/196 425/749/216
f 469/747/214 484/746/213 41/750/217 422/751/218
f 43/752/219 490/753/220 477/754/221 423/755/222
f 464/756/223 426/757/224 46/758/225 479/759/226
f 422/751/218 41/750/217 494/760/227 495/761/228
f 43/762/1 494/763/1 41/764/1 484/765/1 38/766/1 493/767/1 52/768/1 488/769/1 49/770/1 479/771/1 46/772/1 490/773/1
f 56/774/229 451/775/230 448/776/231 413/777/232
f 450/778/233 447/779/234 70/780/235 412/781/236
f 65/782/1 454/783/1 61/784/1 455/785/1 58/786/1 451/787/1 56/788/1 452/789/1 70/790/1 447/791/1 68/792/1 445/793/1
f 440/794/237 158/795/238 417/796/239
f 443/797/240 497/798/39 156/283/46 415/799/241
f 439/800/242 180/801/40 416/802/243
f 436/803/244 459/804/63 182/293/54 418/805/245
f 186/806/30 410/807/246 449/808/247
f 458/809/29 162/271/35 411/810/248 453/811/249
f 446/812/250 164/813/251 412/814/252
f 450/815/253 463/816/52 188/279/42 414/817/254
f 192/818/74 431/819/255 480/820/256
f 468/821/73 168/327/79 432/822/257 462/823/258
f 487/824/259 146/825/260 427/826/261
f 477/827/262 174/828/51 423/829/263
f 491/830/264 496/831/71 176/307/65 425/832/265
f 492/833/266 152/834/267 424/835/268
f 230/411/94 141/836/13 142/837/26 226/407/90
f 226/407/90 142/837/26 143/6/3 222/5/2
f 218/8/5 144/7/4 121/838/23 310/495/174
f 310/495/174 121/838/23 122/839/20 306/487/170
f 306/487/170 122/839/20 123/840/17 302/488/166
f 302/483/166 123/841/17 124/842/11 298/479/162
f 298/479/162 124/842/11 125/843/10 294/475/158
f 294/475/158 125/843/10 126/844/14 290/471/154
f 290/471/154 126/844/14 127/845/27 286/467/150
f 286/467/150 127/845/27 128/846/24 282/463/146
f 282/463/146 128/846/24 129/847/21 278/459/142
f 278/459/142 129/847/21 130/848/18 274/455/138
f 274/455/138 130/848/18 131/849/15 270/451/134
f 270/451/134 131/849/15 132/850/7 266/447/130
f 266/447/130 132/850/7 133/851/6 262/443/126
f 262/443/126 133/851/6 134/852/12 258/439/122
f 258/439/122 134/852/12 135/853/25 254/435/118
f 254/435/118 135/853/25 136/854/22 250/431/114
f 250/431/114 136/854/22 137/855/19 246/427/110
f 246/427/110 137/855/19 138/856/16 242/423/106
f 242/423/106 138/856/16 139/857/9 238/419/102
f 238/419/102 139/857/9 140/858/8 234/415/98
f 234/415/98 140/858/8 141/836/13 230/411/94
f 417/859/269 35/860/270 437/861/271 440/862/272
f 436/863/273 442/864/274 35/860/270 417/859/269
f 418/865/275 32/866/276 442/864/274 436/863/273
f 29/867/277 435/868/278 438/869/279 419/870/280
f 435/868/278 32/866/276 418/865/275 438/869/279
f 434/729/208 29/867/277 419/870/280 439/730/209
f 441/726/205 25/728/207 416/731/210 443/727/206
f 420/871/281 20/872/282 433/723/202 444/722/201
f 440/862/272 437/861/271 20/873/282 420/874/281
f 452/875/283 56/774/229 413/777/232 446/876/284
f 414/877/285 68/878/286 447/779/234 450/778/233
f 456/879/287 445/880/288 68/878/286 414/877/285
f 409/881/289 65/882/290 445/880/288 456/879/287
f 449/883/291 454/884/292 65/882/290 409/881/289
f 410/885/293 61/886/294 454/884/292 449/883/291
f 58/887/295 455/888/296 453/889/297 411/890/298
f 455/888/296 61/886/294 410/885/293 453/889/297
f 451/775/230 58/887/295 411/890/298 448/776/231
f 70/780/235 452/891/283 446/892/284 412/781/236
f 187/280/43 186/806/30 449/808/247 409/281/44
f 414/817/254 188/279/42 456/282/45
f 160/893/70 161/894/28 457/259/28 461/315/70
f 159/895/64 160/893/70 461/315/70 460/304/64
f 158/896/238 159/895/64 460/304/64 459/303/63
f 161/894/28 162/897/35 458/260/29 457/259/28
f 186/806/30 458/809/29 453/811/249 410/807/246
f 413/273/37 163/272/36 164/813/251 446/812/250
f 411/810/248 162/271/35 448/274/38
f 483/898/299 2/899/300 429/900/301 487/901/302
f 490/753/220 46/758/225 426/757/224 477/754/221
f 167/902/69 168/903/79 468/321/73 467/312/69
f 166/904/62 167/902/69 467/312/69 466/311/62
f 165/905/53 166/906/62 466/301/62 465/290/53
f 164/907/251 165/905/53 465/290/53 463/289/52
f 412/814/252 164/813/251 463/816/52 450/815/253
f 494/760/227 43/752/219 423/755/222 495/761/228
f 479/759/226 49/748/215 425/749/216 464/756/223
f 489/703/182 471/702/181 429/900/301 2/899/300
f 146/908/260 147/909/33 472/267/33 470/698/178
f 149/910/41 150/911/58 476/287/50 474/277/41
f 148/912/34 149/910/41 474/277/41 473/268/34
f 147/909/33 148/912/34 473/268/34 472/267/33
f 16/719/198 483/913/299 487/914/302 427/720/199
f 416/802/243 180/801/40 497/798/39 443/797/240
f 485/915/303 470/916/178 170/323/75 430/917/304
f 424/835/268 152/834/267 496/831/71 491/830/264
f 8/918/1 478/919/1 4/920/1 489/921/1 2/922/1 483/923/1 16/924/1 486/925/1 14/926/1 475/927/1 10/928/1 481/929/1
f 482/713/192 475/712/191 14/930/305 430/931/306
f 492/932/307 493/933/308 38/745/212 421/744/211
f 480/709/188 481/708/187 10/711/190 428/710/189
f 495/934/309 476/935/50 150/297/58 422/936/310
f 427/826/261 146/825/260 470/916/178 485/915/303
f 192/818/74 468/821/73 462/823/258 431/819/255
f 14/930/305 486/718/197 485/721/200 430/931/306
f 154/937/31 155/938/32 498/264/32 499/263/31
f 155/938/32 156/939/46 497/275/39 498/264/32
f 152/940/267 153/941/72 500/318/72 496/317/71
f 417/796/239 158/795/238 459/804/63 436/803/244
f 153/941/72 154/937/31 499/263/31 500/318/72
f 424/942/195 52/943/194 493/933/308 492/932/307
f 429/329/81 145/328/80 146/825/260 487/824/259
f 432/822/257 168/327/79 471/330/82
f 169/324/76 192/818/74 480/820/256 428/325/77
f 430/917/304 170/323/75 482/326/78
f 423/829/263 174/828/51 476/935/50 495/934/309
f 422/936/310 150/297/58 469/300/61
f 421/299/60 151/298/59 152/834/267 492/833/266
f 426/309/67 175/308/66 174/828/51 477/827/262
f 425/832/265 176/307/65 464/310/68
f 419/295/56 181/294/55 180/801/40 439/800/242
f 415/799/241 156/283/46 444/286/49
f 420/285/48 157/284/47 158/795/238 440/794/237
f 418/805/245 182/293/54 438/296/57
